<?xml version="1.0" encoding="utf-8"?>
<!-- Generator: Adobe Illustrator 23.1.0, SVG Export Plug-In . SVG Version: 6.00 Build 0)  -->
<svg version="1.1" id="Layer_1" xmlns="http://www.w3.org/2000/svg" xmlns:xlink="http://www.w3.org/1999/xlink" x="0px" y="0px"
	 viewBox="0 0 1304 956" style="enable-background:new 0 0 1304 956;" xml:space="preserve">
<style type="text/css">
	.st0{clip-path:url(#SVGID_2_);}
	.st1{fill:#66C5FF;}
	.st2{opacity:0.6;fill:#FFFFFF;enable-background:new    ;}
	.st3{opacity:0.6;}
	.st4{fill:#FFFFFF;}
	.st5{fill:#24A7FF;}
	.st6{fill:#3BB0FF;}
	.st7{fill:#3D4959;}
	.st8{fill:#D6E0EA;}
	.st9{fill:#EDEDED;}
	.st10{opacity:0.2;fill:#FFFFFF;enable-background:new    ;}
	.st11{fill:#F3F9FF;}
	.st12{fill:#425160;}
	.st13{fill:#41566D;}
	.st14{fill:#E4EFF7;}
	.st15{fill:#DDE9F2;}
	.st16{fill:#55738E;}
	.st17{fill:#657285;}
	.st18{fill:#B8C1C9;}
	.st19{fill:#EAEAEA;}
	.st20{fill:#D5D6DA;}
	.st21{opacity:0.5;}
	.st22{fill:#00A3FE;}
	.st23{fill:#016EB9;}
	.st24{fill:#131F2D;}
	.st25{fill:#5C305D;}
	.st26{opacity:0.4;}
	.st27{fill:#FF7955;}
	.st28{fill:#364154;}
	.st29{fill:#FFB27D;}
	.st30{fill:#FCA311;}
	.st31{fill:url(#SVGID_3_);}
	.st32{fill:url(#SVGID_4_);}
	.st33{fill:url(#SVGID_5_);}
	.st34{fill:url(#SVGID_6_);}
	.st35{fill:url(#SVGID_7_);}
	.st36{fill:url(#SVGID_8_);}
	.st37{fill:url(#SVGID_9_);}
	.st38{fill:url(#SVGID_10_);}
	.st39{fill-rule:evenodd;clip-rule:evenodd;fill:#FCA311;}
	.st40{fill-rule:evenodd;clip-rule:evenodd;fill:url(#SVGID_11_);}
	.st41{fill-rule:evenodd;clip-rule:evenodd;fill:url(#SVGID_12_);}
	.st42{fill-rule:evenodd;clip-rule:evenodd;fill:url(#SVGID_13_);}
	.st43{fill-rule:evenodd;clip-rule:evenodd;fill:url(#SVGID_14_);}
	.st44{fill:url(#SVGID_15_);}
	.st45{fill:url(#SVGID_16_);}
	.st46{fill:url(#SVGID_17_);}
	.st47{fill:url(#SVGID_18_);}
</style>
<g>
	<defs>
		<rect id="SVGID_1_" x="76.7" y="63.3" width="544" height="420"/>
	</defs>
	<clipPath id="SVGID_2_">
		<use xlink:href="#SVGID_1_"  style="overflow:visible;"/>
	</clipPath>
	<g class="st0">
		<path class="st1" d="M164,172.8c0.7-6.5,3-12.8,6.7-18.2c3.7-5.4,8.8-9.7,14.7-12.7c5.9-2.9,12.4-4.3,18.9-4
			c6.5,0.3,12.9,2.2,18.5,5.6c5.1-3.6,11-5.8,17.2-6.4c6.2-0.6,12.4,0.3,18.1,2.8c5.7,2.5,10.7,6.3,14.5,11.2
			c3.8,4.9,6.2,10.7,7.1,16.9c9.2,2.1,17.4,7.6,22.8,15.4s7.9,17.2,6.8,26.7s-5.6,18.1-12.7,24.4c-7.1,6.3-16.2,9.8-25.7,9.8h-92.9
			c-8.6,0-17-3-23.6-8.5c-6.7-5.5-11.2-13.1-12.8-21.5s-0.3-17.2,3.8-24.8C149.5,181.9,156.1,176,164,172.8L164,172.8z"/>
		<path class="st2" d="M258.7,202.3c0.9-4.4,0.9-9,0-13.4l-5.3-0.7c-0.6-2.2-1.4-4.2-2.6-6.2l3.2-4.3c-2.5-3.8-5.7-7-9.5-9.5
			l-4.2,3.2c-1.9-1.1-4-2-6.2-2.6l-0.7-5.2c-4.4-0.9-9-0.9-13.4,0l-0.7,5.2c-2.2,0.6-4.2,1.5-6.2,2.6l-4.3-3.2
			c-3.8,2.5-7,5.7-9.5,9.5l3.2,4.3c-1.1,1.9-2,4-2.6,6.2l-5.3,0.7c-0.9,4.4-0.9,9,0,13.4l5.3,0.8c0.6,2.2,1.5,4.2,2.6,6.2l-3.2,4.3
			c2.5,3.8,5.7,7,9.5,9.5l4.3-3.2c1.9,1.1,4,2,6.2,2.6l0.7,5.3c4.4,0.9,9,0.9,13.4,0l0.7-5.3c2.2-0.6,4.2-1.5,6.2-2.6l4.3,3.2
			c3.8-2.5,7-5.7,9.5-9.5l-3.2-4.3c1.1-1.9,2-4,2.6-6.2L258.7,202.3z M226.7,211.4c-3.1,0-6.2-0.9-8.8-2.7c-2.6-1.7-4.6-4.2-5.8-7.1
			c-1.2-2.9-1.5-6.1-0.9-9.1c0.6-3.1,2.1-5.9,4.3-8.1s5-3.7,8.1-4.3c3.1-0.6,6.2-0.3,9.1,0.9c2.9,1.2,5.4,3.2,7.1,5.8
			c1.7,2.6,2.7,5.7,2.7,8.8c0,2.1-0.4,4.1-1.2,6c-0.8,1.9-2,3.7-3.4,5.1c-1.5,1.5-3.2,2.6-5.1,3.4
			C230.8,211,228.8,211.4,226.7,211.4z"/>
		<path class="st1" d="M375.8,136.2c0.7-6.5,3-12.8,6.7-18.2s8.8-9.7,14.7-12.6c5.9-2.9,12.4-4.3,18.9-4c6.5,0.3,12.9,2.2,18.5,5.6
			c5.1-3.6,11-5.8,17.2-6.4c6.2-0.6,12.4,0.3,18.1,2.8c5.7,2.5,10.7,6.3,14.5,11.2c3.8,4.9,6.2,10.7,7.2,16.9
			c9.2,2.1,17.4,7.6,22.8,15.4c5.5,7.8,7.9,17.3,6.8,26.7c-1.1,9.4-5.6,18.1-12.7,24.4c-7.1,6.3-16.2,9.8-25.7,9.8h-92.9
			c-8.6,0-17-3-23.6-8.5c-6.6-5.5-11.2-13.1-12.8-21.5c-1.7-8.5-0.3-17.2,3.8-24.8S367.9,139.4,375.8,136.2L375.8,136.2z"/>
		<g class="st3">
			<path class="st4" d="M420.5,169.1c0-5.2,2.8-8.1,6.5-8.1s6.5,3,6.5,8.1s-2.8,8.1-6.5,8.1S420.5,174.3,420.5,169.1z M431.3,169.1
				c0-4.1-1.7-6.2-4.2-6.2c-2.5,0-4.3,2.1-4.3,6.2c0,4.1,1.7,6.2,4.3,6.2C429.5,175.2,431.3,173.2,431.3,169.1L431.3,169.1z"/>
			<path class="st4" d="M435.8,169.1c0-5.2,2.8-8.1,6.5-8.1c3.8,0,6.5,3,6.5,8.1s-2.8,8.1-6.5,8.1
				C438.6,177.2,435.8,174.3,435.8,169.1z M446.5,169.1c0-4.1-1.7-6.2-4.2-6.2c-2.5,0-4.3,2.1-4.3,6.2c0,4.1,1.7,6.2,4.3,6.2
				C444.8,175.2,446.5,173.2,446.5,169.1z"/>
			<path class="st4" d="M455.9,161.1v16h-2.3v-14H450v-2H455.9z"/>
			<path class="st4" d="M459.4,169.1c0-5.2,2.8-8.1,6.5-8.1c3.8,0,6.5,3,6.5,8.1s-2.8,8.1-6.5,8.1
				C462.2,177.2,459.4,174.3,459.4,169.1z M470.2,169.1c0-4.1-1.7-6.2-4.2-6.2c-2.5,0-4.3,2.1-4.3,6.2c0,4.1,1.7,6.2,4.3,6.2
				C468.5,175.2,470.2,173.2,470.2,169.1z"/>
			<path class="st4" d="M479.6,161.1v16h-2.3v-14h-3.6v-2H479.6z"/>
			<path class="st4" d="M483,169.1c0-5.2,2.8-8.1,6.5-8.1c3.8,0,6.5,3,6.5,8.1s-2.8,8.1-6.5,8.1C485.9,177.2,483,174.3,483,169.1z
				 M493.8,169.1c0-4.1-1.7-6.2-4.2-6.2s-4.3,2.1-4.3,6.2c0,4.1,1.7,6.2,4.3,6.2C492.1,175.2,493.8,173.2,493.8,169.1z"/>
			<path class="st4" d="M503.2,161.1v16h-2.3v-14h-3.6v-2H503.2z"/>
		</g>
		<path class="st5" d="M254.8,344.2c0-8.8-2.8-17.4-8-24.4c-5.2-7.1-12.5-12.3-20.9-15c-0.8-6.6-3.3-12.8-7.3-18.2
			c-3.9-5.3-9.2-9.6-15.2-12.3c-6-2.8-12.7-3.9-19.3-3.4s-13,2.7-18.5,6.4c-5.5-3.7-11.9-5.9-18.5-6.4c-6.6-0.5-13.2,0.6-19.3,3.4
			c-6,2.8-11.3,7-15.2,12.3c-3.9,5.3-6.4,11.6-7.3,18.2c-9.4,3-17.4,9.2-22.6,17.6c-5.2,8.4-7.2,18.4-5.7,28.1
			c1.5,9.8,6.4,18.6,13.9,25.1c7.5,6.4,17,10,26.9,10h96.5c10.8-0.2,21.1-4.7,28.6-12.4C250.6,365.4,254.8,355,254.8,344.2
			L254.8,344.2z"/>
		<path class="st6" d="M165.4,277.1c-5.5-3.6-11.9-5.7-18.4-6.2c-6.6-0.5-13.2,0.7-19.1,3.5c-6,2.8-11.2,7-15.1,12.3
			c-3.9,5.3-6.4,11.6-7.2,18.1c-9.4,3-17.4,9.2-22.6,17.6c-5.2,8.4-7.2,18.4-5.7,28.1c1.5,9.8,6.4,18.6,13.9,25.1
			c7.5,6.4,17,10,26.9,10h29L165.4,277.1z"/>
		<path class="st7" d="M266.3,365.4H161v7.8h105.4V365.4z"/>
		<path class="st7" d="M266.3,327.4H161v7.8h105.4V327.4z"/>
		<path class="st8" d="M271,371.3H155.8c-3,0-5.4,2.4-5.4,5.4v24.4c0,3,2.4,5.4,5.4,5.4H271c3,0,5.4-2.4,5.4-5.4v-24.4
			C276.5,373.7,274,371.3,271,371.3z"/>
		<path class="st9" d="M202.7,371.3l-5.7,35.2h-41.2c-1.4,0-2.8-0.6-3.8-1.6c-1-1-1.6-2.4-1.6-3.8v-24.4c0-1.4,0.6-2.8,1.6-3.8
			c1-1,2.4-1.6,3.8-1.6H202.7z"/>
		<path class="st7" d="M268.7,398.8v-19.7H158.1v19.7H268.7z"/>
		<path class="st5" d="M260,388.9c0,0.7-0.2,1.3-0.6,1.9c-0.4,0.6-0.9,1-1.5,1.3c-0.6,0.3-1.3,0.3-2,0.2c-0.7-0.1-1.3-0.5-1.7-0.9
			c-0.5-0.5-0.8-1.1-0.9-1.7c-0.1-0.7-0.1-1.3,0.2-2c0.3-0.6,0.7-1.2,1.3-1.5c0.6-0.4,1.2-0.6,1.9-0.6c0.9,0,1.8,0.4,2.4,1
			S260,388,260,388.9L260,388.9z"/>
		<path class="st5" d="M245.3,388.9c0,0.6-0.2,1.1-0.5,1.6c-0.3,0.5-0.8,0.9-1.3,1.1c-0.5,0.2-1.1,0.3-1.7,0.2
			c-0.6-0.1-1.1-0.4-1.5-0.8c-0.4-0.4-0.7-0.9-0.8-1.5c-0.1-0.6-0.1-1.2,0.2-1.7c0.2-0.5,0.6-1,1.1-1.3c0.5-0.3,1-0.5,1.6-0.5
			c0.8,0,1.5,0.3,2.1,0.9C245,387.4,245.3,388.1,245.3,388.9L245.3,388.9z"/>
		<path class="st4" d="M231.1,388.9c0,0.6-0.2,1.1-0.5,1.6c-0.3,0.5-0.8,0.9-1.3,1.1c-0.5,0.2-1.1,0.3-1.7,0.2
			c-0.6-0.1-1.1-0.4-1.5-0.8c-0.4-0.4-0.7-0.9-0.8-1.5c-0.1-0.6-0.1-1.2,0.2-1.7c0.2-0.5,0.6-1,1.1-1.3c0.5-0.3,1-0.5,1.6-0.5
			c0.8,0,1.5,0.3,2.1,0.9S231.1,388.1,231.1,388.9L231.1,388.9z"/>
		<path class="st5" d="M216.9,388.9c0,0.6-0.2,1.1-0.5,1.6c-0.3,0.5-0.8,0.9-1.3,1.1c-0.5,0.2-1.1,0.3-1.7,0.2
			c-0.6-0.1-1.1-0.4-1.5-0.8c-0.4-0.4-0.7-0.9-0.8-1.5c-0.1-0.6-0.1-1.2,0.2-1.7c0.2-0.5,0.6-1,1.1-1.3c0.5-0.3,1-0.5,1.6-0.5
			c0.8,0,1.5,0.3,2.1,0.9C216.6,387.4,216.9,388.1,216.9,388.9L216.9,388.9z"/>
		<path class="st4" d="M202.7,388.9c0,0.6-0.2,1.1-0.5,1.6c-0.3,0.5-0.8,0.9-1.3,1.1c-0.5,0.2-1.1,0.3-1.7,0.2
			c-0.6-0.1-1.1-0.4-1.5-0.8c-0.4-0.4-0.7-0.9-0.8-1.5c-0.1-0.6-0.1-1.2,0.2-1.7c0.2-0.5,0.6-1,1.1-1.3c0.5-0.3,1-0.5,1.6-0.5
			c0.8,0,1.5,0.3,2.1,0.9C202.4,387.4,202.7,388.1,202.7,388.9L202.7,388.9z"/>
		<path class="st8" d="M271,332.7H155.8c-3,0-5.4,2.4-5.4,5.4v24.4c0,3,2.4,5.4,5.4,5.4H271c3,0,5.4-2.4,5.4-5.4v-24.4
			C276.5,335.1,274,332.7,271,332.7z"/>
		<path class="st9" d="M209,332.7l-5.7,35.2h-47.5c-1.4,0-2.8-0.6-3.8-1.6c-1-1-1.6-2.4-1.6-3.8v-24.4c0-1.4,0.6-2.8,1.6-3.8
			c1-1,2.4-1.6,3.8-1.6H209z"/>
		<path class="st7" d="M268.7,360.2v-19.7H158.1v19.7H268.7z"/>
		<path class="st8" d="M271,294.6H155.8c-3,0-5.4,2.4-5.4,5.4v24.4c0,3,2.4,5.4,5.4,5.4H271c3,0,5.4-2.4,5.4-5.4v-24.4
			C276.5,297.1,274,294.6,271,294.6z"/>
		<path class="st9" d="M215.2,294.6l-5.7,35.2h-53.7c-1.4,0-2.8-0.6-3.8-1.6c-1-1-1.6-2.4-1.6-3.8v-24.4c0-1.4,0.6-2.8,1.6-3.8
			c1-1,2.4-1.6,3.8-1.6H215.2z"/>
		<path class="st7" d="M268.7,322.2v-19.7H158.1v19.7H268.7z"/>
		<path class="st5" d="M256.6,353.7c1.9,0,3.4-1.5,3.4-3.4c0-1.9-1.5-3.4-3.4-3.4c-1.9,0-3.4,1.5-3.4,3.4
			C253.2,352.2,254.7,353.7,256.6,353.7z"/>
		<path class="st5" d="M245.3,350.3c0,0.6-0.2,1.1-0.5,1.6c-0.3,0.5-0.8,0.9-1.3,1.1c-0.5,0.2-1.1,0.3-1.7,0.2
			c-0.6-0.1-1.1-0.4-1.5-0.8c-0.4-0.4-0.7-0.9-0.8-1.5s-0.1-1.2,0.2-1.7c0.2-0.5,0.6-1,1.1-1.3c0.5-0.3,1-0.5,1.6-0.5
			c0.8,0,1.5,0.3,2.1,0.9C245,348.8,245.3,349.5,245.3,350.3L245.3,350.3z"/>
		<path class="st4" d="M231.1,350.3c0,0.6-0.2,1.1-0.5,1.6c-0.3,0.5-0.8,0.9-1.3,1.1c-0.5,0.2-1.1,0.3-1.7,0.2
			c-0.6-0.1-1.1-0.4-1.5-0.8c-0.4-0.4-0.7-0.9-0.8-1.5s-0.1-1.2,0.2-1.7c0.2-0.5,0.6-1,1.1-1.3c0.5-0.3,1-0.5,1.6-0.5
			c0.8,0,1.5,0.3,2.1,0.9C230.8,348.8,231.1,349.5,231.1,350.3L231.1,350.3z"/>
		<path class="st5" d="M216.9,350.3c0,0.6-0.2,1.1-0.5,1.6c-0.3,0.5-0.8,0.9-1.3,1.1c-0.5,0.2-1.1,0.3-1.7,0.2
			c-0.6-0.1-1.1-0.4-1.5-0.8c-0.4-0.4-0.7-0.9-0.8-1.5s-0.1-1.2,0.2-1.7c0.2-0.5,0.6-1,1.1-1.3c0.5-0.3,1-0.5,1.6-0.5
			c0.8,0,1.5,0.3,2.1,0.9C216.6,348.8,216.9,349.5,216.9,350.3L216.9,350.3z"/>
		<path class="st4" d="M202.7,350.3c0,0.6-0.2,1.1-0.5,1.6c-0.3,0.5-0.8,0.9-1.3,1.1c-0.5,0.2-1.1,0.3-1.7,0.2
			c-0.6-0.1-1.1-0.4-1.5-0.8c-0.4-0.4-0.7-0.9-0.8-1.5s-0.1-1.2,0.2-1.7c0.2-0.5,0.6-1,1.1-1.3c0.5-0.3,1-0.5,1.6-0.5
			c0.8,0,1.5,0.3,2.1,0.9C202.4,348.8,202.7,349.5,202.7,350.3L202.7,350.3z"/>
		<path class="st5" d="M260,312.3c0,0.7-0.2,1.3-0.6,1.9c-0.4,0.6-0.9,1-1.5,1.3c-0.6,0.3-1.3,0.3-2,0.2c-0.7-0.1-1.3-0.5-1.7-0.9
			c-0.5-0.5-0.8-1.1-0.9-1.7c-0.1-0.7-0.1-1.3,0.2-2c0.3-0.6,0.7-1.2,1.3-1.5c0.6-0.4,1.2-0.6,1.9-0.6c0.9,0,1.8,0.4,2.4,1
			C259.6,310.5,260,311.4,260,312.3L260,312.3z"/>
		<path class="st4" d="M245.3,312.3c0,0.6-0.2,1.1-0.5,1.6c-0.3,0.5-0.8,0.9-1.3,1.1c-0.5,0.2-1.1,0.3-1.7,0.2s-1.1-0.4-1.5-0.8
			c-0.4-0.4-0.7-0.9-0.8-1.5s-0.1-1.2,0.2-1.7c0.2-0.5,0.6-1,1.1-1.3c0.5-0.3,1-0.5,1.6-0.5c0.8,0,1.5,0.3,2.1,0.9
			C245,310.8,245.3,311.5,245.3,312.3L245.3,312.3z"/>
		<path class="st4" d="M231.1,312.3c0,0.6-0.2,1.1-0.5,1.6c-0.3,0.5-0.8,0.9-1.3,1.1c-0.5,0.2-1.1,0.3-1.7,0.2
			c-0.6-0.1-1.1-0.4-1.5-0.8c-0.4-0.4-0.7-0.9-0.8-1.5s-0.1-1.2,0.2-1.7c0.2-0.5,0.6-1,1.1-1.3c0.5-0.3,1-0.5,1.6-0.5
			c0.8,0,1.5,0.3,2.1,0.9C230.8,310.8,231.1,311.5,231.1,312.3L231.1,312.3z"/>
		<path class="st5" d="M216.9,312.3c0,0.6-0.2,1.1-0.5,1.6c-0.3,0.5-0.8,0.9-1.3,1.1c-0.5,0.2-1.1,0.3-1.7,0.2s-1.1-0.4-1.5-0.8
			c-0.4-0.4-0.7-0.9-0.8-1.5s-0.1-1.2,0.2-1.7c0.2-0.5,0.6-1,1.1-1.3c0.5-0.3,1-0.5,1.6-0.5c0.8,0,1.5,0.3,2.1,0.9
			C216.6,310.8,216.9,311.5,216.9,312.3L216.9,312.3z"/>
		<path class="st5" d="M202.7,312.3c0,0.6-0.2,1.1-0.5,1.6c-0.3,0.5-0.8,0.9-1.3,1.1c-0.5,0.2-1.1,0.3-1.7,0.2s-1.1-0.4-1.5-0.8
			c-0.4-0.4-0.7-0.9-0.8-1.5s-0.1-1.2,0.2-1.7c0.2-0.5,0.6-1,1.1-1.3c0.5-0.3,1-0.5,1.6-0.5c0.8,0,1.5,0.3,2.1,0.9
			C202.4,310.8,202.7,311.5,202.7,312.3L202.7,312.3z"/>
		<path class="st5" d="M422.9,352.9c0-6.9-2.2-13.7-6.3-19.3s-9.9-9.8-16.5-11.8c-0.7-5.2-2.6-10.1-5.7-14.3
			c-3.1-4.2-7.2-7.6-12-9.7c-4.8-2.2-10-3.1-15.2-2.7c-5.2,0.4-10.2,2.2-14.6,5.1c-4.4-2.9-9.4-4.6-14.6-5.1
			c-5.2-0.4-10.4,0.5-15.2,2.7s-8.9,5.5-12,9.7c-3.1,4.2-5.1,9.2-5.7,14.3c-7.4,2.3-13.8,7.3-17.9,13.9c-4.1,6.6-5.7,14.5-4.5,22.2
			c1.2,7.7,5.1,14.7,11,19.8c5.9,5.1,13.5,7.9,21.2,7.9h76.2c8.5-0.2,16.6-3.7,22.6-9.8C419.6,369.7,422.9,361.5,422.9,352.9
			L422.9,352.9z"/>
		<path class="st6" d="M352.3,299.9c-4.4-2.8-9.4-4.5-14.6-4.9c-5.2-0.4-10.4,0.6-15.1,2.8c-4.7,2.2-8.8,5.5-11.9,9.7
			c-3.1,4.2-5,9.1-5.7,14.3c-7.4,2.3-13.8,7.3-17.9,13.9c-4.1,6.6-5.7,14.5-4.5,22.2c1.2,7.7,5.1,14.7,11,19.8
			c5.9,5.1,13.5,7.9,21.2,7.9h22.9L352.3,299.9z"/>
		<path class="st7" d="M405.5,421.7H300.2v7.8h105.4V421.7z"/>
		<path class="st7" d="M405.5,383.6H300.2v7.8h105.4V383.6z"/>
		<path class="st8" d="M410.2,427.6H295c-3,0-5.4,2.4-5.4,5.4v24.4c0,3,2.4,5.4,5.4,5.4h115.3c3,0,5.4-2.4,5.4-5.4V433
			C415.7,430,413.2,427.6,410.2,427.6z"/>
		<path class="st9" d="M341.9,427.6l-5.7,35.2H295c-1.4,0-2.8-0.6-3.8-1.6c-1-1-1.6-2.4-1.6-3.8V433c0-1.4,0.6-2.8,1.6-3.8
			c1-1,2.4-1.6,3.8-1.6H341.9z"/>
		<path class="st7" d="M407.9,455.1v-19.7H297.3v19.7H407.9z"/>
		<path class="st5" d="M399.2,445.2c0,0.7-0.2,1.3-0.6,1.9c-0.4,0.6-0.9,1-1.5,1.2c-0.6,0.2-1.3,0.3-2,0.2c-0.7-0.1-1.3-0.5-1.7-0.9
			c-0.5-0.5-0.8-1.1-0.9-1.7c-0.1-0.7-0.1-1.3,0.2-2c0.3-0.6,0.7-1.1,1.3-1.5c0.6-0.4,1.2-0.6,1.9-0.6c0.5,0,0.9,0.1,1.3,0.3
			c0.4,0.2,0.8,0.4,1.1,0.8c0.3,0.3,0.6,0.7,0.7,1.1C399.1,444.3,399.2,444.8,399.2,445.2z"/>
		<path class="st5" d="M384.5,445.2c0,0.6-0.2,1.1-0.5,1.6c-0.3,0.5-0.8,0.9-1.3,1.1c-0.5,0.2-1.1,0.3-1.7,0.2
			c-0.6-0.1-1.1-0.4-1.5-0.8c-0.4-0.4-0.7-0.9-0.8-1.5s-0.1-1.2,0.2-1.7c0.2-0.5,0.6-1,1.1-1.3s1-0.5,1.6-0.5c0.8,0,1.5,0.3,2.1,0.9
			C384.2,443.7,384.5,444.4,384.5,445.2L384.5,445.2z"/>
		<path class="st4" d="M370.3,445.2c0,0.6-0.2,1.1-0.5,1.6s-0.8,0.9-1.3,1.1c-0.5,0.2-1.1,0.3-1.7,0.2c-0.6-0.1-1.1-0.4-1.5-0.8
			c-0.4-0.4-0.7-0.9-0.8-1.5c-0.1-0.6-0.1-1.2,0.2-1.7c0.2-0.5,0.6-1,1.1-1.3c0.5-0.3,1-0.5,1.6-0.5c0.8,0,1.5,0.3,2.1,0.9
			C370,443.7,370.3,444.4,370.3,445.2L370.3,445.2z"/>
		<path class="st5" d="M356.1,445.2c0,0.6-0.2,1.1-0.5,1.6c-0.3,0.5-0.8,0.9-1.3,1.1c-0.5,0.2-1.1,0.3-1.7,0.2
			c-0.6-0.1-1.1-0.4-1.5-0.8c-0.4-0.4-0.7-0.9-0.8-1.5s-0.1-1.2,0.2-1.7c0.2-0.5,0.6-1,1.1-1.3s1-0.5,1.6-0.5c0.8,0,1.5,0.3,2.1,0.9
			C355.8,443.7,356.1,444.4,356.1,445.2L356.1,445.2z"/>
		<path class="st4" d="M341.9,445.2c0,0.6-0.2,1.1-0.5,1.6c-0.3,0.5-0.8,0.9-1.3,1.1c-0.5,0.2-1.1,0.3-1.7,0.2
			c-0.6-0.1-1.1-0.4-1.5-0.8c-0.4-0.4-0.7-0.9-0.8-1.5c-0.1-0.6-0.1-1.2,0.2-1.7c0.2-0.5,0.6-1,1.1-1.3c0.5-0.3,1-0.5,1.6-0.5
			c0.8,0,1.5,0.3,2.1,0.9C341.6,443.7,341.9,444.4,341.9,445.2L341.9,445.2z"/>
		<path class="st8" d="M410.2,388.9H295c-3,0-5.4,2.4-5.4,5.4v24.4c0,3,2.4,5.4,5.4,5.4h115.3c3,0,5.4-2.4,5.4-5.4v-24.4
			C415.7,391.4,413.2,388.9,410.2,388.9z"/>
		<path class="st9" d="M348.2,388.9l-5.7,35.2H295c-1.4,0-2.8-0.6-3.8-1.6c-1-1-1.6-2.4-1.6-3.8v-24.4c0-1.4,0.6-2.8,1.6-3.8
			c1-1,2.4-1.6,3.8-1.6H348.2z"/>
		<path class="st7" d="M407.9,416.4v-19.7H297.3v19.7H407.9z"/>
		<path class="st8" d="M410.2,350.9H295c-3,0-5.4,2.4-5.4,5.4v24.4c0,3,2.4,5.4,5.4,5.4h115.3c3,0,5.4-2.4,5.4-5.4v-24.4
			C415.7,353.4,413.2,350.9,410.2,350.9z"/>
		<path class="st9" d="M354.4,351l-5.7,35.2H295c-1.4,0-2.8-0.6-3.8-1.6c-1-1-1.6-2.4-1.6-3.8v-24.4c0-1.4,0.6-2.8,1.6-3.8
			c1-1,2.4-1.6,3.8-1.6H354.4z"/>
		<path class="st7" d="M407.9,378.4v-19.7H297.3v19.7H407.9z"/>
		<path class="st5" d="M399.2,406.5c0,0.7-0.2,1.3-0.6,1.9c-0.4,0.6-0.9,1-1.5,1.3c-0.6,0.3-1.3,0.3-2,0.2c-0.7-0.1-1.3-0.5-1.7-0.9
			c-0.5-0.5-0.8-1.1-0.9-1.7c-0.1-0.7-0.1-1.3,0.2-2c0.3-0.6,0.7-1.2,1.3-1.5c0.6-0.4,1.2-0.6,1.9-0.6c0.4,0,0.9,0.1,1.3,0.3
			c0.4,0.2,0.8,0.4,1.1,0.7c0.3,0.3,0.6,0.7,0.7,1.1C399.1,405.6,399.2,406.1,399.2,406.5z"/>
		<path class="st5" d="M384.5,406.5c0,0.6-0.2,1.1-0.5,1.6c-0.3,0.5-0.8,0.9-1.3,1.1c-0.5,0.2-1.1,0.3-1.7,0.2
			c-0.6-0.1-1.1-0.4-1.5-0.8c-0.4-0.4-0.7-0.9-0.8-1.5s-0.1-1.2,0.2-1.7c0.2-0.5,0.6-1,1.1-1.3s1-0.5,1.6-0.5c0.8,0,1.5,0.3,2.1,0.9
			C384.2,405,384.5,405.8,384.5,406.5L384.5,406.5z"/>
		<path class="st4" d="M370.3,406.5c0,0.6-0.2,1.1-0.5,1.6s-0.8,0.9-1.3,1.1c-0.5,0.2-1.1,0.3-1.7,0.2c-0.6-0.1-1.1-0.4-1.5-0.8
			c-0.4-0.4-0.7-0.9-0.8-1.5c-0.1-0.6-0.1-1.2,0.2-1.7c0.2-0.5,0.6-1,1.1-1.3c0.5-0.3,1-0.5,1.6-0.5c0.8,0,1.5,0.3,2.1,0.9
			S370.3,405.8,370.3,406.5L370.3,406.5z"/>
		<path class="st5" d="M356.1,406.5c0,0.6-0.2,1.1-0.5,1.6c-0.3,0.5-0.8,0.9-1.3,1.1c-0.5,0.2-1.1,0.3-1.7,0.2
			c-0.6-0.1-1.1-0.4-1.5-0.8c-0.4-0.4-0.7-0.9-0.8-1.5s-0.1-1.2,0.2-1.7c0.2-0.5,0.6-1,1.1-1.3s1-0.5,1.6-0.5c0.8,0,1.5,0.3,2.1,0.9
			C355.8,405,356.1,405.8,356.1,406.5L356.1,406.5z"/>
		<path class="st4" d="M341.9,406.5c0,0.6-0.2,1.1-0.5,1.6c-0.3,0.5-0.8,0.9-1.3,1.1c-0.5,0.2-1.1,0.3-1.7,0.2
			c-0.6-0.1-1.1-0.4-1.5-0.8c-0.4-0.4-0.7-0.9-0.8-1.5c-0.1-0.6-0.1-1.2,0.2-1.7c0.2-0.5,0.6-1,1.1-1.3c0.5-0.3,1-0.5,1.6-0.5
			c0.8,0,1.5,0.3,2.1,0.9C341.6,405,341.9,405.8,341.9,406.5L341.9,406.5z"/>
		<path class="st5" d="M399.2,368.6c0,0.7-0.2,1.3-0.6,1.9c-0.4,0.6-0.9,1-1.5,1.3c-0.6,0.3-1.3,0.3-2,0.2c-0.7-0.1-1.3-0.5-1.7-0.9
			c-0.5-0.5-0.8-1.1-0.9-1.7c-0.1-0.7-0.1-1.3,0.2-2c0.3-0.6,0.7-1.2,1.3-1.5c0.6-0.4,1.2-0.6,1.9-0.6c0.9,0,1.8,0.4,2.4,1
			C398.8,366.8,399.2,367.7,399.2,368.6z"/>
		<path class="st4" d="M384.5,368.6c0,0.6-0.2,1.1-0.5,1.6c-0.3,0.5-0.8,0.9-1.3,1.1c-0.5,0.2-1.1,0.3-1.7,0.2s-1.1-0.4-1.5-0.8
			c-0.4-0.4-0.7-0.9-0.8-1.5s-0.1-1.1,0.2-1.7c0.2-0.5,0.6-1,1.1-1.3s1-0.5,1.6-0.5c0.8,0,1.5,0.3,2.1,0.9
			C384.2,367.1,384.5,367.8,384.5,368.6L384.5,368.6z"/>
		<path class="st4" d="M370.3,368.6c0,0.6-0.2,1.1-0.5,1.6c-0.3,0.5-0.8,0.9-1.3,1.1c-0.5,0.2-1.1,0.3-1.7,0.2
			c-0.6-0.1-1.1-0.4-1.5-0.8c-0.4-0.4-0.7-0.9-0.8-1.5c-0.1-0.6-0.1-1.1,0.2-1.7c0.2-0.5,0.6-1,1.1-1.3c0.5-0.3,1-0.5,1.6-0.5
			c0.8,0,1.5,0.3,2.1,0.9C370,367.1,370.3,367.8,370.3,368.6L370.3,368.6z"/>
		<path class="st5" d="M356.1,368.6c0,0.6-0.2,1.1-0.5,1.6c-0.3,0.5-0.8,0.9-1.3,1.1c-0.5,0.2-1.1,0.3-1.7,0.2
			c-0.6-0.1-1.1-0.4-1.5-0.8c-0.4-0.4-0.7-0.9-0.8-1.5s-0.1-1.1,0.2-1.7c0.2-0.5,0.6-1,1.1-1.3s1-0.5,1.6-0.5c0.8,0,1.5,0.3,2.1,0.9
			C355.8,367.1,356.1,367.8,356.1,368.6L356.1,368.6z"/>
		<path class="st5" d="M341.9,368.6c0,0.6-0.2,1.1-0.5,1.6c-0.3,0.5-0.8,0.9-1.3,1.1c-0.5,0.2-1.1,0.3-1.7,0.2
			c-0.6-0.1-1.1-0.4-1.5-0.8c-0.4-0.4-0.7-0.9-0.8-1.5c-0.1-0.6-0.1-1.1,0.2-1.7c0.2-0.5,0.6-1,1.1-1.3c0.5-0.3,1-0.5,1.6-0.5
			c0.8,0,1.5,0.3,2.1,0.9C341.6,367.1,341.9,367.8,341.9,368.6L341.9,368.6z"/>
		<path class="st5" d="M620.7,344.2c0-8.8-2.8-17.4-8-24.4c-5.2-7.1-12.5-12.3-20.9-15c-0.8-6.6-3.3-12.8-7.3-18.2
			c-3.9-5.3-9.2-9.6-15.2-12.3c-6-2.8-12.7-3.9-19.3-3.4c-6.6,0.5-13,2.7-18.5,6.4c-5.5-3.7-11.9-5.9-18.5-6.4s-13.2,0.6-19.3,3.4
			c-6,2.8-11.3,7-15.2,12.3c-3.9,5.3-6.4,11.6-7.3,18.2c-9.4,3-17.4,9.2-22.6,17.6c-5.2,8.4-7.2,18.4-5.7,28.1
			c1.5,9.8,6.4,18.6,13.9,25.1c7.5,6.4,17,10,26.9,10h96.5c10.8-0.2,21.1-4.7,28.6-12.4C616.4,365.4,620.7,355,620.7,344.2
			L620.7,344.2z"/>
		<path class="st6" d="M531.2,277.1c-5.5-3.6-11.9-5.7-18.4-6.2c-6.6-0.5-13.2,0.7-19.1,3.5s-11.2,7-15.1,12.3
			c-3.9,5.3-6.4,11.6-7.2,18.1c-9.4,3-17.4,9.2-22.6,17.6c-5.2,8.4-7.2,18.4-5.7,28.1c1.5,9.8,6.4,18.6,13.9,25.1
			c7.5,6.4,17,10,26.9,10h29L531.2,277.1z"/>
		<path class="st7" d="M544.7,365.4H439.4v7.8h105.4V365.4z"/>
		<path class="st7" d="M544.7,327.4H439.4v7.8h105.4V327.4z"/>
		<path class="st8" d="M549.4,371.3H434.2c-3,0-5.4,2.4-5.4,5.4v24.4c0,3,2.4,5.4,5.4,5.4h115.3c3,0,5.4-2.4,5.4-5.4v-24.4
			C554.9,373.7,552.4,371.3,549.4,371.3z"/>
		<path class="st9" d="M481.1,371.3l-5.8,35.2h-41.2c-1.4,0-2.8-0.6-3.8-1.6c-1-1-1.6-2.4-1.6-3.8v-24.4c0-1.4,0.6-2.8,1.6-3.8
			c1-1,2.4-1.6,3.8-1.6H481.1z"/>
		<path class="st7" d="M547.1,398.8v-19.7H436.5v19.7H547.1z"/>
		<path class="st5" d="M538.4,388.9c0,0.7-0.2,1.3-0.6,1.9c-0.4,0.6-0.9,1-1.5,1.3c-0.6,0.3-1.3,0.3-2,0.2c-0.7-0.1-1.3-0.5-1.7-0.9
			s-0.8-1.1-0.9-1.7s-0.1-1.3,0.2-2c0.3-0.6,0.7-1.2,1.3-1.5c0.6-0.4,1.2-0.6,1.9-0.6c0.9,0,1.8,0.4,2.4,1
			C538,387.2,538.4,388,538.4,388.9z"/>
		<path class="st5" d="M520.8,391.9c1.6,0,2.9-1.3,2.9-2.9s-1.3-2.9-2.9-2.9c-1.6,0-2.9,1.3-2.9,2.9S519.2,391.9,520.8,391.9z"/>
		<path class="st4" d="M509.5,388.9c0,0.6-0.2,1.1-0.5,1.6s-0.8,0.9-1.3,1.1c-0.5,0.2-1.1,0.3-1.7,0.2c-0.6-0.1-1.1-0.4-1.5-0.8
			c-0.4-0.4-0.7-0.9-0.8-1.5c-0.1-0.6-0.1-1.2,0.2-1.7c0.2-0.5,0.6-1,1.1-1.3s1-0.5,1.6-0.5c0.8,0,1.5,0.3,2.1,0.9
			S509.5,388.1,509.5,388.9L509.5,388.9z"/>
		<path class="st5" d="M495.3,388.9c0,0.6-0.2,1.1-0.5,1.6c-0.3,0.5-0.8,0.9-1.3,1.1c-0.5,0.2-1.1,0.3-1.7,0.2
			c-0.6-0.1-1.1-0.4-1.5-0.8c-0.4-0.4-0.7-0.9-0.8-1.5c-0.1-0.6-0.1-1.2,0.2-1.7c0.2-0.5,0.6-1,1.1-1.3c0.5-0.3,1-0.5,1.6-0.5
			c0.8,0,1.5,0.3,2.1,0.9C495,387.4,495.3,388.1,495.3,388.9L495.3,388.9z"/>
		<path class="st4" d="M481.1,388.9c0,0.6-0.2,1.1-0.5,1.6c-0.3,0.5-0.8,0.9-1.3,1.1c-0.5,0.2-1.1,0.3-1.7,0.2
			c-0.6-0.1-1.1-0.4-1.5-0.8c-0.4-0.4-0.7-0.9-0.8-1.5c-0.1-0.6-0.1-1.2,0.2-1.7c0.2-0.5,0.6-1,1.1-1.3c0.5-0.3,1-0.5,1.6-0.5
			c0.8,0,1.5,0.3,2.1,0.9C480.8,387.4,481.1,388.1,481.1,388.9L481.1,388.9z"/>
		<path class="st8" d="M549.4,332.7H434.2c-3,0-5.4,2.4-5.4,5.4v24.4c0,3,2.4,5.4,5.4,5.4h115.3c3,0,5.4-2.4,5.4-5.4v-24.4
			C554.9,335.1,552.4,332.7,549.4,332.7z"/>
		<path class="st9" d="M487.4,332.7l-5.7,35.2h-47.4c-1.4,0-2.8-0.6-3.8-1.6c-1-1-1.6-2.4-1.6-3.8v-24.4c0-1.4,0.6-2.8,1.6-3.8
			c1-1,2.4-1.6,3.8-1.6H487.4z"/>
		<path class="st7" d="M547.1,360.2v-19.7H436.5v19.7H547.1z"/>
		<path class="st8" d="M549.4,294.6H434.2c-3,0-5.4,2.4-5.4,5.4v24.4c0,3,2.4,5.4,5.4,5.4h115.3c3,0,5.4-2.4,5.4-5.4v-24.4
			C554.9,297.1,552.4,294.6,549.4,294.6z"/>
		<path class="st9" d="M493.5,294.6l-5.7,35.2h-53.6c-1.4,0-2.8-0.6-3.8-1.6c-1-1-1.6-2.4-1.6-3.8v-24.4c0-1.4,0.6-2.8,1.6-3.8
			c1-1,2.4-1.6,3.8-1.6H493.5z"/>
		<path class="st7" d="M547.1,322.1v-19.7H436.5v19.7H547.1z"/>
		<path class="st5" d="M538.4,350.3c0,0.7-0.2,1.3-0.6,1.9c-0.4,0.6-0.9,1-1.5,1.3c-0.6,0.3-1.3,0.3-2,0.2c-0.7-0.1-1.3-0.5-1.7-0.9
			c-0.5-0.5-0.8-1.1-0.9-1.7c-0.1-0.7-0.1-1.3,0.2-2c0.3-0.6,0.7-1.2,1.3-1.5c0.6-0.4,1.2-0.6,1.9-0.6c0.9,0,1.8,0.4,2.4,1
			C538,348.5,538.4,349.4,538.4,350.3L538.4,350.3z"/>
		<path class="st5" d="M523.7,350.3c0,0.6-0.2,1.1-0.5,1.6c-0.3,0.5-0.8,0.9-1.3,1.1c-0.5,0.2-1.1,0.3-1.7,0.2
			c-0.6-0.1-1.1-0.4-1.5-0.8c-0.4-0.4-0.7-0.9-0.8-1.5c-0.1-0.6-0.1-1.2,0.2-1.7c0.2-0.5,0.6-1,1.1-1.3c0.5-0.3,1-0.5,1.6-0.5
			c0.8,0,1.5,0.3,2.1,0.9C523.4,348.8,523.7,349.5,523.7,350.3L523.7,350.3z"/>
		<path class="st4" d="M509.5,350.3c0,0.6-0.2,1.1-0.5,1.6s-0.8,0.9-1.3,1.1c-0.5,0.2-1.1,0.3-1.7,0.2c-0.6-0.1-1.1-0.4-1.5-0.8
			c-0.4-0.4-0.7-0.9-0.8-1.5c-0.1-0.6-0.1-1.2,0.2-1.7c0.2-0.5,0.6-1,1.1-1.3c0.5-0.3,1-0.5,1.6-0.5c0.8,0,1.5,0.3,2.1,0.9
			C509.2,348.8,509.5,349.5,509.5,350.3L509.5,350.3z"/>
		<path class="st5" d="M495.3,350.3c0,0.6-0.2,1.1-0.5,1.6c-0.3,0.5-0.8,0.9-1.3,1.1c-0.5,0.2-1.1,0.3-1.7,0.2
			c-0.6-0.1-1.1-0.4-1.5-0.8c-0.4-0.4-0.7-0.9-0.8-1.5c-0.1-0.6-0.1-1.2,0.2-1.7c0.2-0.5,0.6-1,1.1-1.3c0.5-0.3,1-0.5,1.6-0.5
			c0.8,0,1.5,0.3,2.1,0.9C495,348.8,495.3,349.5,495.3,350.3L495.3,350.3z"/>
		<path class="st4" d="M481.1,350.3c0,0.6-0.2,1.1-0.5,1.6c-0.3,0.5-0.8,0.9-1.3,1.1c-0.5,0.2-1.1,0.3-1.7,0.2
			c-0.6-0.1-1.1-0.4-1.5-0.8c-0.4-0.4-0.7-0.9-0.8-1.5c-0.1-0.6-0.1-1.2,0.2-1.7c0.2-0.5,0.6-1,1.1-1.3c0.5-0.3,1-0.5,1.6-0.5
			c0.8,0,1.5,0.3,2.1,0.9C480.8,348.8,481.1,349.5,481.1,350.3L481.1,350.3z"/>
		<path class="st5" d="M538.4,312.3c0,0.7-0.2,1.3-0.6,1.9c-0.4,0.6-0.9,1-1.5,1.3c-0.6,0.3-1.3,0.3-2,0.2c-0.7-0.1-1.3-0.5-1.7-0.9
			c-0.5-0.5-0.8-1.1-0.9-1.7c-0.1-0.7-0.1-1.3,0.2-2c0.3-0.6,0.7-1.2,1.3-1.5c0.6-0.4,1.2-0.6,1.9-0.6c0.4,0,0.9,0.1,1.3,0.3
			c0.4,0.2,0.8,0.4,1.1,0.7c0.3,0.3,0.6,0.7,0.7,1.1C538.3,311.4,538.4,311.8,538.4,312.3z"/>
		<path class="st4" d="M523.7,312.3c0,0.6-0.2,1.1-0.5,1.6c-0.3,0.5-0.8,0.9-1.3,1.1c-0.5,0.2-1.1,0.3-1.7,0.2
			c-0.6-0.1-1.1-0.4-1.5-0.8c-0.4-0.4-0.7-0.9-0.8-1.5c-0.1-0.6-0.1-1.2,0.2-1.7c0.2-0.5,0.6-1,1.1-1.3c0.5-0.3,1-0.5,1.6-0.5
			c0.8,0,1.5,0.3,2.1,0.9C523.4,310.8,523.7,311.5,523.7,312.3L523.7,312.3z"/>
		<path class="st4" d="M509.5,312.3c0,0.6-0.2,1.1-0.5,1.6s-0.8,0.9-1.3,1.1c-0.5,0.2-1.1,0.3-1.7,0.2c-0.6-0.1-1.1-0.4-1.5-0.8
			c-0.4-0.4-0.7-0.9-0.8-1.5c-0.1-0.6-0.1-1.2,0.2-1.7c0.2-0.5,0.6-1,1.1-1.3c0.5-0.3,1-0.5,1.6-0.5c0.8,0,1.5,0.3,2.1,0.9
			C509.2,310.8,509.5,311.5,509.5,312.3L509.5,312.3z"/>
		<path class="st5" d="M495.3,312.3c0,0.6-0.2,1.1-0.5,1.6c-0.3,0.5-0.8,0.9-1.3,1.1c-0.5,0.2-1.1,0.3-1.7,0.2
			c-0.6-0.1-1.1-0.4-1.5-0.8c-0.4-0.4-0.7-0.9-0.8-1.5c-0.1-0.6-0.1-1.2,0.2-1.7c0.2-0.5,0.6-1,1.1-1.3c0.5-0.3,1-0.5,1.6-0.5
			c0.8,0,1.5,0.3,2.1,0.9C495,310.8,495.3,311.5,495.3,312.3L495.3,312.3z"/>
		<path class="st5" d="M481.1,312.3c0,0.6-0.2,1.1-0.5,1.6c-0.3,0.5-0.8,0.9-1.3,1.1c-0.5,0.2-1.1,0.3-1.7,0.2
			c-0.6-0.1-1.1-0.4-1.5-0.8c-0.4-0.4-0.7-0.9-0.8-1.5c-0.1-0.6-0.1-1.2,0.2-1.7c0.2-0.5,0.6-1,1.1-1.3c0.5-0.3,1-0.5,1.6-0.5
			c0.8,0,1.5,0.3,2.1,0.9C480.8,310.8,481.1,311.5,481.1,312.3L481.1,312.3z"/>
		<path class="st6" d="M260.6,63.3h184c3.2,0,6.2,1.3,8.4,3.5c2.2,2.2,3.5,5.3,3.5,8.4v110.3c0,3.8-1.5,7.4-4.2,10.1
			c-2.7,2.7-6.3,4.2-10.1,4.2H262.9c-1.9,0-3.7-0.4-5.5-1.1c-1.7-0.7-3.3-1.8-4.6-3.1c-1.3-1.3-2.4-2.9-3.1-4.6
			c-0.7-1.7-1.1-3.6-1.1-5.5V75.3c0-1.6,0.3-3.1,0.9-4.6c0.6-1.5,1.5-2.8,2.6-3.9c1.1-1.1,2.4-2,3.9-2.6
			C257.5,63.6,259,63.3,260.6,63.3L260.6,63.3z"/>
		<path class="st10" d="M350.8,63.3h-90.1c-1.6,0-3.1,0.3-4.6,0.9s-2.8,1.5-3.9,2.6c-1.1,1.1-2,2.4-2.6,3.9c-0.6,1.4-0.9,3-0.9,4.6
			v110.3c0,3.8,1.5,7.4,4.2,10.1c2.7,2.7,6.3,4.2,10,4.2h60.4L350.8,63.3z"/>
		<path class="st8" d="M248.6,85.8h207.9v124.5c0,3.2-1.3,6.2-3.5,8.4c-2.2,2.2-5.3,3.5-8.4,3.5h-184c-1.6,0-3.1-0.3-4.6-0.9
			c-1.5-0.6-2.8-1.5-3.9-2.6c-1.1-1.1-2-2.4-2.6-3.9c-0.6-1.5-0.9-3-0.9-4.6V85.8z"/>
		<path class="st11" d="M450.9,85.8v124.5c0,0.8-0.2,1.6-0.5,2.4c-0.3,0.8-0.8,1.5-1.4,2c-0.6,0.6-1.3,1.1-2,1.4
			c-0.8,0.3-1.6,0.5-2.4,0.5h-184c-0.8,0-1.6-0.2-2.4-0.5c-0.8-0.3-1.5-0.8-2-1.4c-0.6-0.6-1.1-1.3-1.4-2s-0.5-1.6-0.5-2.4V85.8
			H450.9z"/>
		<path class="st12" d="M389.5,177.6v-12.2l-8.4-1.2c-0.7-2.7-1.7-5.3-3.2-7.7l5.1-6.8l-8.6-8.7l-6.8,5.1c-2.4-1.5-5-2.5-7.7-3.2
			l-1.2-8.4h-12.2l-1.2,8.4c-2.7,0.6-5.3,1.7-7.7,3.2l-6.8-5.1l-8.7,8.7l5.1,6.8c-1.5,2.4-2.6,5-3.2,7.7l-8.4,1.2v12.2l8.4,1.2
			c0.6,2.7,1.7,5.4,3.2,7.8l-5.1,6.8l8.7,8.6l6.8-5.1c2.4,1.5,5,2.6,7.7,3.2l1.2,8.4h12.2l1.2-8.4c2.7-0.6,5.3-1.7,7.7-3.2l6.8,5.1
			l8.6-8.6l-5.1-6.8c1.4-2.4,2.5-5,3.2-7.7L389.5,177.6z M352.6,189.9c-3.7,0-7.2-1.1-10.3-3.1c-3-2-5.4-4.9-6.8-8.3
			c-1.4-3.4-1.8-7.1-1.1-10.7c0.7-3.6,2.5-6.9,5.1-9.5c2.6-2.6,5.9-4.3,9.5-5.1c3.6-0.7,7.3-0.3,10.7,1.1c3.4,1.4,6.3,3.8,8.3,6.8
			c2,3,3.1,6.6,3.1,10.3c0,2.4-0.5,4.8-1.4,7.1c-0.9,2.2-2.3,4.3-4,6s-3.8,3.1-6,4C357.4,189.4,355,189.9,352.6,189.9L352.6,189.9z"
			/>
		<path class="st7" d="M352.6,189.9c-4.9,0-9.6-1.9-13.1-5.4c-3.5-3.5-5.4-8.2-5.4-13.1s1.9-9.6,5.4-13.1s8.2-5.4,13.1-5.4v-18.4
			h-6.1l-1.2,8.4c-2.7,0.6-5.3,1.7-7.7,3.2l-6.8-5.1l-8.7,8.7l5.1,6.8c-1.5,2.4-2.6,5-3.2,7.7l-8.4,1.2v12.2l8.4,1.2
			c0.6,2.7,1.7,5.4,3.2,7.8l-5.1,6.8l8.7,8.6l6.8-5.1c2.4,1.5,5,2.6,7.7,3.2l1.2,8.4h6.1V189.9z"/>
		<path class="st13" d="M434.9,128.2v-8.7l-6-0.9c-0.5-1.9-1.2-3.8-2.3-5.5l3.6-4.8l-6.1-6.2l-4.8,3.6c-1.7-1-3.6-1.8-5.5-2.3
			l-0.9-5.9h-8.8l-0.9,5.9c-1.9,0.5-3.8,1.2-5.5,2.3l-4.8-3.6l-6.2,6.2l3.6,4.8c-1.1,1.7-1.8,3.6-2.3,5.5l-6,0.9v8.7l6,0.9
			c0.5,2,1.2,3.8,2.3,5.5l-3.6,4.8l6.2,6.2l4.8-3.6c1.7,1.1,3.5,1.8,5.5,2.3l0.9,6h8.7l0.9-6c1.9-0.5,3.8-1.2,5.5-2.3l4.8,3.6
			l6.1-6.2l-3.6-4.8c1-1.7,1.8-3.6,2.3-5.5L434.9,128.2z M408.6,137c-2.6,0-5.2-0.8-7.3-2.2c-2.2-1.4-3.9-3.5-4.9-5.9
			c-1-2.4-1.3-5.1-0.8-7.6c0.5-2.6,1.8-4.9,3.6-6.8c1.8-1.8,4.2-3.1,6.7-3.6c2.6-0.5,5.2-0.2,7.6,0.8c2.4,1,4.5,2.7,5.9,4.9
			c1.4,2.2,2.2,4.7,2.2,7.3c0,1.7-0.3,3.4-1,5c-0.7,1.6-1.6,3.1-2.9,4.3s-2.7,2.2-4.3,2.9S410.3,137,408.6,137L408.6,137z"/>
		<path class="st8" d="M327,92.7h-65.6v5.5H327V92.7z"/>
		<path class="st8" d="M327,105.6h-65.6v5.5H327V105.6z"/>
		<path class="st8" d="M327,118.5h-65.6v5.5H327V118.5z"/>
		<path class="st8" d="M312.8,131.4h-51.4v5.5h51.4V131.4z"/>
		<path class="st8" d="M312.8,144.3h-51.4v5.5h51.4V144.3z"/>
		<path class="st4" d="M407.3,74.8c0,0.9-0.3,1.8-0.8,2.6c-0.5,0.8-1.2,1.3-2.1,1.7c-0.8,0.3-1.8,0.4-2.7,0.3
			c-0.9-0.2-1.7-0.6-2.4-1.3c-0.6-0.6-1.1-1.5-1.3-2.4c-0.2-0.9-0.1-1.8,0.3-2.7c0.3-0.8,0.9-1.6,1.7-2.1c0.8-0.5,1.6-0.8,2.6-0.8
			c0.6,0,1.2,0.1,1.8,0.3c0.6,0.2,1.1,0.6,1.5,1c0.4,0.4,0.8,0.9,1,1.5C407.2,73.6,407.3,74.2,407.3,74.8L407.3,74.8z"/>
		<path class="st4" d="M426,74.8c0,0.9-0.3,1.8-0.8,2.5c-0.5,0.8-1.2,1.3-2.1,1.7c-0.8,0.3-1.8,0.4-2.6,0.3s-1.7-0.6-2.3-1.3
			c-0.6-0.6-1.1-1.5-1.3-2.3c-0.2-0.9-0.1-1.8,0.3-2.6c0.3-0.8,0.9-1.6,1.7-2.1c0.8-0.5,1.6-0.8,2.5-0.8c1.2,0,2.4,0.5,3.2,1.3
			C425.6,72.4,426,73.6,426,74.8z"/>
		<path class="st4" d="M444.8,74.8c0,0.9-0.3,1.8-0.8,2.5c-0.5,0.8-1.2,1.3-2.1,1.7c-0.8,0.3-1.8,0.4-2.6,0.3
			c-0.9-0.2-1.7-0.6-2.3-1.3c-0.6-0.6-1.1-1.5-1.3-2.3c-0.2-0.9-0.1-1.8,0.3-2.6c0.3-0.8,0.9-1.6,1.7-2.1c0.8-0.5,1.6-0.8,2.5-0.8
			c1.2,0,2.4,0.5,3.2,1.3C444.3,72.4,444.8,73.6,444.8,74.8z"/>
		<path class="st5" d="M397,202.6c0,0.7-0.2,1.4-0.6,2c-0.4,0.6-1,1.1-1.6,1.3c-0.7,0.3-1.4,0.3-2.1,0.2c-0.7-0.1-1.4-0.5-1.9-1
			c-0.5-0.5-0.9-1.2-1-1.9c-0.1-0.7-0.1-1.4,0.2-2.1c0.3-0.7,0.7-1.2,1.3-1.6c0.6-0.4,1.3-0.6,2-0.6c1,0,1.9,0.4,2.6,1.1
			C396.6,200.7,397,201.6,397,202.6z"/>
		<path class="st5" d="M412.8,202.6c0,0.7-0.2,1.4-0.6,2c-0.4,0.6-1,1.1-1.6,1.4c-0.7,0.3-1.4,0.4-2.1,0.2c-0.7-0.1-1.4-0.5-1.9-1
			c-0.5-0.5-0.9-1.2-1-1.9c-0.1-0.7-0.1-1.5,0.2-2.1c0.3-0.7,0.7-1.2,1.4-1.6c0.6-0.4,1.3-0.6,2-0.6c1,0,1.9,0.4,2.6,1.1
			C412.4,200.7,412.8,201.6,412.8,202.6L412.8,202.6z"/>
		<path class="st5" d="M430.1,202.6c0,1-0.3,2-0.9,2.9c-0.6,0.9-1.4,1.5-2.3,1.9c-0.9,0.4-2,0.5-3,0.3c-1-0.2-1.9-0.7-2.7-1.4
			c-0.7-0.7-1.2-1.6-1.4-2.7c-0.2-1-0.1-2,0.3-3c0.4-0.9,1.1-1.8,1.9-2.3c0.9-0.6,1.9-0.9,2.9-0.9c1.4,0,2.7,0.5,3.6,1.5
			C429.6,199.9,430.1,201.2,430.1,202.6L430.1,202.6z"/>
		<path class="st5" d="M444.4,202.6c0,0.7-0.2,1.4-0.6,2c-0.4,0.6-1,1.1-1.6,1.4c-0.7,0.3-1.4,0.4-2.1,0.2c-0.7-0.1-1.4-0.5-1.9-1
			c-0.5-0.5-0.9-1.2-1-1.9c-0.1-0.7-0.1-1.5,0.2-2.1c0.3-0.7,0.7-1.2,1.4-1.6c0.6-0.4,1.3-0.6,2-0.6c1,0,1.9,0.4,2.6,1.1
			C444,200.7,444.4,201.6,444.4,202.6L444.4,202.6z"/>
		<path class="st5" d="M268.1,202.6c0,0.7-0.2,1.4-0.6,2c-0.4,0.6-1,1.1-1.6,1.4c-0.7,0.3-1.4,0.4-2.1,0.2c-0.7-0.1-1.4-0.5-1.9-1
			c-0.5-0.5-0.9-1.2-1-1.9c-0.1-0.7-0.1-1.5,0.2-2.1c0.3-0.7,0.7-1.2,1.4-1.6c0.6-0.4,1.3-0.6,2-0.6c1,0,1.9,0.4,2.6,1.1
			C267.7,200.7,268.1,201.6,268.1,202.6L268.1,202.6z"/>
		<path class="st5" d="M283.9,202.6c0,0.7-0.2,1.4-0.6,2c-0.4,0.6-1,1.1-1.6,1.3c-0.7,0.3-1.4,0.3-2.1,0.2c-0.7-0.1-1.4-0.5-1.9-1
			c-0.5-0.5-0.9-1.2-1-1.9c-0.1-0.7-0.1-1.4,0.2-2.1c0.3-0.7,0.7-1.2,1.3-1.6s1.3-0.6,2-0.6c1,0,1.9,0.4,2.6,1.1
			C283.5,200.7,283.9,201.6,283.9,202.6L283.9,202.6z"/>
		<path class="st5" d="M299.7,202.6c0,0.7-0.2,1.4-0.6,2c-0.4,0.6-1,1.1-1.6,1.3c-0.7,0.3-1.4,0.3-2.1,0.2c-0.7-0.1-1.4-0.5-1.9-1
			c-0.5-0.5-0.9-1.2-1-1.9c-0.1-0.7-0.1-1.4,0.2-2.1c0.3-0.7,0.7-1.2,1.3-1.6c0.6-0.4,1.3-0.6,2-0.6c1,0,1.9,0.4,2.6,1.1
			C299.3,200.7,299.7,201.6,299.7,202.6z"/>
		<path class="st5" d="M315.5,202.6c0,0.7-0.2,1.4-0.6,2c-0.4,0.6-1,1.1-1.6,1.4c-0.7,0.3-1.4,0.4-2.1,0.2c-0.7-0.1-1.4-0.5-1.9-1
			c-0.5-0.5-0.9-1.2-1-1.9c-0.1-0.7-0.1-1.5,0.2-2.1c0.3-0.7,0.8-1.2,1.4-1.6c0.6-0.4,1.3-0.6,2-0.6c1,0,1.9,0.4,2.6,1.1
			C315.2,200.7,315.5,201.6,315.5,202.6z"/>
		<path class="st14" d="M235.5,98.8v-10l-6.9-1c-0.5-2.2-1.4-4.4-2.6-6.3l4.2-5.5l-7.1-7.1l-5.6,4.2c-2-1.2-4.1-2.1-6.3-2.6l-1-6.9
			h-10l-1,6.9c-2.2,0.5-4.4,1.4-6.3,2.6l-5.5-4.2l-7.1,7.1l4.2,5.5c-1.2,2-2.1,4.1-2.6,6.3l-6.9,1v10l6.9,1c0.5,2.3,1.4,4.4,2.6,6.4
			l-4.2,5.5l7.1,7.1l5.5-4.2c1.9,1.2,4.1,2.1,6.3,2.6l1,6.9h10l1-6.9c2.2-0.5,4.4-1.4,6.3-2.6l5.6,4.2l7.1-7.1l-4.2-5.6
			c1.2-2,2.1-4.1,2.6-6.3L235.5,98.8z M205.2,106.3c-2.5,0-4.9-0.7-7-2.1c-2.1-1.4-3.7-3.3-4.6-5.6c-1-2.3-1.2-4.8-0.7-7.3
			c0.5-2.4,1.7-4.7,3.4-6.4s4-3,6.4-3.4c2.4-0.5,5-0.2,7.3,0.7c2.3,1,4.3,2.6,5.6,4.6c1.4,2.1,2.1,4.5,2.1,7c0,1.6-0.3,3.3-1,4.8
			c-0.6,1.5-1.6,2.9-2.7,4.1c-1.2,1.2-2.6,2.1-4.1,2.7C208.5,106,206.9,106.4,205.2,106.3L205.2,106.3z"/>
		<path class="st15" d="M547.8,237.5v-8.7l-6-0.9c-0.5-1.9-1.2-3.7-2.3-5.4l3.6-4.8l-6.1-6.2l-4.8,3.6c-1.7-1-3.5-1.8-5.4-2.3
			l-0.9-5.9h-8.7l-0.9,5.9c-1.9,0.5-3.7,1.2-5.4,2.3l-4.8-3.6l-6.2,6.2l3.6,4.8c-1,1.7-1.8,3.5-2.3,5.4l-5.9,0.9v8.7l5.9,0.9
			c0.4,1.9,1.2,3.8,2.3,5.5l-3.6,4.8l6.2,6.1l4.8-3.6c1.7,1.1,3.5,1.8,5.4,2.3l0.9,5.9h8.7l0.9-5.9c1.9-0.5,3.8-1.2,5.4-2.3l4.8,3.6
			l6.1-6.1l-3.6-4.8c1-1.7,1.8-3.5,2.3-5.4L547.8,237.5z M521.5,244c-2.1,0-4.2-0.6-6-1.8c-1.8-1.2-3.2-2.9-4-4.9
			c-0.8-2-1-4.2-0.6-6.3c0.4-2.1,1.5-4,3-5.6c1.5-1.5,3.4-2.5,5.5-3s4.3-0.2,6.3,0.6c2,0.8,3.7,2.2,4.9,4c1.2,1.8,1.8,3.9,1.8,6
			c0,2.9-1.1,5.6-3.2,7.7C527.2,242.9,524.4,244,521.5,244z"/>
		<path class="st14" d="M472.3,436.7v-5.8l-3.9-0.6c-0.3-1.3-0.8-2.5-1.5-3.6l2.4-3.2l-4.1-4.1l-3.2,2.4c-1.1-0.7-2.3-1.2-3.6-1.5
			l-0.6-3.9H452l-0.6,3.9c-1.3,0.3-2.5,0.8-3.6,1.5l-3.2-2.4l-4.1,4.1l2.4,3.2c-0.7,1.1-1.2,2.3-1.5,3.6l-3.9,0.6v5.7l3.9,0.6
			c0.3,1.3,0.8,2.5,1.5,3.6l-2.4,3.2l4.1,4.1l3.2-2.4c1.1,0.7,2.3,1.2,3.6,1.5l0.6,3.9h5.7l0.6-3.9c1.3-0.3,2.5-0.8,3.6-1.5l3.1,2.4
			l4.1-4.1l-2.4-3.2c0.7-1.1,1.2-2.4,1.5-3.6L472.3,436.7z M454.9,441c-1.4,0-2.8-0.4-4-1.2c-1.2-0.8-2.1-1.9-2.7-3.2
			c-0.5-1.3-0.7-2.8-0.4-4.2c0.3-1.4,1-2.7,2-3.7s2.3-1.7,3.7-2c1.4-0.3,2.8-0.1,4.2,0.4c1.3,0.5,2.4,1.5,3.2,2.7
			c0.8,1.2,1.2,2.6,1.2,4c0,0.9-0.2,1.9-0.5,2.8c-0.4,0.9-0.9,1.7-1.6,2.3c-0.7,0.7-1.5,1.2-2.3,1.6
			C456.8,440.8,455.9,441,454.9,441L454.9,441z"/>
		<path class="st15" d="M302.6,477.1c0-4,2.1-6.2,5-6.2c2.9,0,5,2.3,5,6.2c0,4-2.1,6.2-5,6.2C304.8,483.3,302.6,481,302.6,477.1z
			 M310.8,477.1c0-3.1-1.4-4.7-3.2-4.7c-1.9,0-3.2,1.6-3.2,4.7s1.4,4.7,3.2,4.7C309.5,481.8,310.8,480.2,310.8,477.1L310.8,477.1z"
			/>
		<path class="st15" d="M314.3,477.1c0-4,2.1-6.2,5-6.2s5,2.3,5,6.2c0,4-2.1,6.2-5,6.2C316.4,483.3,314.3,481,314.3,477.1z
			 M322.4,477.1c0-3.1-1.4-4.7-3.2-4.7c-1.9,0-3.2,1.6-3.2,4.7s1.4,4.7,3.2,4.7C321.1,481.8,322.4,480.2,322.4,477.1L322.4,477.1z"
			/>
		<path class="st15" d="M329.6,471v12.2h-1.7v-10.7h-2.7V471L329.6,471z"/>
		<path class="st15" d="M332.3,477.1c0-4,2.1-6.2,5-6.2s5,2.3,5,6.2c0,4-2.1,6.2-5,6.2S332.3,481,332.3,477.1z M340.5,477.1
			c0-3.1-1.4-4.7-3.2-4.7s-3.2,1.6-3.2,4.7s1.4,4.7,3.2,4.7S340.5,480.2,340.5,477.1z"/>
		<path class="st15" d="M347.6,471v12.2H346v-10.7h-2.7V471L347.6,471z"/>
		<path class="st15" d="M350.3,477.1c0-4,2.1-6.2,5-6.2c2.9,0,5,2.3,5,6.2c0,4-2.1,6.2-5,6.2C352.4,483.3,350.3,481,350.3,477.1z
			 M358.5,477.1c0-3.1-1.4-4.7-3.2-4.7c-1.9,0-3.2,1.6-3.2,4.7s1.4,4.7,3.2,4.7C357.2,481.8,358.5,480.2,358.5,477.1z"/>
		<path class="st15" d="M365.6,471v12.2h-1.7v-10.7h-2.7V471L365.6,471z"/>
		<path class="st15" d="M117.2,258.6c0-5,2.7-7.8,6.3-7.8c3.5,0,6.2,2.8,6.2,7.8c0,5-2.7,7.8-6.2,7.8S117.2,263.6,117.2,258.6z
			 M127.5,258.6c0-3.9-1.7-5.9-4.1-5.9s-4.1,2-4.1,5.9c0,3.9,1.7,5.9,4.1,5.9S127.4,262.5,127.5,258.6L127.5,258.6z"/>
		<path class="st15" d="M131.7,258.6c0-5,2.7-7.8,6.3-7.8s6.2,2.8,6.2,7.8c0,5-2.7,7.8-6.2,7.8C134.5,266.4,131.7,263.6,131.7,258.6
			z M142,258.6c0-3.9-1.7-5.9-4.1-5.9c-2.4,0-4.1,2-4.1,5.9c0,3.9,1.7,5.9,4.1,5.9C140.4,264.5,142,262.5,142,258.6z"/>
		<path class="st15" d="M151,250.9v15.3h-2.2v-13.4h-3.5v-1.9H151z"/>
		<path class="st15" d="M154.4,258.6c0-5,2.7-7.8,6.3-7.8c3.5,0,6.2,2.8,6.2,7.8c0,5-2.7,7.8-6.2,7.8
			C157.1,266.4,154.4,263.6,154.4,258.6z M164.7,258.6c0-3.9-1.7-5.9-4.1-5.9c-2.4,0-4.1,2-4.1,5.9c0,3.9,1.7,5.9,4.1,5.9
			C163,264.5,164.7,262.5,164.7,258.6z"/>
		<path class="st15" d="M173.6,250.9v15.3h-2.2v-13.4H168v-1.9H173.6z"/>
		<path class="st15" d="M181.7,250.9v15.3h-2.2v-13.4h-3.5v-1.9H181.7z"/>
		<path class="st15" d="M185.1,258.6c0-5,2.7-7.8,6.3-7.8s6.2,2.8,6.2,7.8c0,5-2.7,7.8-6.2,7.8S185.1,263.6,185.1,258.6z
			 M195.4,258.6c0-3.9-1.7-5.9-4.1-5.9c-2.4,0-4.1,2-4.1,5.9c0,3.9,1.7,5.9,4.1,5.9C193.7,264.5,195.4,262.5,195.4,258.6
			L195.4,258.6z"/>
		<path class="st15" d="M199.7,258.6c0-5,2.7-7.8,6.3-7.8s6.2,2.8,6.2,7.8c0,5-2.7,7.8-6.2,7.8S199.7,263.6,199.7,258.6z M210,258.6
			c0-3.9-1.7-5.9-4.1-5.9c-2.4,0-4.1,2-4.1,5.9c0,3.9,1.7,5.9,4.1,5.9C208.4,264.5,210,262.5,210,258.6L210,258.6z"/>
		<path class="st15" d="M214.3,258.6c0-5,2.7-7.8,6.3-7.8c3.5,0,6.2,2.8,6.2,7.8c0,5-2.7,7.8-6.2,7.8
			C217,266.4,214.3,263.6,214.3,258.6z M224.6,258.6c0-3.9-1.7-5.9-4.1-5.9s-4.1,2-4.1,5.9c0,3.9,1.7,5.9,4.1,5.9
			C222.9,264.5,224.6,262.5,224.6,258.6z"/>
		<path class="st15" d="M233.6,250.9v15.3h-2.2v-13.4H228v-1.9H233.6z"/>
		<path class="st15" d="M236.9,258.6c0-5,2.7-7.8,6.3-7.8s6.2,2.8,6.2,7.8c0,5-2.7,7.8-6.2,7.8S236.9,263.6,236.9,258.6z
			 M247.2,258.6c0-3.9-1.7-5.9-4.1-5.9c-2.4,0-4.1,2-4.1,5.9c0,3.9,1.7,5.9,4.1,5.9C245.6,264.5,247.2,262.5,247.2,258.6z"/>
		<path class="st15" d="M256.2,250.9v15.3H254v-13.4h-3.5v-1.9H256.2z"/>
		<path class="st15" d="M358.6,276.6c0-5,2.7-7.8,6.3-7.8c3.5,0,6.2,2.8,6.2,7.8c0,5-2.7,7.8-6.2,7.8
			C361.3,284.4,358.6,281.6,358.6,276.6z M368.9,276.6c0-3.9-1.7-5.9-4.1-5.9s-4.1,2-4.1,5.9c0,3.9,1.7,5.9,4.1,5.9
			S368.9,280.5,368.9,276.6z"/>
		<path class="st15" d="M377.8,268.9v15.3h-2.2v-13.4h-3.5v-1.9H377.8z"/>
		<path class="st15" d="M385.9,268.9v15.3h-2.2v-13.4h-3.5v-1.9H385.9z"/>
		<path class="st15" d="M389.3,276.6c0-5,2.7-7.8,6.3-7.8s6.2,2.8,6.2,7.8c0,5-2.7,7.8-6.2,7.8C392,284.4,389.3,281.6,389.3,276.6z
			 M399.6,276.6c0-3.9-1.7-5.9-4.1-5.9c-2.4,0-4.1,2-4.1,5.9c0,3.9,1.7,5.9,4.1,5.9S399.6,280.5,399.6,276.6z"/>
		<path class="st15" d="M403.9,276.6c0-5,2.7-7.8,6.3-7.8c3.6,0,6.2,2.8,6.2,7.8c0,5-2.7,7.8-6.2,7.8
			C406.6,284.4,403.9,281.6,403.9,276.6z M414.2,276.6c0-3.9-1.7-5.9-4.1-5.9c-2.4,0-4.1,2-4.1,5.9c0,3.9,1.7,5.9,4.1,5.9
			C412.5,282.5,414.2,280.5,414.2,276.6z"/>
		<path class="st15" d="M418.5,276.6c0-5,2.7-7.8,6.3-7.8s6.2,2.8,6.2,7.8c0,5-2.7,7.8-6.2,7.8S418.5,281.6,418.5,276.6z
			 M428.8,276.6c0-3.9-1.7-5.9-4.1-5.9c-2.4,0-4.1,2-4.1,5.9c0,3.9,1.7,5.9,4.1,5.9C427.1,282.5,428.8,280.5,428.8,276.6z"/>
		<path class="st15" d="M471.6,92.7c0,0.7-0.2,1.4-0.6,2c-0.4,0.6-1,1.1-1.6,1.3c-0.7,0.3-1.4,0.3-2.1,0.2c-0.7-0.1-1.4-0.5-1.9-1
			c-0.5-0.5-0.9-1.2-1-1.9s-0.1-1.4,0.2-2.1c0.3-0.7,0.7-1.2,1.3-1.6c0.6-0.4,1.3-0.6,2-0.6c1,0,1.9,0.4,2.6,1.1
			C471.2,90.8,471.6,91.7,471.6,92.7L471.6,92.7z"/>
		<path class="st15" d="M487.4,92.7c0,0.7-0.2,1.4-0.6,2c-0.4,0.6-1,1.1-1.6,1.4c-0.7,0.3-1.4,0.4-2.1,0.2c-0.7-0.1-1.4-0.5-1.9-1
			c-0.5-0.5-0.9-1.2-1-1.9c-0.1-0.7-0.1-1.5,0.2-2.1c0.3-0.7,0.8-1.2,1.4-1.6c0.6-0.4,1.3-0.6,2-0.6c1,0,1.9,0.4,2.6,1.1
			C487,90.8,487.4,91.7,487.4,92.7L487.4,92.7z"/>
		<path class="st15" d="M504.7,92.7c0,1-0.3,2-0.9,2.9c-0.6,0.9-1.4,1.5-2.3,1.9c-0.9,0.4-2,0.5-3,0.3s-1.9-0.7-2.6-1.4
			c-0.7-0.7-1.2-1.6-1.4-2.6c-0.2-1-0.1-2,0.3-3c0.4-0.9,1.1-1.8,1.9-2.3c0.9-0.6,1.9-0.9,2.9-0.9c1.4,0,2.7,0.5,3.7,1.5
			S504.7,91.3,504.7,92.7z"/>
		<path class="st15" d="M519,92.7c0,0.7-0.2,1.4-0.6,2c-0.4,0.6-1,1.1-1.6,1.4c-0.7,0.3-1.4,0.4-2.1,0.2c-0.7-0.1-1.4-0.5-1.9-1
			c-0.5-0.5-0.9-1.2-1-1.9s-0.1-1.5,0.2-2.1c0.3-0.7,0.8-1.2,1.4-1.6c0.6-0.4,1.3-0.6,2-0.6c1,0,1.9,0.4,2.6,1.1
			C518.6,90.8,519,91.7,519,92.7L519,92.7z"/>
		<path class="st15" d="M253.6,421.7c0-0.7,0.2-1.4,0.6-2c0.4-0.6,1-1.1,1.6-1.4s1.4-0.4,2.1-0.2c0.7,0.1,1.4,0.5,1.9,1
			c0.5,0.5,0.9,1.2,1,1.9c0.1,0.7,0.1,1.5-0.2,2.1c-0.3,0.7-0.7,1.2-1.4,1.6c-0.6,0.4-1.3,0.6-2,0.6c-0.5,0-1-0.1-1.4-0.3
			c-0.4-0.2-0.9-0.5-1.2-0.8c-0.3-0.3-0.6-0.7-0.8-1.2C253.7,422.6,253.6,422.1,253.6,421.7L253.6,421.7z"/>
		<path class="st15" d="M237.8,421.7c0-0.7,0.2-1.4,0.6-2c0.4-0.6,1-1.1,1.6-1.3c0.7-0.3,1.4-0.4,2.1-0.2c0.7,0.1,1.4,0.5,1.9,1
			c0.5,0.5,0.9,1.2,1,1.9c0.1,0.7,0.1,1.4-0.2,2.1c-0.3,0.7-0.7,1.2-1.3,1.6c-0.6,0.4-1.3,0.6-2,0.6c-1,0-1.9-0.4-2.6-1.1
			C238.2,423.6,237.8,422.6,237.8,421.7z"/>
		<path class="st15" d="M220.5,421.7c0-1,0.3-2,0.9-2.9c0.6-0.9,1.4-1.5,2.3-1.9c0.9-0.4,2-0.5,3-0.3c1,0.2,1.9,0.7,2.6,1.4
			c0.7,0.7,1.2,1.6,1.4,2.6c0.2,1,0.1,2-0.3,3c-0.4,0.9-1.1,1.8-1.9,2.3c-0.9,0.6-1.9,0.9-2.9,0.9c-1.4,0-2.7-0.5-3.7-1.5
			C221.1,424.3,220.5,423,220.5,421.7L220.5,421.7z"/>
		<path class="st15" d="M206.2,421.7c0-0.7,0.2-1.4,0.6-2c0.4-0.6,1-1.1,1.6-1.4c0.7-0.3,1.4-0.4,2.1-0.2s1.4,0.5,1.9,1
			c0.5,0.5,0.9,1.2,1,1.9c0.1,0.7,0.1,1.5-0.2,2.1c-0.3,0.7-0.8,1.2-1.4,1.6c-0.6,0.4-1.3,0.6-2,0.6c-1,0-1.9-0.4-2.6-1.1
			C206.6,423.6,206.2,422.6,206.2,421.7z"/>
		<path class="st16" d="M442.7,287.5h-6.2v3.7h6.2V287.5z"/>
		<path class="st16" d="M442.7,280.6h-6.2v3.7h6.2V280.6z"/>
		<path class="st16" d="M442.7,273.8h-6.2v3.7h6.2V273.8z"/>
		<path class="st16" d="M442.7,266.9h-6.2v3.7h6.2V266.9z"/>
		<path class="st16" d="M442.7,260h-6.2v3.7h6.2V260z"/>
		<path class="st16" d="M442.7,253.1h-6.2v3.7h6.2V253.1z"/>
		<path class="st16" d="M442.7,246.2h-6.2v3.7h6.2V246.2z"/>
		<path class="st16" d="M442.7,239.3h-6.2v3.7h6.2V239.3z"/>
		<path class="st16" d="M442.7,232.4h-6.2v3.7h6.2V232.4z"/>
		<path class="st16" d="M442.7,225.5h-6.2v3.7h6.2V225.5z"/>
		<path class="st16" d="M355.7,287.5h-6.2v3.7h6.2V287.5z"/>
		<path class="st16" d="M355.7,280.6h-6.2v3.7h6.2V280.6z"/>
		<path class="st16" d="M355.7,273.8h-6.2v3.7h6.2V273.8z"/>
		<path class="st16" d="M355.7,266.9h-6.2v3.7h6.2V266.9z"/>
		<path class="st16" d="M355.7,260h-6.2v3.7h6.2V260z"/>
		<path class="st16" d="M355.7,253.1h-6.2v3.7h6.2V253.1z"/>
		<path class="st16" d="M355.7,246.2h-6.2v3.7h6.2V246.2z"/>
		<path class="st16" d="M355.7,239.3h-6.2v3.7h6.2V239.3z"/>
		<path class="st16" d="M355.7,232.4h-6.2v3.7h6.2V232.4z"/>
		<path class="st16" d="M355.7,225.5h-6.2v3.7h6.2V225.5z"/>
		<path class="st16" d="M268.7,287.5h-6.2v3.7h6.2V287.5z"/>
		<path class="st16" d="M268.7,280.6h-6.2v3.7h6.2V280.6z"/>
		<path class="st16" d="M268.7,273.8h-6.2v3.7h6.2V273.8z"/>
		<path class="st16" d="M268.7,266.9h-6.2v3.7h6.2V266.9z"/>
		<path class="st16" d="M268.7,260h-6.2v3.7h6.2V260z"/>
		<path class="st16" d="M268.7,253.1h-6.2v3.7h6.2V253.1z"/>
		<path class="st16" d="M268.7,246.2h-6.2v3.7h6.2V246.2z"/>
		<path class="st16" d="M268.7,239.3h-6.2v3.7h6.2V239.3z"/>
		<path class="st16" d="M268.7,232.4h-6.2v3.7h6.2V232.4z"/>
		<path class="st16" d="M268.7,225.5h-6.2v3.7h6.2V225.5z"/>
	</g>
</g>
<rect x="707" class="st4" width="597" height="576"/>
<path class="st17" d="M1218.1,238.1c-14.9,19.7-39.9,31.4-66,31.4c-42.4,0-80.2-32.4-80.2-74.8c0-35,19.1-60.1,45.5-71.6
	c7.2-3.2,14.9-5.3,22.7-6.3c4-0.5,8-0.8,12-0.8c10.3,0,20.4,2,29.9,6c28.1,11.6,48.5,39,49.9,70.8
	C1232.8,210.4,1227.4,225.8,1218.1,238.1z"/>
<path class="st18" d="M1107.9,199.5c0,0,3,6.9,0,10.7c-3,3.8-3.3,11,2.7,15.8c6,4.8,8.6,5.2,7.2,9.9c-1.4,4.8-2.8,10.6-0.5,13
	c2.2,2.4,3.2,8.3,8.2,8.7c5,0.4-0.4-4,2.9-8.1c3.3-4.1,15.9-4.9,14.7-12.9c-1.2-8.1,10.4-8.8,12-14.1c1.6-5.3-5.3-8.6-11.1-8.2
	c-5.8,0.4-2.3-8.7-8.6-10c-6.3-1.3-9.3-6.4-13-5.8c-3.7,0.6-7.8-4.6-11.9-3C1106.3,197.2,1107.9,199.5,1107.9,199.5z"/>
<path class="st18" d="M1097.3,144c0,0-4.4,3.4-5.6,8.8c-1.2,5.4-7.3,8.8-8.3,16.3c-0.9,7.5,3.4,7.7,1.8,11.8c-1.5,4.1,0.4,6.1,5,8.2
	c4.7,2,5.1,5.2,7.8,6.2c2.8,1,2,3.8,3,4.1c0.9,0.3,0.5-2.1,1.5-5.2c0.9-3.1,1.8-4.4-1.7-4.3c-3.5,0.1-2.4-2.6-1-4.4
	c1.4-1.8-1.9-2-3-1.8c-1.1,0.3-0.8,5.3-3.1,2.9c-2.3-2.4-3.3-5.1-1.5-8.2c1.8-3.1,5.8-0.5,8.6-4.3c2.8-3.7,6.7-2.2,7,0.7
	c0.2,3,5.8,3.1,6.7-0.9c1-3.9,0.5-10.8,6.3-11.9c5.7-1.1,16.9-6.8,9.8-9.2c-7.1-2.3-4.3-7.2-8-6.9c-3.7,0.3-2.2,5.8-6.3,4.2
	c-4.1-1.6-7-6-1.3-7.2c5.7-1.2,8.1-7.5,3.7-7.1s-5.1-3.9-7.8-3.4c-2.7,0.5-5.4,6.9-8.2,8.6C1100,142.5,1097.3,144,1097.3,144z"/>
<path class="st18" d="M1134.1,131.4c0,0,5.7-1.6,8.1,0c2.5,1.6,6.3,6,3.1,7.6s-6.5,2.2-5,5.2c1.6,3.1-4.5,4.1-6.2,0
	c-1.7-4.1-1.7-5.6-3.5-7.5C1128.8,134.9,1129.6,130.8,1134.1,131.4z"/>
<path class="st18" d="M1218.1,238.1c-23.3-6.1-4-15.7-12.2-26.8c-4.7-6.3,3.6-13.9-1.7-14.9c-3.1-0.6-10.2,7.3-14.3,0
	c-4.1-7.3-11.4-7.3-13.5-2.9c-2.1,4.4-11.1,7.4-17,4.2c-5.9-3.2-2.5-7.4-7.6-10.8c-5.1-3.3-5.5-8.6,0-12.7c5.5-4.1,3-10,11.2-8.2
	c8.2,1.8,6.6-17.1,6.6-17.1c-0.1-3.3,3.1-3.9,1.3-6.9c-1.8-3.1-6.9-0.6-9.7-7.4c-2.7-6.8,4.3-10.9,10-10.3c1.7,0.2,5.7-1,10.7-2.5
	c28.1,11.6,48.5,39,50,70.8C1232.8,210.4,1227.4,225.8,1218.1,238.1z"/>
<path class="st18" d="M1109.6,183.9c0,0,4.7-2.6,7.2-0.5c2.5,2.1,3.6,3.5,7.3,2.7c3.7-0.8,6.2,0.7,3.8,1.8c-2.4,1.1-8,3-10.6,0.7
	C1114.8,186.2,1107.4,184.8,1109.6,183.9z"/>
<path class="st18" d="M1128.6,192.3c0,0,3.3,0.6,4.1-0.8c0.8-1.4-0.8-0.1-2.1-0.8C1129.3,190.1,1126.9,190.8,1128.6,192.3z"/>
<path class="st19" d="M1008.2,469.2c145.3,0,263.1-11.8,263.1-26.5c0-14.6-117.8-26.5-263.1-26.5c-145.3,0-263.1,11.8-263.1,26.5
	C745,457.4,862.8,469.2,1008.2,469.2z"/>
<g class="st3">
	<path class="st20" d="M1139.2,319.5c30.1-30.7,72.3-67,90.7-50.8c22.1,19.6-31.6,44.3-72.1,69.6
		C1143.3,347.4,1120,339.1,1139.2,319.5z"/>
</g>
<path class="st18" d="M1102,332.3c0,0,153.7-59.4,173.9-11.9c20.3,47.5-114.9,14.2-158.9,33L1102,332.3z"/>
<path class="st4" d="M1110.3,344.2c30.1-13.6,67.3-17.9,93.2-19.1c28.1-1.3,49.2,0.6,49.4,0.6l0.1-1.3c-0.2,0-21.5-2-49.6-0.6
	c-26,1.2-63.3,5.6-93.7,19.2L1110.3,344.2z"/>
<path class="st20" d="M1207.6,430.1c-19.3-8.6-35,18.6-50.6,0c-13.1-15.7-13.4-18.2-22.3-17.7c-3.1,0.2-6.1,0.8-9,1.9
	c-3.5,1.2-9.3,2.5-14.8-0.2c-33.6-16.6-41.9-90.5,6.9-91.9c3.5-0.1,7.3,1.6,11.3,3.7c21.8,11.3,21.3,24.8,53.8,13.1
	c32.4-11.7,29,36.7,43,45.2c14,8.5,28.5,13.1,28.5,34.5C1254.4,440.1,1226.9,438.7,1207.6,430.1z"/>
<g class="st21">
	<path class="st4" d="M1103.8,361.1l0-1.4c0.6,0,62.2,3.3,150,64.6l-0.8,1.1C1165.6,364.4,1104.4,361.2,1103.8,361.1z"/>
	<path class="st4" d="M1181.9,367.3c-3.8-18.6,0.1-28.2,0.3-28.6l1.3,0.5c0,0.1-4,9.6-0.2,27.8L1181.9,367.3z"/>
	<path class="st4" d="M1175,380.8c0.9-8,7.2-15.9,18.1-22.8c5.1-3.2,10.6-6,16.3-8.1l0.5,1.3c-0.3,0.1-31.3,11.5-33.5,29.8
		L1175,380.8z"/>
	<path class="st4" d="M1199.2,395.5c-0.5-2.1-0.7-3.4-0.7-3.5l1.4-0.2c0,0.3,4.1,27.1,27.4,43.1l-0.8,1.1
		C1207.6,423.2,1201.1,403.5,1199.2,395.5z"/>
	<path class="st4" d="M1191.3,429.6c-0.9-9.6,1.9-16.5,4.3-20.6c2.7-4.4,5.6-6.6,5.8-6.7l0.8,1.1c-0.1,0.1-11.2,8.4-9.5,26
		L1191.3,429.6z"/>
</g>
<path class="st19" d="M843.5,120.3c0,0,4.9-9.3,17.2-8.2c12.3,1.2,10.8,10.5,16.7,9.7c5.8-0.9,14.1,0,15.8,5.9
	c1.8,5.9,9.7,2.6,10,7.6c0.3,5-9.1,8.5-19.9,4.1c-10.8-4.4-16.1,3.4-31.4,2c-15.2-1.4-17.1-3.2-26.1-2.3c-9,0.9-8.8-5.3-4.7-9.4
	C825.2,125.5,841.8,125.9,843.5,120.3z"/>
<g class="st3">
	<path class="st19" d="M905.2,151c0,0,2.5-4.9,8.9-4.3c6.4,0.6,5.6,5.5,8.7,5c3-0.5,7.3,0,8.2,3c0.9,3.1,5,1.4,5.2,4
		c0.2,2.6-4.7,4.4-10.4,2.1c-5.6-2.3-8.4,1.8-16.3,1c-7.9-0.7-8.9-1.6-13.6-1.2c-4.7,0.5-4.6-2.8-2.4-4.9
		C895.7,153.8,904.3,154,905.2,151z"/>
</g>
<path class="st20" d="M831.1,182.4c-2.8,3.3-4.7,3.4-6,2.3c-1.3-1.1-1.5-3,1.3-6.3c5.1-6,9.9-6.9,9.9-6.9S836.3,176.3,831.1,182.4z"
	/>
<path class="st20" d="M840,209c-1.6,4-3.4,4.7-4.9,4.1s-2.4-2.3-0.8-6.3c2.9-7.3,7.2-9.7,7.2-9.7S843,201.5,840,209z"/>
<path class="st20" d="M862.2,278.5l-0.8,0.2c0-0.1-3.2-12.4-13.3-28.6c-9.3-14.9-26.5-36.2-56-53.1l0.4-0.7
	c29.6,17,46.9,38.4,56.3,53.4C859,265.9,862.2,278.3,862.2,278.5z"/>
<path class="st20" d="M823.9,219.6l-0.8-0.2c7-28.9-12-54.5-12.2-54.7l0.7-0.5C811.7,164.5,831,190.4,823.9,219.6z"/>
<path class="st20" d="M807.9,211.1c-4.9,1.6-10.2,1.9-15.3,0.8l0.2-0.8c0.1,0,9.5,2.4,18.2-2.3l0.4,0.7
	C810.3,210.2,809.1,210.7,807.9,211.1L807.9,211.1z"/>
<path class="st20" d="M854.9,261.5c-16.5,3.7-32.1,0.3-46.3-9.8c-0.3-0.3-0.7-0.5-1.1-0.7c0,0,0.1,0,0.1,0v-0.8
	c0.2,0,0.4,0.1,1.5,0.9c14,10.1,29.3,13.3,45.6,9.7L854.9,261.5z"/>
<path class="st20" d="M829.5,260.9l-0.8,0.1c-0.7-11.1-12.7-23.7-12.8-23.8l0.6-0.6c2.3,2.4,4.3,5.1,6.2,7.8
	C825.6,248.6,829.1,254.9,829.5,260.9z"/>
<path class="st20" d="M790.2,192.8c5.4,2.3,6.4,4.2,5.8,5.8c-0.7,1.6-2.8,2.1-8.2-0.1c-9.8-4.2-13.3-9-13.3-9
	S780.2,188.6,790.2,192.8z"/>
<path class="st20" d="M793.8,208.7c5.8,0.6,7.4,2.1,7.2,3.8c-0.2,1.7-2,2.9-7.8,2.3c-10.6-1-15.4-4.6-15.4-4.6
	S783.1,207.6,793.8,208.7z"/>
<path class="st20" d="M817.3,233.8c3.1,3,3.1,4.9,1.9,6.1c-1.2,1.2-3.1,1.3-6.2-1.7c-5.7-5.4-6.3-10.3-6.3-10.3
	S811.6,228.3,817.3,233.8z"/>
<path class="st20" d="M811.5,196c2.3,3.7,1.8,5.5,0.4,6.4c-1.4,0.9-3.3,0.5-5.6-3.1c-4.2-6.7-3.6-11.5-3.6-11.5
	S807.3,189.3,811.5,196z"/>
<path class="st20" d="M838.3,253.3c1.2,4.2,0.2,5.8-1.4,6.3c-1.6,0.5-3.3-0.4-4.5-4.6c-2.2-7.6-0.2-12.1-0.2-12.1
	S836.1,245.6,838.3,253.3z"/>
<path class="st20" d="M811.9,249.7c3.7,2.3,4.1,4.1,3.2,5.5c-0.9,1.4-2.7,2-6.4-0.3c-6.7-4.1-8.4-8.7-8.4-8.7S805,245.6,811.9,249.7
	z"/>
<path class="st20" d="M812,160.5c3.1,4.9,2.9,7.1,1.5,8c-1.4,0.9-3.5,0.2-6.7-4.7c-5.7-9-5.9-14.9-5.9-14.9S806.2,151.4,812,160.5z"
	/>
<path class="st20" d="M925.1,385.3c0,0-83.4-137.3-119.8-113.3c-36.4,24,76.3,79.6,99.3,120.4L925.1,385.3z"/>
<path class="st19" d="M886.3,360.9c0,0-96-101.7-128.9-72.8c-32.9,28.9,82.9,52.9,109.7,83.4L886.3,360.9z"/>
<path class="st4" d="M875.6,366.9c-18.1-21.4-45-38.3-64.4-48.7c-21-11.3-37.9-17.5-38.1-17.6l0.4-1c0.2,0.1,17.2,6.4,38.2,17.7
	c19.5,10.4,46.5,27.4,64.7,49L875.6,366.9z"/>
<path class="st18" d="M771.6,400.3c21.6,4.2,18.7,36.8,43.1,30.2c24.4-6.6,22.3-8.1,34.3,2.3c0,0,4.8,10.2,14.6,11.7
	c38.6,5.9,90-52,49.2-82.4c-2.9-2.2-7.2-3-11.9-3.6c-25.4-3.4-33.1,8.4-53.6-21c-20.6-29.4-46.8,13.9-63.8,12.8
	c-17-1.1-32.1-5.9-44.9,12.3C725.7,380.8,750,396.2,771.6,400.3z"/>
<path class="st4" d="M901.4,403.7l0.8-1.2c-0.5-0.3-55-34.5-166.6-34.7v1.4C846.8,369.4,900.9,403.4,901.4,403.7z"/>
<path class="st4" d="M831.1,362.2c14.4-13.5,16.8-24.1,16.9-24.5l-1.4-0.3c0,0.1-2.4,10.6-16.5,23.8L831.1,362.2z"/>
<path class="st4" d="M828.9,377.8c4-7.4,3.4-17.8-1.8-30.3c-2.4-5.8-5.5-11.4-9-16.7l-1.2,0.8c0.2,0.3,19.8,28.5,10.7,45.5
	L828.9,377.8z"/>
<path class="st4" d="M799.5,375.9c1.7-1.5,2.6-2.5,2.7-2.5l-1-1c-0.2,0.2-19.7,20.6-49.2,20.4v1.4
	C775.7,394.4,793.1,381.5,799.5,375.9z"/>
<path class="st4" d="M785.7,409.6c6.6-7.6,8.3-15.2,8.6-20.1c0.3-5.4-0.9-9-0.9-9.1l-1.4,0.5c0,0.1,4.6,13.9-7.5,27.8L785.7,409.6z"
	/>
<path class="st22" d="M1060.4,403.9v-44.4h-89.6v44.4c0,11.5-7.7,20.9-17.2,20.9H950v5.7h131.2v-5.7h-3.6
	C1068.1,424.8,1060.4,415.5,1060.4,403.9z"/>
<path class="st23" d="M1080.4,430.6H950.7c-0.8,0-1.5-0.3-2-0.8c-0.5-0.5-0.8-1.3-0.8-2l0,0c0-0.8,0.3-1.5,0.8-2
	c0.5-0.5,1.3-0.8,2-0.8h129.7c0.8,0,1.5,0.3,2,0.8c0.5,0.5,0.8,1.3,0.8,2l0,0c0,0.8-0.3,1.5-0.8,2
	C1081.9,430.3,1081.2,430.6,1080.4,430.6L1080.4,430.6z"/>
<path class="st23" d="M1168.2,386.8l-303.1-3.5c-3.1,0-6.1-1.3-8.3-3.5c-2.2-2.2-3.4-5.2-3.4-8.3V186.7c0-3.1,1.2-6.1,3.4-8.3
	c2.2-2.2,5.1-3.5,8.3-3.5l299.2-4.6c3.1,0,6.1,1.1,8.4,3.3c2.3,2.2,3.6,5.1,3.6,8.3l3.9,192.8c0,1.6-0.3,3.2-0.8,4.6
	c-0.6,1.5-1.5,2.8-2.6,3.9s-2.5,2-3.9,2.6C1171.4,386.5,1169.8,386.8,1168.2,386.8L1168.2,386.8z"/>
<path class="st19" d="M1158,188.9H871.5c-3.5,0-6.4,2.8-6.4,6.3v148.6c0,3.5,2.8,6.3,6.4,6.3H1158c3.5,0,6.3-2.8,6.3-6.3V195.3
	C1164.3,191.8,1161.5,188.9,1158,188.9z"/>
<path class="st22" d="M1046,138.5l3.8-0.1c0.3,0,0.7-0.1,1-0.2c0.3-0.1,0.6-0.3,0.8-0.6c0.2-0.2,0.4-0.5,0.5-0.9
	c0.1-0.3,0.2-0.7,0.2-1l-0.1-4.6c0-0.7-0.3-1.3-0.8-1.8c-0.5-0.5-1.2-0.7-1.9-0.7l-2.7,0.1c-0.6,0-1.1-0.2-1.6-0.5
	c-0.5-0.3-0.8-0.8-1-1.3c-0.1-0.2-0.1-0.4-0.2-0.6c-0.2-0.5-0.2-1-0.1-1.5c0.1-0.5,0.4-1,0.8-1.3l1.8-1.6c0.5-0.5,0.8-1.1,0.9-1.8
	c0-0.7-0.2-1.4-0.6-1.9l-3-3.4c-0.2-0.3-0.5-0.5-0.8-0.6c-0.3-0.2-0.6-0.2-1-0.3c-0.3,0-0.7,0-1,0.1c-0.3,0.1-0.6,0.3-0.9,0.5
	l-1.8,1.6c-0.4,0.3-0.9,0.6-1.4,0.6c-0.5,0.1-1,0-1.5-0.3c-0.2-0.1-0.4-0.2-0.6-0.3c-0.5-0.2-0.9-0.6-1.2-1.1
	c-0.3-0.5-0.4-1.1-0.3-1.6l0.4-2.6c0.1-0.7,0-1.4-0.5-1.9c-0.4-0.6-1-0.9-1.7-1l-4.5-0.7c-0.7-0.1-1.4,0.1-1.9,0.5
	c-0.6,0.4-0.9,1-1,1.7l-0.6,3.7c-0.1,0.5-0.3,0.9-0.6,1.3c-0.3,0.4-0.8,0.6-1.2,0.8c-0.8,0.2-1.6,0.5-2.4,0.9
	c-0.5,0.2-1.1,0.3-1.6,0.2c-0.5-0.1-1-0.4-1.4-0.8l-2-2.2c-0.2-0.3-0.5-0.5-0.8-0.6c-0.3-0.2-0.6-0.2-1-0.3c-0.3,0-0.7,0-1,0.1
	c-0.3,0.1-0.6,0.3-0.9,0.5l-3.5,3c-0.5,0.5-0.8,1.1-0.9,1.8c0,0.7,0.2,1.4,0.6,1.9l2.6,3c0.3,0.4,0.5,0.8,0.6,1.3
	c0.1,0.5,0,1-0.2,1.5c-0.1,0.2-0.2,0.4-0.3,0.7c-0.2,0.5-0.5,0.9-0.9,1.2c-0.4,0.3-0.9,0.4-1.4,0.5l-4.3,0.1c-0.7,0-1.3,0.3-1.8,0.8
	c-0.5,0.5-0.7,1.2-0.7,1.9l0.1,4.6c0,0.7,0.3,1.3,0.8,1.8c0.5,0.5,1.2,0.7,1.9,0.7l3.7-0.1c0.6,0,1.1,0.1,1.5,0.5
	c0.4,0.3,0.8,0.7,1,1.3v0c0.2,0.5,0.2,1,0.1,1.5c-0.1,0.5-0.4,1-0.8,1.3l-2.6,2.3c-0.3,0.2-0.5,0.5-0.6,0.8c-0.2,0.3-0.3,0.6-0.3,1
	c0,0.3,0,0.7,0.1,1c0.1,0.3,0.3,0.6,0.5,0.9l3,3.4c0.2,0.3,0.5,0.5,0.8,0.6c0.3,0.2,0.6,0.2,1,0.3c0.3,0,0.7,0,1-0.1
	c0.3-0.1,0.6-0.3,0.9-0.5l2.6-2.3c0.4-0.3,0.9-0.6,1.4-0.6c0.5-0.1,1,0,1.5,0.3l0,0c0.5,0.3,0.9,0.7,1.1,1.1c0.3,0.5,0.3,1,0.3,1.6
	l-0.6,3.6c0,0.3,0,0.7,0,1c0.1,0.3,0.2,0.6,0.4,0.9c0.2,0.3,0.5,0.5,0.8,0.7c0.3,0.2,0.6,0.3,1,0.4l4.5,0.7c0.7,0.1,1.4-0.1,1.9-0.5
	c0.6-0.4,0.9-1,1.1-1.7l0.7-4.2c0.1-0.5,0.3-1,0.7-1.3c0.3-0.4,0.8-0.6,1.3-0.8c0.2-0.1,0.5-0.1,0.7-0.2c0.5-0.1,1-0.1,1.5,0
	c0.5,0.1,0.9,0.4,1.2,0.8l2.6,3c0.2,0.3,0.5,0.5,0.8,0.6c0.3,0.2,0.7,0.2,1,0.3c0.3,0,0.7,0,1-0.1c0.3-0.1,0.6-0.3,0.9-0.5l3.5-3
	c0.3-0.2,0.5-0.5,0.6-0.8c0.2-0.3,0.2-0.6,0.3-1c0-0.3,0-0.7-0.1-1c-0.1-0.3-0.3-0.6-0.5-0.9l-2-2.2c-0.4-0.4-0.6-1-0.6-1.5
	c-0.1-0.6,0.1-1.1,0.4-1.6c0.5-0.7,0.9-1.5,1.2-2.3c0.2-0.5,0.5-0.9,0.9-1.1C1045,138.7,1045.5,138.5,1046,138.5L1046,138.5z
	 M1033.6,140.7c-4,3.5-12.2,2.5-15.7-1.5c-3.5-4-2.1-10.8,1.9-14.2c4-3.5,10.8-1.6,14.3,2.4C1037.6,131.3,1037.6,137.1,1033.6,140.7
	L1033.6,140.7z"/>
<path class="st24" d="M1026.5,161.9c-0.1,0-0.3,0-0.4,0l-4.5-0.7c-0.3-0.1-0.7-0.2-1-0.4c-0.3-0.2-0.6-0.4-0.8-0.7
	c-0.2-0.3-0.4-0.6-0.4-1c-0.1-0.3-0.1-0.7,0-1l0.6-3.6c0.1-0.5,0-1.1-0.2-1.5s-0.6-0.9-1.1-1.1h0c-0.5-0.2-1-0.3-1.5-0.3
	c-0.5,0.1-1,0.3-1.4,0.6l-2.6,2.3c-0.3,0.2-0.6,0.4-0.9,0.5c-0.3,0.1-0.7,0.2-1,0.1c-0.3,0-0.7-0.1-1-0.3c-0.3-0.2-0.6-0.4-0.8-0.6
	l-3-3.4c-0.2-0.3-0.4-0.6-0.5-0.9c-0.1-0.3-0.2-0.7-0.1-1c0-0.4,0.1-0.7,0.3-1c0.2-0.3,0.4-0.6,0.6-0.8l2.6-2.3
	c0.4-0.3,0.7-0.8,0.8-1.3c0.1-0.5,0.1-1-0.1-1.5v0c-0.2-0.5-0.5-0.9-0.9-1.2c-0.4-0.3-1-0.5-1.5-0.4l-3.6,0.1
	c-0.7,0-1.4-0.2-1.9-0.7c-0.5-0.5-0.8-1.2-0.8-1.9l-0.1-4.6c0-0.7,0.3-1.4,0.7-1.9c0.5-0.5,1.2-0.8,1.9-0.8l4.3-0.1
	c0.5,0,1-0.2,1.4-0.4c0.4-0.3,0.7-0.7,0.9-1.1c0.1-0.2,0.2-0.5,0.3-0.7c0.2-0.4,0.3-0.9,0.2-1.4c-0.1-0.5-0.3-0.9-0.6-1.3l-2.6-3
	c-0.5-0.5-0.7-1.2-0.7-1.9c0.1-0.7,0.4-1.4,0.9-1.8l3.5-3c0.3-0.2,0.6-0.4,0.9-0.5c0.3-0.1,0.7-0.2,1-0.1c0.4,0,0.7,0.1,1,0.3
	c0.3,0.2,0.6,0.4,0.8,0.6l2,2.2c0.4,0.4,0.8,0.7,1.4,0.8c0.5,0.1,1.1,0.1,1.6-0.2c0.8-0.4,1.6-0.7,2.4-0.9c0.5-0.1,0.9-0.4,1.2-0.8
	c0.3-0.4,0.5-0.8,0.6-1.3l0.6-3.7c0.1-0.7,0.5-1.3,1.1-1.7c0.6-0.4,1.3-0.6,2-0.5l4.5,0.7c0.7,0.1,1.3,0.5,1.8,1.1
	c0.4,0.6,0.6,1.3,0.5,2l-0.4,2.6c-0.1,0.5,0,1.1,0.3,1.6s0.6,0.9,1.1,1.1c0.2,0.1,0.4,0.2,0.6,0.3c0.4,0.2,1,0.3,1.5,0.3
	c0.5-0.1,1-0.3,1.4-0.6l1.8-1.6c0.5-0.5,1.2-0.7,1.9-0.7c0.7,0,1.4,0.4,1.8,0.9l3,3.4c0.2,0.3,0.4,0.6,0.5,0.9
	c0.1,0.3,0.2,0.7,0.1,1c0,0.4-0.1,0.7-0.3,1c-0.2,0.3-0.4,0.6-0.6,0.8l-1.8,1.6c-0.4,0.3-0.7,0.8-0.8,1.3c-0.1,0.5-0.1,1,0.1,1.5
	c0.1,0.2,0.2,0.4,0.2,0.6c0.2,0.5,0.5,1,0.9,1.3c0.4,0.3,1,0.5,1.5,0.5l2.7-0.1c0.7,0,1.4,0.2,1.9,0.7c0.5,0.5,0.8,1.2,0.8,1.9
	l0.1,4.6c0,0.7-0.3,1.4-0.7,1.9c-0.5,0.5-1.2,0.8-1.9,0.8l-3.8,0.1c-0.5,0-1,0.2-1.4,0.4c-0.4,0.3-0.7,0.6-0.9,1.1
	c-0.4,0.8-0.8,1.6-1.2,2.3c-0.3,0.5-0.4,1-0.4,1.5c0,0.5,0.3,1.1,0.6,1.5l2,2.2c0.2,0.3,0.4,0.6,0.5,0.9c0.1,0.3,0.2,0.7,0.1,1
	c0,0.4-0.1,0.7-0.3,1c-0.2,0.3-0.4,0.6-0.6,0.8l-3.5,3c-0.3,0.2-0.6,0.4-0.9,0.5c-0.3,0.1-0.7,0.2-1,0.1c-0.3,0-0.7-0.1-1-0.3
	c-0.3-0.2-0.6-0.4-0.8-0.6l-2.6-3c-0.3-0.4-0.7-0.6-1.2-0.8c-0.5-0.1-0.9-0.1-1.4,0c-0.2,0.1-0.5,0.1-0.7,0.2
	c-0.5,0.1-0.9,0.4-1.2,0.7c-0.3,0.4-0.5,0.8-0.6,1.3l-0.7,4.2c-0.1,0.6-0.4,1.2-0.9,1.6C1027.8,161.7,1027.2,161.9,1026.5,161.9
	L1026.5,161.9z M1017.4,151.4c0.4,0,0.9,0.1,1.2,0.3l0,0c0.5,0.3,0.9,0.7,1.1,1.2c0.3,0.5,0.3,1.1,0.3,1.6l-0.6,3.6
	c-0.1,0.7,0.1,1.3,0.4,1.9c0.4,0.5,1,0.9,1.6,1l4.5,0.7c0.7,0.1,1.3-0.1,1.9-0.4c0.6-0.4,0.9-1,1-1.6l0.7-4.2c0.1-0.5,0.3-1,0.7-1.4
	c0.3-0.4,0.8-0.7,1.3-0.8c0.2-0.1,0.5-0.1,0.7-0.2c0.5-0.1,1-0.1,1.5,0c0.5,0.1,0.9,0.4,1.3,0.8l2.6,3c0.2,0.3,0.5,0.5,0.8,0.6
	c0.3,0.1,0.6,0.2,0.9,0.3c0.3,0,0.7,0,1-0.1c0.3-0.1,0.6-0.3,0.9-0.5l3.4-3c0.5-0.4,0.8-1.1,0.9-1.7c0-0.7-0.2-1.3-0.6-1.8l-2-2.2
	c-0.4-0.4-0.6-1-0.7-1.6c0-0.6,0.1-1.2,0.4-1.6c0.4-0.7,0.8-1.5,1.2-2.3c0.2-0.5,0.5-0.9,1-1.2c0.4-0.3,0.9-0.4,1.4-0.5l3.8-0.1
	c0.7,0,1.3-0.3,1.8-0.8c0.5-0.5,0.7-1.1,0.7-1.8l-0.1-4.6c0-0.7-0.3-1.3-0.8-1.8c-0.5-0.5-1.1-0.7-1.8-0.7l-2.7,0.1
	c-0.6,0-1.1-0.2-1.6-0.5c-0.5-0.3-0.8-0.8-1-1.4c-0.1-0.2-0.1-0.4-0.2-0.6c-0.2-0.5-0.2-1.1-0.1-1.6c0.1-0.5,0.4-1,0.8-1.3l1.8-1.6
	c0.3-0.2,0.5-0.5,0.6-0.8c0.1-0.3,0.2-0.6,0.3-1c0-0.3,0-0.7-0.1-1c-0.1-0.3-0.3-0.6-0.5-0.9l-3-3.4c-0.4-0.5-1.1-0.8-1.7-0.9
	c-0.7,0-1.3,0.2-1.8,0.6l-1.8,1.6c-0.4,0.4-0.9,0.6-1.5,0.6c-0.5,0.1-1.1,0-1.6-0.3c-0.2-0.1-0.4-0.2-0.6-0.3
	c-0.5-0.3-0.9-0.7-1.2-1.2c-0.3-0.5-0.4-1.1-0.3-1.7l0.4-2.6c0.1-0.7-0.1-1.3-0.5-1.9c-0.4-0.5-1-0.9-1.6-1l-4.5-0.7
	c-0.7-0.1-1.3,0.1-1.9,0.4c-0.5,0.4-0.9,1-1,1.6l-0.6,3.7c-0.1,0.5-0.3,1-0.7,1.4c-0.3,0.4-0.8,0.7-1.3,0.8
	c-0.8,0.2-1.6,0.5-2.4,0.9c-0.5,0.2-1.1,0.3-1.7,0.2c-0.6-0.1-1.1-0.4-1.5-0.9l-2-2.2c-0.2-0.3-0.5-0.5-0.8-0.6
	c-0.3-0.1-0.6-0.2-1-0.3c-0.3,0-0.7,0-1,0.1c-0.3,0.1-0.6,0.3-0.9,0.5l-3.5,3c-0.5,0.4-0.8,1.1-0.9,1.7c0,0.7,0.2,1.3,0.6,1.8l2.6,3
	c0.3,0.4,0.6,0.9,0.6,1.4c0.1,0.5,0,1-0.2,1.5c-0.1,0.2-0.2,0.4-0.3,0.7c-0.2,0.5-0.5,0.9-1,1.2c-0.4,0.3-1,0.5-1.5,0.5l-4.3,0.1
	c-0.3,0-0.7,0.1-1,0.2s-0.6,0.3-0.8,0.6c-0.2,0.2-0.4,0.5-0.5,0.8c-0.1,0.3-0.2,0.6-0.2,1l0.1,4.6c0,0.7,0.3,1.3,0.8,1.8
	c0.5,0.5,1.1,0.7,1.8,0.7l3.7-0.1c0.6,0,1.1,0.1,1.6,0.5c0.5,0.3,0.8,0.8,1,1.3v0c0.2,0.5,0.2,1.1,0.1,1.6c-0.1,0.5-0.4,1-0.8,1.4
	l-2.6,2.3c-0.3,0.2-0.5,0.5-0.6,0.8c-0.2,0.3-0.2,0.6-0.3,1c0,0.3,0,0.7,0.1,1c0.1,0.3,0.3,0.6,0.5,0.9l3,3.4
	c0.2,0.3,0.5,0.5,0.8,0.6c0.3,0.1,0.6,0.2,1,0.3c0.3,0,0.7,0,1-0.1c0.3-0.1,0.6-0.3,0.8-0.5l2.6-2.3
	C1016.1,151.6,1016.7,151.4,1017.4,151.4L1017.4,151.4z"/>
<g class="st3">
	<path class="st20" d="M1136.7,208H892.5c-3.5,0-6.3,2.8-6.3,6.3v41.5c0,3.5,2.8,6.3,6.3,6.3h244.2c3.5,0,6.3-2.8,6.3-6.3v-41.5
		C1143,210.9,1140.2,208,1136.7,208z"/>
</g>
<g class="st3">
	<path class="st20" d="M1139.2,278.7h-117.9c-0.2,0-0.5,0-0.7-0.1c-0.2-0.1-0.4-0.2-0.6-0.4c-0.2-0.2-0.3-0.4-0.4-0.6
		c-0.1-0.2-0.1-0.5-0.1-0.7v-1.1c0-0.2,0-0.5,0.1-0.7c0.1-0.2,0.2-0.4,0.4-0.6c0.2-0.2,0.4-0.3,0.6-0.4c0.2-0.1,0.5-0.1,0.7-0.1
		l117.9,1.1c0.5,0,0.9,0.2,1.3,0.5c0.3,0.3,0.5,0.8,0.5,1.3l0,0c0,0.5-0.2,0.9-0.5,1.3C1140.1,278.5,1139.7,278.7,1139.2,278.7
		L1139.2,278.7z"/>
</g>
<path class="st17" d="M1130.3,233h-79.1v-3l79.1,0.7V233z"/>
<path class="st22" d="M1086.6,239.7h-35.3v-3l35.3,0.7V239.7z"/>
<path class="st22" d="M1098,254.3h-46.8v-3l46.8,0.7V254.3z"/>
<path class="st25" d="M1086.6,247.5h-35.3v-3l35.3,0.7V247.5z"/>
<path class="st17" d="M1112.3,247.5h-20.7v-3l20.7,0.7V247.5z"/>
<path class="st22" d="M1126.9,239.7h-35.3v-3l35.3,0.7V239.7z"/>
<g class="st3">
	<path class="st20" d="M1139.3,289.2l-118.2,1.4c-0.2,0-0.4,0-0.7-0.1c-0.2-0.1-0.4-0.2-0.5-0.4c-0.2-0.2-0.3-0.3-0.4-0.5
		c-0.1-0.2-0.1-0.4-0.1-0.6v-1.4c0-0.4,0.2-0.9,0.5-1.2s0.7-0.5,1.2-0.5h118.2c0.4,0,0.9,0.2,1.2,0.5c0.3,0.3,0.5,0.7,0.5,1.2l0,0
		c0,0.4-0.2,0.9-0.5,1.2C1140.2,289,1139.8,289.1,1139.3,289.2L1139.3,289.2z"/>
</g>
<g class="st3">
	<path class="st20" d="M951.8,325.8h-64.7V322l63.6,0.9c0.5,0,1,0.2,1.4,0.6c0.4,0.4,0.6,0.9,0.6,1.4l0,0c0,0.3-0.1,0.5-0.3,0.7
		C952.2,325.7,952,325.8,951.8,325.8z"/>
</g>
<g class="st3">
	<path class="st20" d="M972,335.2l-83.9,1.1c-0.1,0-0.3,0-0.4-0.1c-0.1-0.1-0.2-0.1-0.3-0.2c-0.1-0.1-0.2-0.2-0.2-0.3
		c-0.1-0.1-0.1-0.3-0.1-0.4v-1.7c0-0.3,0.1-0.5,0.3-0.7c0.2-0.2,0.5-0.3,0.7-0.3H972c0.3,0,0.5,0.1,0.7,0.3c0.2,0.2,0.3,0.5,0.3,0.7
		v0.6c0,0.3-0.1,0.5-0.3,0.7C972.5,335.1,972.3,335.2,972,335.2L972,335.2z"/>
</g>
<g class="st3">
	<path class="st20" d="M1038.8,335.3l-58.7,1.1c-0.2,0-0.4,0-0.5-0.1c-0.2-0.1-0.3-0.2-0.4-0.3c-0.1-0.1-0.2-0.3-0.3-0.4
		c-0.1-0.2-0.1-0.3-0.1-0.5v-1.1c0-0.4,0.1-0.7,0.4-1c0.3-0.3,0.6-0.4,1-0.4h58.7c0.4,0,0.7,0.1,0.9,0.4c0.3,0.3,0.4,0.6,0.4,1
		c0,0.4-0.2,0.7-0.4,0.9C1039.5,335.1,1039.2,335.3,1038.8,335.3L1038.8,335.3z"/>
</g>
<g class="st3">
	<path class="st20" d="M1139.3,304.4l-118.2,1.4c-0.2,0-0.4,0-0.7-0.1c-0.2-0.1-0.4-0.2-0.5-0.4c-0.2-0.2-0.3-0.3-0.4-0.5
		c-0.1-0.2-0.1-0.4-0.1-0.6v-1.4c0-0.4,0.2-0.9,0.5-1.2c0.3-0.3,0.7-0.5,1.2-0.5h118.2c0.4,0,0.9,0.2,1.2,0.5
		c0.3,0.3,0.5,0.7,0.5,1.2l0,0c0,0.4-0.2,0.9-0.5,1.2C1140.2,304.2,1139.8,304.4,1139.3,304.4L1139.3,304.4z"/>
</g>
<path class="st20" d="M939.9,269.5h-48.1c-3.1,0-5.6,2.5-5.6,5.6v30.1c0,3.1,2.5,5.6,5.6,5.6h48.1c3.1,0,5.6-2.5,5.6-5.6v-30.1
	C945.4,272,942.9,269.5,939.9,269.5z"/>
<g class="st3">
	<path class="st20" d="M1001.7,269.5h-43.6c-2.6,0-4.7,2.1-4.7,4.7V306c0,2.6,2.1,4.7,4.7,4.7h43.6c2.6,0,4.7-2.1,4.7-4.7v-31.7
		C1006.4,271.6,1004.3,269.5,1001.7,269.5z"/>
</g>
<path class="st22" d="M941.5,333.6c-0.3,17.1-1.6,40.6-5.5,61.2c-6.5,34.3-46.5,57.9-53.9,62c-0.4,0.2-0.8,0.3-1.2,0.3
	c-0.4,0-0.8-0.1-1.2-0.2c-62.6-28.7-61.6-72.4-61.6-72.4v-51.3c0-0.7,0.3-1.4,0.8-1.9c0.5-0.5,1.1-0.8,1.8-0.8
	c9.5-0.2,42.8-1.9,57.3-19c0.2-0.3,0.5-0.5,0.9-0.7c0.3-0.2,0.7-0.2,1-0.3c0.4,0,0.7,0.1,1.1,0.2c0.3,0.1,0.6,0.3,0.9,0.6
	c6.3,6.4,26.7,24,59.5,22.1L941.5,333.6z"/>
<path class="st24" d="M880.8,448.4c0,0-0.1,0-0.1,0c-12.8-5.7-23.6-12.7-32.2-20.6c-6.9-6.4-12.4-13.4-16.3-20.8
	c-6.7-12.7-6.6-22.5-6.6-22.6v-43c0-1.2,0.4-2.3,1.3-3.1s1.9-1.3,3.1-1.4c4.7-0.2,13.9-0.8,23.4-3.2c11.3-2.8,19.6-7.3,24.7-13.2
	c0.2-0.3,0.5-0.5,0.9-0.7c0.3-0.2,0.7-0.3,1.1-0.3c0.4,0,0.7,0.1,1.1,0.2c0.3,0.1,0.7,0.3,0.9,0.6c3.5,3.6,12.8,12.2,24.8,15.7
	c7.4,2.1,15.1,3.3,22.8,3.6c1.1,0,2.2,0.5,3,1.4c0.8,0.8,1.2,1.9,1.2,3.1c-0.5,20-2,36.2-4.4,49.4c-1.4,7.6-4.9,15.2-10.2,22.7
	c-4.3,5.9-9.8,11.8-16.3,17.3c-6.7,5.7-14,10.8-21.8,15C880.9,448.4,880.9,448.4,880.8,448.4L880.8,448.4z M880,320.1L880,320.1
	c-0.4,0-0.6,0.1-0.9,0.2c-0.3,0.1-0.5,0.3-0.7,0.5c-5.2,6.1-13.6,10.6-25,13.4c-9.5,2.4-18.8,3-23.5,3.2c-1,0-2,0.5-2.7,1.2
	c-0.7,0.7-1.1,1.7-1.1,2.7v43c0,0.1-0.1,9.8,6.5,22.4c3.9,7.4,9.4,14.4,16.2,20.7c8.5,7.9,19.3,14.7,31.9,20.4
	c7.7-4.2,14.9-9.2,21.6-14.9c10.2-8.7,23.1-22.6,26.3-39.6c2.5-13.1,3.9-29.3,4.4-49.3c0-1-0.4-2-1-2.7c-0.7-0.7-1.6-1.2-2.6-1.2
	c-7.8-0.3-15.5-1.5-22.9-3.6c-12.1-3.5-21.6-12.2-25.1-15.8c-0.2-0.2-0.4-0.4-0.7-0.5C880.6,320.2,880.3,320.1,880,320.1L880,320.1z
	"/>
<path class="st24" d="M894.3,405.5h-39.6c-1.8,0-3.5-0.7-4.7-1.9c-1.2-1.2-1.9-2.9-1.9-4.7v-24.4c0-1.8,0.7-3.5,1.9-4.7
	c1.2-1.2,2.9-1.9,4.7-1.9h2.2c1-3.9,3.2-7.4,6.4-9.9c3.2-2.5,7.1-3.9,11.2-3.9c4.1,0,8,1.4,11.2,3.9c3.2,2.5,5.4,6,6.4,9.9h2.2
	c1.8,0,3.5,0.7,4.7,1.9c1.2,1.2,1.9,2.9,1.9,4.7v24.4c0,1.8-0.7,3.4-2,4.7C897.7,404.8,896,405.5,894.3,405.5z M854.6,368.4
	c-1.6,0-3.2,0.6-4.3,1.8c-1.1,1.1-1.8,2.7-1.8,4.3v24.4c0,1.6,0.6,3.2,1.8,4.3c1.1,1.1,2.7,1.8,4.3,1.8h39.6c1.6,0,3.2-0.6,4.3-1.8
	s1.8-2.7,1.8-4.3v-24.4c0-1.6-0.6-3.2-1.8-4.3c-1.1-1.1-2.7-1.8-4.3-1.8h-2.5c-0.1,0-0.1,0-0.2-0.1c-0.1,0-0.1-0.1-0.1-0.2
	c-0.9-3.9-3.1-7.3-6.2-9.8c-3.1-2.5-6.9-3.8-10.9-3.8c-4,0-7.8,1.3-10.9,3.8c-3.1,2.5-5.3,5.9-6.2,9.8c0,0.1,0,0.1-0.1,0.2
	c-0.1,0-0.1,0.1-0.2,0.1H854.6z M887.2,368.4h-25.6c0,0-0.1,0-0.1,0c0,0-0.1,0-0.1-0.1c0,0,0-0.1-0.1-0.1c0,0,0-0.1,0-0.1
	c0.9-2.8,2.6-5.2,5-6.9c2.4-1.7,5.2-2.7,8.1-2.7s5.8,0.9,8.1,2.7c2.4,1.7,4.1,4.2,5,6.9c0,0,0,0.1,0,0.1c0,0,0,0.1-0.1,0.1
	c0,0-0.1,0.1-0.1,0.1C887.3,368.4,887.3,368.4,887.2,368.4L887.2,368.4z M862,367.8h24.8c-0.9-2.6-2.6-4.8-4.8-6.4
	c-2.2-1.6-4.9-2.4-7.6-2.4c-2.7,0-5.4,0.9-7.6,2.4C864.6,363,862.9,365.2,862,367.8L862,367.8z"/>
<path class="st24" d="M898.1,364.2h-37.3c-3.8,0-6.8,3.1-6.8,6.8v23.5c0,3.8,3.1,6.8,6.8,6.8h37.3c3.8,0,6.8-3.1,6.8-6.8v-23.5
	C904.9,367.3,901.9,364.2,898.1,364.2z"/>
<path class="st24" d="M879.5,386c-3.5,0-7-1-9.9-3c-2.9-2-5.2-4.7-6.6-8c-1.3-3.3-1.7-6.8-1-10.3c0.7-3.4,2.4-6.6,4.9-9.1
	c2.5-2.5,5.7-4.2,9.1-4.9c3.5-0.7,7-0.3,10.3,1c3.3,1.3,6,3.6,8,6.6c2,2.9,3,6.4,3,9.9c0,4.7-1.9,9.2-5.2,12.6
	C888.7,384.1,884.2,386,879.5,386L879.5,386z M879.5,354.8c-2.7,0-5.2,0.8-7.4,2.3c-2.2,1.5-3.9,3.6-4.9,6c-1,2.4-1.3,5.1-0.8,7.7
	c0.5,2.6,1.8,5,3.7,6.9c1.9,1.9,4.3,3.1,6.9,3.7c2.6,0.5,5.3,0.3,7.7-0.8c2.4-1,4.5-2.7,6-4.9s2.3-4.8,2.3-7.4c0-3.5-1.4-7-3.9-9.5
	C886.4,356.3,883,354.8,879.5,354.8L879.5,354.8z"/>
<path class="st22" d="M879.5,384.3c-0.5,0-1-0.2-1.3-0.5c-0.3-0.3-0.5-0.8-0.5-1.3v-9c0-0.5,0.2-1,0.5-1.3c0.3-0.3,0.8-0.5,1.3-0.5
	l0,0c0.5,0,1,0.2,1.3,0.5c0.3,0.3,0.5,0.8,0.5,1.3v9c0,0.5-0.2,1-0.5,1.3C880.4,384.1,879.9,384.3,879.5,384.3L879.5,384.3z"/>
<path class="st22" d="M879.5,392.4c2.8,0,5-2.2,5-5c0-2.8-2.2-5-5-5c-2.8,0-5,2.2-5,5C874.4,390.2,876.7,392.4,879.5,392.4z"/>
<path class="st24" d="M970.5,257.3c-0.1,0-0.2,0-0.3-0.1l-7.1-3.6c-0.1,0-0.2-0.1-0.2-0.2c-0.1-0.1-0.1-0.2-0.1-0.2
	c0-0.1,0-0.2,0-0.3c0-0.1,0-0.2,0.1-0.3c0-0.1,0.1-0.2,0.2-0.2c0.1-0.1,0.2-0.1,0.2-0.1c0.1,0,0.2,0,0.3,0c0.1,0,0.2,0,0.3,0.1
	l7.1,3.6c0.2,0.1,0.3,0.2,0.4,0.3c0.1,0.1,0.1,0.3,0.1,0.5c0,0.2-0.1,0.3-0.3,0.4C970.8,257.3,970.6,257.3,970.5,257.3L970.5,257.3z
	"/>
<path class="st24" d="M960.3,265.9c-0.2,0-0.4-0.1-0.5-0.2c-0.1-0.1-0.2-0.3-0.2-0.5c0-0.2,0.1-0.4,0.2-0.5c0.1-0.1,0.3-0.2,0.5-0.2
	l7.9-0.5c0.2,0,0.4,0,0.5,0.2c0.1,0.1,0.2,0.3,0.2,0.5c0,0.2,0,0.4-0.2,0.5c-0.1,0.1-0.3,0.2-0.5,0.2L960.3,265.9L960.3,265.9z"/>
<path class="st24" d="M964.8,277.7c-0.2,0-0.3,0-0.4-0.1s-0.2-0.2-0.3-0.4c0-0.2,0-0.3,0-0.5c0.1-0.1,0.2-0.3,0.3-0.3l6.9-4
	c0.1,0,0.2-0.1,0.3-0.1s0.2,0,0.3,0c0.1,0,0.2,0.1,0.2,0.1c0.1,0.1,0.1,0.1,0.2,0.2c0,0.1,0.1,0.2,0.1,0.3c0,0.1,0,0.2,0,0.3
	c0,0.1-0.1,0.2-0.1,0.2c-0.1,0.1-0.1,0.1-0.2,0.2l-6.9,4C965.1,277.7,964.9,277.7,964.8,277.7L964.8,277.7z"/>
<path class="st24" d="M993.6,257.3c-0.1,0-0.3,0-0.4-0.1c-0.1-0.1-0.2-0.2-0.3-0.3c0-0.1-0.1-0.2-0.1-0.3c0-0.1,0-0.2,0-0.3
	c0-0.1,0.1-0.2,0.1-0.2s0.1-0.1,0.2-0.2l7.1-3.6c0.1,0,0.2-0.1,0.3-0.1c0.1,0,0.2,0,0.3,0c0.1,0,0.2,0.1,0.2,0.1s0.1,0.1,0.2,0.2
	c0,0.1,0.1,0.2,0.1,0.3c0,0.1,0,0.2,0,0.3c0,0.1-0.1,0.2-0.1,0.2c-0.1,0.1-0.1,0.1-0.2,0.2l-7.2,3.6
	C993.9,257.3,993.8,257.3,993.6,257.3z"/>
<path class="st24" d="M1003.8,265.9L1003.8,265.9l-8-0.5c-0.2,0-0.4-0.1-0.5-0.2c-0.1-0.1-0.2-0.3-0.2-0.5s0.1-0.4,0.2-0.5
	c0.1-0.1,0.3-0.2,0.5-0.2l7.9,0.5c0.2,0,0.4,0.1,0.5,0.2s0.2,0.3,0.2,0.5c0,0.2-0.1,0.4-0.2,0.5
	C1004.2,265.8,1004,265.9,1003.8,265.9L1003.8,265.9z"/>
<path class="st24" d="M999.3,277.7c-0.1,0-0.2,0-0.3-0.1l-6.9-4c-0.1,0-0.1-0.1-0.2-0.2c-0.1-0.1-0.1-0.2-0.1-0.2c0-0.1,0-0.2,0-0.3
	c0-0.1,0-0.2,0.1-0.3c0-0.1,0.1-0.1,0.2-0.2c0.1-0.1,0.2-0.1,0.2-0.1c0.1,0,0.2,0,0.3,0c0.1,0,0.2,0,0.3,0.1l6.9,4
	c0.1,0.1,0.3,0.2,0.3,0.3c0.1,0.1,0.1,0.3,0,0.5c0,0.2-0.1,0.3-0.3,0.4S999.5,277.7,999.3,277.7L999.3,277.7z"/>
<path class="st17" d="M996.2,261.8c0,9.2-6.1,16.7-13.7,17.1c-0.3,0-0.5,0-0.8,0c-8,0-14.5-7.7-14.5-17.1c0-3.8,1.1-7.5,3.2-10.7
	c2.7-3.9,6.7-6.4,11.3-6.4c1.3,0,2.5,0.2,3.7,0.6c3.1,1,5.8,3.1,7.6,5.9C995.2,254.3,996.3,258,996.2,261.8L996.2,261.8z"/>
<path class="st17" d="M996.2,261.8c0,9.2-6.1,16.7-13.7,17.1c-1-2.8-1.7-5.8-2.1-8.7c-0.9-6.2-0.5-12,0.8-16.8
	c0.9-3.4,2.4-6.2,4.2-8.2c3.1,1,5.8,3.1,7.6,5.9C995.2,254.3,996.3,258,996.2,261.8L996.2,261.8z"/>
<path class="st24" d="M981.8,257.5c6.2,0,11.3-2.9,11.3-6.4c0-3.5-5.1-6.4-11.3-6.4c-6.2,0-11.3,2.9-11.3,6.4
	C970.5,254.6,975.5,257.5,981.8,257.5z"/>
<path class="st24" d="M978.6,246.9c-0.2,0-0.4-0.1-0.5-0.2c-0.1-0.1-0.2-0.3-0.2-0.5c-0.1-5.4-5.1-7.5-5.1-7.6
	c-0.2-0.1-0.3-0.2-0.4-0.4c-0.1-0.2-0.1-0.4,0-0.5c0.1-0.2,0.2-0.3,0.4-0.4c0.2-0.1,0.4-0.1,0.5,0c0.2,0.1,5.8,2.6,6,8.8
	c0,0.1,0,0.2,0,0.3c0,0.1-0.1,0.2-0.1,0.2c-0.1,0.1-0.1,0.1-0.2,0.2C978.8,246.9,978.7,246.9,978.6,246.9L978.6,246.9z"/>
<path class="st24" d="M984.4,248.7c-0.2,0-0.3-0.1-0.5-0.2c-0.1-0.1-0.2-0.3-0.2-0.5c-0.6-7.6,4.6-10.6,4.8-10.7
	c0.2-0.1,0.4-0.1,0.5-0.1c0.2,0.1,0.3,0.2,0.4,0.3c0.1,0.2,0.1,0.4,0.1,0.5c0,0.2-0.2,0.3-0.3,0.4c-0.2,0.1-4.6,2.7-4.1,9.3
	c0,0.1,0,0.2,0,0.3c0,0.1-0.1,0.2-0.1,0.2c-0.1,0.1-0.1,0.1-0.2,0.2C984.7,248.7,984.6,248.7,984.4,248.7L984.4,248.7z"/>
<g class="st26">
	<path class="st22" d="M1024.3,305.5c23-23,23-60.2,0-83.2c-23-23-60.3-23-83.2,0c-23,23-23,60.2,0,83.2
		C964,328.4,1001.3,328.4,1024.3,305.5z"/>
</g>
<path class="st27" d="M1049.6,314c0,0-10.4,0.2-13.3-4.3c-2.9-4.6,2-8.5,2-8.5l15.5,8.4L1049.6,314z"/>
<path class="st24" d="M1033.4,290.2l-4.5,7.3l114.8,71l4.5-7.3L1033.4,290.2z"/>
<path class="st24" d="M1149.3,364.2l-2.5,4c-0.5,0.8-1.2,1.3-2.1,1.5c-0.9,0.2-1.8,0.1-2.5-0.4l-59.9-37.1c-0.8-0.5-1.3-1.2-1.5-2.1
	c-0.2-0.9-0.1-1.8,0.4-2.5l2.5-4c0.5-0.8,1.2-1.3,2.1-1.5c0.9-0.2,1.8-0.1,2.5,0.4l59.9,37.1c0.8,0.5,1.3,1.2,1.5,2.1
	C1149.9,362.6,1149.8,363.5,1149.3,364.2z"/>
<path class="st24" d="M930.3,231.5c-6.4,10.3-9.6,22.4-9.2,34.5c0.4,12.2,4.4,23.9,11.6,33.8c7.1,9.9,17,17.4,28.4,21.7
	c11.4,4.3,23.8,5.1,35.7,2.3s22.6-9,31-17.9c8.3-8.9,13.8-20.1,15.8-32.1c2-12,0.3-24.3-4.7-35.4c-5.1-11.1-13.3-20.4-23.6-26.8
	c-6.9-4.3-14.5-7.1-22.5-8.4c-8-1.3-16.2-1-24,0.8s-15.3,5.2-21.9,10C940.1,218.6,934.5,224.6,930.3,231.5L930.3,231.5z
	 M1030.5,293.5c-5.9,9.4-14.4,16.9-24.5,21.5c-10.1,4.6-21.4,6.1-32.3,4.3c-11-1.8-21.2-6.8-29.3-14.4c-8.1-7.6-13.8-17.4-16.4-28.2
	c-2.5-10.8-1.8-22.1,2.1-32.5c3.9-10.4,10.8-19.4,19.8-25.9c9-6.5,19.8-10.2,30.9-10.5c11.1-0.4,22.1,2.5,31.5,8.4
	c6.3,3.9,11.7,9,16,14.9c4.3,6,7.4,12.8,9.1,19.9c1.7,7.2,1.9,14.6,0.8,21.9C1037,280.2,1034.3,287.2,1030.5,293.5z"/>
<path class="st22" d="M1142.5,327.1c-2.8-20.8-26.1-32.5-26.1-32.5s2,46.4,6,45C1129.2,337.2,1138.6,337.2,1142.5,327.1z"/>
<path class="st24" d="M1096.9,444.1c0,0-0.2,3.5-2.5,4.4c-2.3,0.9-9.1,1.6-6.7,3.9c1.4,1.3,8.2,0.7,10.2,0.7c1.9,0,3.7,1,5.2-0.3
	c1.6-1.4,0.2-8.6,0.2-8.6s-1.7,0.8-3.2,0.8C1098,444.9,1096.9,444.1,1096.9,444.1z"/>
<path class="st28" d="M1080,356.3c0.4,7.2,1.3,16.6,2.9,28.1c3,21.9,6.6,43.9,8.4,54.5c0.3,1.8,1.2,3.5,2.5,4.7
	c1.3,1.2,3.1,2,4.9,2.2l2,0.1c4,0.3,7.3-3.1,7.2-7.3l-3.1-71.3l-0.3-11.3C1104.4,356,1079.3,344.4,1080,356.3z"/>
<path class="st24" d="M1118.9,444.7c0,0-0.2,3.5-2.5,4.4c-2.3,0.9-9.1,1.6-6.7,3.9c1.4,1.3,8.2,0.7,10.2,0.7c1.9,0,3.7,1,5.2-0.3
	c1.6-1.4,0.2-8.6,0.2-8.6s-1.7,0.8-3.2,0.8C1120,445.5,1118.9,444.7,1118.9,444.7z"/>
<path class="st28" d="M1101.7,339c0,0-0.9,15.7,3.3,46c3,21.9,6.6,43.9,8.4,54.5c0.3,1.8,1.2,3.5,2.5,4.7c1.3,1.2,3.1,2,4.9,2.2
	l2,0.1c4,0.3,7.3-3.1,7.1-7.3l-3.1-71.3l-0.6-23.5L1101.7,339z"/>
<path class="st24" d="M1105.9,391.1l-0.3,0c0-0.1,1.7-13,3-17.6c1.3-4.6,7.2-8.7,7.3-8.7l0.2,0.3c0,0-5.9,4-7.2,8.6
	C1107.6,378.1,1105.9,391,1105.9,391.1z"/>
<path class="st27" d="M1106,290.7l-1.5-4.7l-0.4-1.4l-2.7-8l-0.3,8l-0.2,4.8l-0.1,1.5c0,1-0.7,1.2-1.5,2.1c-0.3,0.3-2.4,2.6,0,3.6
	c3,1.2,8.5-0.6,10.7-3.1C1109.8,293.5,1106.5,292.2,1106,290.7z"/>
<path class="st27" d="M1109.1,280.9c0.9-4.7-1.7-9.1-5.8-9.9c-4.1-0.8-8.2,2.4-9.1,7.1c-0.9,4.7,1.7,9.1,5.8,9.9
	C1104.2,288.8,1108.2,285.6,1109.1,280.9z"/>
<path class="st24" d="M1097.5,276.6c-4.3,0.2-6.4-2.2-6.5-4.4c-0.1-2.8,1.8-5.3,4-4.2c2.2,1,1.3-1.5,3.3-1.8
	c3.9-0.5,4.7,2.1,7.9,2.2c4.2,0.2,9,6.8,5.5,11.6C1111.7,280,1100.9,276.4,1097.5,276.6z"/>
<path class="st24" d="M1093.6,273.7c0,0,4.6,4.2,4,6.6s-0.5,3.3,2.3,4.6c2.7,1.3,0.3,3.3,3.9,3.5c3.6,0.2,8-3.9,8-10.5
	c0-2.2-0.8-4.4-2.3-6.1L1093.6,273.7z"/>
<path class="st29" d="M1095.3,280.2c0.2-0.3,0.6-0.6,1-0.7c0.4-0.1,0.8,0,1.2,0.2c0.2,0.1,0.3,0.3,0.4,0.4c0.1,0.2,0.2,0.4,0.2,0.6
	c0,0.2,0,0.4-0.1,0.6c0,0.2-0.2,0.4-0.3,0.5c-0.2,0.3-0.6,0.6-1,0.7c-0.4,0.1-0.8,0-1.2-0.2c-0.2-0.1-0.3-0.3-0.4-0.4
	c-0.1-0.2-0.2-0.4-0.2-0.6c0-0.2,0-0.4,0.1-0.6C1095.1,280.5,1095.2,280.3,1095.3,280.2z"/>
<path class="st24" d="M1113.4,281.9C1113.4,281.9,1113.4,281.8,1113.4,281.9c-0.1,0-0.1-0.1-0.1-0.1c-0.2-0.6-0.6-1.1-1.1-1.4
	c0,0,0,0,0,0c0,0,0,0,0,0c0,0,0,0,0,0s0,0,0,0s0,0,0,0s0,0,0,0c0,0,0,0,0,0c0,0,0,0,0,0c0.6,0.3,1,0.9,1.2,1.5c0,0,0,0,0,0
	C1113.5,281.8,1113.5,281.8,1113.4,281.9C1113.5,281.8,1113.5,281.8,1113.4,281.9C1113.5,281.9,1113.4,281.9,1113.4,281.9
	L1113.4,281.9z"/>
<path class="st24" d="M1112.2,279.9C1112.2,279.9,1112.2,279.9,1112.2,279.9c-0.1,0-0.1-0.1-0.1-0.1c0,0,0,0,0,0c0,0,0,0,0,0
	c0,0,0,0,0,0c0,0,0,0,0,0c0,0,1.2-0.1,1.3-0.9c0,0,0-0.1,0.1-0.1s0.1,0,0.1,0c0,0,0.1,0,0.1,0c0,0,0,0.1,0,0.1
	C1113.6,279.8,1112.3,279.9,1112.2,279.9L1112.2,279.9z"/>
<path class="st24" d="M1095.6,267.8c-0.1,0-0.2,0-0.2,0c-0.3-0.1-0.6-0.2-0.9-0.4c-0.3-0.2-0.6-0.3-0.9-0.4c-0.3-0.1-0.6,0-0.9,0.1
	c0,0,0,0,0,0c0,0,0,0-0.1,0c0,0,0,0,0,0c0,0,0,0,0,0c0,0,0,0,0,0s0,0,0,0c0,0,0,0,0,0s0,0,0,0c0.3-0.1,0.7-0.2,1-0.1
	c0.3,0.1,0.7,0.2,0.9,0.4c0.3,0.2,0.5,0.3,0.8,0.4c0.1,0,0.2,0,0.2,0c0.1,0,0.2,0,0.2-0.1c0.5-0.3,0.6-1.4,0.6-1.4c0,0,0-0.1,0-0.1
	c0,0,0,0,0.1,0c0,0,0,0,0,0c0,0,0,0,0,0c0,0,0,0,0,0c0,0,0,0,0,0c0,0-0.1,1.2-0.7,1.5C1095.9,267.7,1095.8,267.8,1095.6,267.8z"/>
<path class="st24" d="M1105.8,268c-1,0-2-0.4-2.8-1.1c0,0,0,0,0,0s0,0,0,0c0,0,0,0,0,0c0,0,0,0,0,0c0,0,0,0,0,0c0,0,0,0,0,0
	c0,0,0,0,0.1,0c0,0,0,0,0,0c0,0,1.4,1.3,3.1,1c0,0,0.1,0,0.1,0c0,0,0,0,0.1,0.1c0,0,0,0.1,0,0.1c0,0-0.1,0-0.1,0
	C1106.2,268,1106,268,1105.8,268L1105.8,268z"/>
<path class="st24" d="M1096.4,282.6c-0.1,0-0.2,0-0.3,0c0,0,0,0,0,0s0,0,0,0c0,0,0,0,0,0c0,0,0,0,0,0c0,0,0,0,0,0c0,0,0,0,0,0
	c0,0,0,0,0,0c0,0,0,0,0,0c0,0,1,0.3,1.6-1c0,0,0,0,0,0c0,0,0,0,0,0c0,0,0,0,0,0c0,0,0,0,0,0c0,0,0,0,0,0c0,0,0,0,0,0
	C1097.4,282.4,1096.8,282.6,1096.4,282.6z"/>
<path class="st24" d="M1080,356.3c0,0,31.5-1.7,46.4,1.9l0.2-4.3l-21-6.3l-16.9,0.4l-5.2,1.1l-3.7,5.7L1080,356.3z"/>
<path class="st22" d="M1123.7,303.7c0,0-2.8-12.1-19.7-12.1c-29.5,0-21.3,24.4-24,63.3c0,0,19.1-4.2,46.6,1.4c0,0,2.7-21-0.8-38.8
	C1124.9,312.7,1125,307.7,1123.7,303.7z"/>
<path class="st22" d="M1100.6,291.6c0,0-9.5,0.1-16.5,6.9c-7,6.7-16.1,16-18.1,21.4c-2.4,6.6,2,13.2,7.5,13.3
	c5.5,0.1,10.5-3.9,10.5-3.9L1100.6,291.6z"/>
<path class="st24" d="M1127.5,346.8h-0.2c0.8-15.2-1.8-30.8-1.9-31l0.2,0C1125.6,315.9,1128.3,331.5,1127.5,346.8z"/>
<path class="st24" d="M1080.7,331.4l-0.1-0.2c5.6-3.3,12.8-12.1,12.9-12.2l0.2,0.1C1093.6,319.3,1086.3,328.1,1080.7,331.4z"/>
<path class="st22" d="M1042.1,315.7c-0.1,4.3,21.3,20.1,34.1,17.4c13.6-2.8-3.2-17.9-3.2-17.9l-25.1-5.8
	C1047.9,309.5,1042.1,311.4,1042.1,315.7z"/>
<path class="st27" d="M1047.9,309.5c0.1-0.5,0-1-0.2-1.5c-0.2-0.5-0.5-0.9-0.8-1.2c-1.3-1.1-2.6-6.3-3.5-5c-0.8,1.3-0.1,5.4-1.3,5.9
	C1040.8,308,1047.9,309.5,1047.9,309.5z"/>
<path class="st22" d="M1057.3,217.4h-1.3c-0.2,0-0.3,0.1-0.4,0.2c-0.1,0.1-0.2,0.3-0.2,0.4v5.6c0,0.2-0.1,0.3-0.2,0.4
	c-0.1,0.1-0.3,0.2-0.4,0.2h-0.4c-0.2,0-0.3-0.1-0.4-0.2c-0.1-0.1-0.2-0.3-0.2-0.4V218c0-0.2-0.1-0.3-0.2-0.4
	c-0.1-0.1-0.3-0.2-0.4-0.2h-1.2c-0.2,0-0.3-0.1-0.4-0.2c-0.1-0.1-0.2-0.3-0.2-0.4v-0.1c0-0.2,0.1-0.3,0.2-0.4
	c0.1-0.1,0.3-0.2,0.4-0.2h5.4c0.2,0,0.3,0.1,0.4,0.2s0.2,0.3,0.2,0.4v0.1c0,0.2-0.1,0.3-0.2,0.4
	C1057.6,217.3,1057.4,217.4,1057.3,217.4L1057.3,217.4z"/>
<path class="st22" d="M1063.1,220.6h-2c-0.2,0-0.3,0.1-0.4,0.2c-0.1,0.1-0.2,0.3-0.2,0.4v0.9c0,0.2,0.1,0.3,0.2,0.4
	c0.1,0.1,0.3,0.2,0.4,0.2h2.6c0.1,0,0.2,0,0.2,0c0.1,0,0.1,0.1,0.2,0.1c0.1,0.1,0.1,0.1,0.1,0.2c0,0.1,0,0.2,0,0.2v0.1
	c0,0.1,0,0.2,0,0.2s-0.1,0.1-0.1,0.2c-0.1,0.1-0.1,0.1-0.2,0.1c-0.1,0-0.2,0-0.2,0h-4.2c-0.2,0-0.3-0.1-0.4-0.2
	c-0.1-0.1-0.2-0.3-0.2-0.4v-6.9c0-0.2,0.1-0.3,0.2-0.4c0.1-0.1,0.3-0.2,0.4-0.2h4.2c0.2,0,0.3,0.1,0.4,0.2c0.1,0.1,0.2,0.3,0.2,0.4
	v0.1c0,0.2-0.1,0.3-0.2,0.4c-0.1,0.1-0.3,0.2-0.4,0.2h-2.5c-0.2,0-0.3,0.1-0.4,0.2c-0.1,0.1-0.2,0.3-0.2,0.4v0.7
	c0,0.2,0.1,0.3,0.2,0.4c0.1,0.1,0.3,0.2,0.4,0.2h2c0.2,0,0.3,0.1,0.4,0.2s0.2,0.3,0.2,0.4v0.1c0,0.1,0,0.2,0,0.2
	c0,0.1-0.1,0.2-0.1,0.2c-0.1,0.1-0.1,0.1-0.2,0.1C1063.3,220.6,1063.2,220.6,1063.1,220.6L1063.1,220.6z"/>
<path class="st22" d="M1069.6,222c0-0.1,0-0.3-0.1-0.4c-0.1-0.1-0.1-0.2-0.2-0.3c-0.2-0.1-0.3-0.2-0.5-0.3c-0.3-0.1-0.5-0.2-0.8-0.3
	c-0.3-0.1-0.7-0.2-1-0.4c-0.3-0.1-0.6-0.3-0.9-0.5c-0.2-0.2-0.4-0.4-0.6-0.7c-0.2-0.3-0.2-0.6-0.2-0.9c0-0.3,0.1-0.6,0.2-0.9
	c0.2-0.3,0.4-0.5,0.6-0.7c0.3-0.2,0.6-0.4,1-0.5c0.4-0.1,0.8-0.2,1.2-0.2c0.4,0,0.8,0.1,1.2,0.2c0.3,0.1,0.7,0.3,0.9,0.5
	c0.3,0.2,0.5,0.5,0.6,0.8c0,0.1,0.1,0.1,0.1,0.2c0,0.1,0,0.2,0,0.3c0,0.1-0.1,0.2-0.1,0.3c-0.1,0.1-0.1,0.1-0.2,0.2
	c-0.1,0-0.2,0.1-0.3,0.1h-0.5c-0.1,0-0.3,0-0.4-0.1c-0.1-0.1-0.2-0.2-0.2-0.3c0,0,0,0,0,0c-0.1-0.1-0.1-0.3-0.3-0.4
	c-0.1-0.1-0.3-0.2-0.4-0.2c-0.2-0.1-0.4-0.1-0.6-0.1c-0.2,0-0.4,0-0.6,0.1c-0.2,0-0.3,0.1-0.4,0.2c-0.1,0.1-0.2,0.2-0.2,0.3
	c-0.1,0.1-0.1,0.2-0.1,0.4c0,0.1,0,0.3,0.1,0.4c0.1,0.1,0.2,0.2,0.3,0.3c0.4,0.2,0.8,0.4,1.2,0.5c0.4,0.1,0.8,0.3,1.2,0.5
	c0.3,0.1,0.6,0.3,0.8,0.6c0.2,0.2,0.4,0.4,0.5,0.7c0.1,0.3,0.2,0.6,0.2,0.9c0,0.3-0.1,0.7-0.2,1c-0.1,0.3-0.4,0.5-0.6,0.7
	c-0.3,0.2-0.6,0.4-0.9,0.4c-0.4,0.1-0.8,0.2-1.2,0.2c-0.3,0-0.5,0-0.8-0.1c-0.3,0-0.5-0.1-0.8-0.2c-0.3-0.1-0.5-0.2-0.7-0.3
	c-0.2-0.1-0.4-0.3-0.6-0.5c-0.2-0.2-0.3-0.4-0.4-0.7v0c0-0.1,0-0.2,0-0.3c0-0.1,0.1-0.2,0.1-0.3c0.1-0.1,0.1-0.1,0.2-0.2
	c0.1,0,0.2-0.1,0.3-0.1h0.4c0.1,0,0.3,0,0.4,0.1c0.1,0.1,0.2,0.2,0.2,0.3c0,0.1,0,0.1,0.1,0.2c0.1,0.2,0.2,0.3,0.3,0.4
	c0.2,0.1,0.3,0.2,0.5,0.2c0.2,0,0.4,0.1,0.7,0.1c0.2,0,0.4,0,0.6-0.1c0.1,0,0.3-0.1,0.4-0.2c0.1-0.1,0.2-0.2,0.2-0.3
	C1069.6,222.3,1069.6,222.1,1069.6,222L1069.6,222z"/>
<path class="st22" d="M1077.9,217.4h-1.3c-0.2,0-0.3,0.1-0.4,0.2c-0.1,0.1-0.2,0.3-0.2,0.4v5.6c0,0.2-0.1,0.3-0.2,0.4
	c-0.1,0.1-0.3,0.2-0.4,0.2h-0.4c-0.2,0-0.3-0.1-0.4-0.2c-0.1-0.1-0.2-0.3-0.2-0.4V218c0-0.2-0.1-0.3-0.2-0.4
	c-0.1-0.1-0.3-0.2-0.4-0.2h-1.2c-0.2,0-0.3-0.1-0.4-0.2c-0.1-0.1-0.2-0.3-0.2-0.4v-0.1c0-0.1,0-0.2,0-0.2c0-0.1,0.1-0.1,0.1-0.2
	c0.1-0.1,0.1-0.1,0.2-0.1c0.1,0,0.1-0.1,0.2-0.1h5.4c0.2,0,0.3,0.1,0.4,0.2c0.1,0.1,0.2,0.3,0.2,0.4v0.1c0,0.1,0,0.2,0,0.2
	c0,0.1-0.1,0.2-0.1,0.2c-0.1,0.1-0.1,0.1-0.2,0.1C1078.1,217.3,1078,217.4,1077.9,217.4L1077.9,217.4z"/>
<path class="st22" d="M1080.7,224.2h-0.4c-0.2,0-0.3-0.1-0.4-0.2c-0.1-0.1-0.2-0.3-0.2-0.4v-6.9c0-0.2,0.1-0.3,0.2-0.4
	c0.1-0.1,0.3-0.2,0.4-0.2h0.4c0.2,0,0.3,0.1,0.4,0.2c0.1,0.1,0.2,0.3,0.2,0.4v6.9c0,0.2-0.1,0.3-0.2,0.4
	C1081,224.1,1080.9,224.2,1080.7,224.2z"/>
<path class="st22" d="M1088.9,224.2h-0.7c-0.1,0-0.2,0-0.3-0.1s-0.2-0.1-0.2-0.2l-2-3.2c-0.1-0.1-0.2-0.2-0.3-0.3
	c-0.1,0-0.3-0.1-0.4,0c-0.1,0-0.2,0.1-0.3,0.2c-0.1,0.1-0.1,0.2-0.1,0.4v2.5c0,0.2-0.1,0.3-0.2,0.4c-0.1,0.1-0.3,0.2-0.4,0.2h-0.4
	c-0.2,0-0.3-0.1-0.4-0.2c-0.1-0.1-0.2-0.3-0.2-0.4v-6.9c0-0.2,0.1-0.3,0.2-0.4c0.1-0.1,0.3-0.2,0.4-0.2h0.7c0.1,0,0.2,0,0.3,0.1
	c0.1,0.1,0.2,0.1,0.2,0.2l1.9,3.2c0.1,0.1,0.2,0.2,0.3,0.3c0.1,0,0.3,0.1,0.4,0c0.1,0,0.2-0.1,0.3-0.2c0.1-0.1,0.1-0.2,0.1-0.4v-2.6
	c0-0.2,0.1-0.3,0.2-0.4c0.1-0.1,0.3-0.2,0.4-0.2h0.4c0.2,0,0.3,0.1,0.4,0.2c0.1,0.1,0.2,0.3,0.2,0.4v6.9c0,0.2-0.1,0.3-0.2,0.4
	C1089.2,224.1,1089.1,224.2,1088.9,224.2z"/>
<path class="st22" d="M1097.5,222.9c0,0.1,0,0.2,0,0.3c0,0.1-0.1,0.2-0.2,0.2c-0.1,0.1-0.1,0.1-0.2,0.2c-0.2,0.1-0.4,0.3-0.6,0.4
	c-0.3,0.1-0.6,0.2-0.9,0.3c-0.4,0.1-0.8,0.1-1.2,0.1c-0.5,0-1-0.1-1.4-0.3c-0.4-0.2-0.8-0.4-1.1-0.8c-0.3-0.4-0.6-0.8-0.7-1.2
	c-0.2-0.5-0.3-1.1-0.3-1.7v-0.5c0-0.6,0.1-1.1,0.3-1.7c0.1-0.5,0.4-0.9,0.7-1.2c0.3-0.3,0.7-0.6,1.1-0.8c0.5-0.2,0.9-0.3,1.4-0.3
	c0.5,0,0.9,0.1,1.4,0.2c0.4,0.1,0.7,0.3,1,0.6c0.3,0.2,0.5,0.5,0.6,0.9c0,0.1,0.1,0.2,0.1,0.3c0,0.1,0,0.2,0,0.3
	c0,0.1,0,0.2-0.1,0.3c-0.1,0.1-0.1,0.1-0.2,0.2c-0.1,0-0.2,0.1-0.3,0.1h-0.4c-0.1,0-0.3,0-0.4-0.1c-0.1-0.1-0.2-0.2-0.2-0.3
	l-0.1-0.1c-0.1-0.2-0.2-0.3-0.3-0.4c-0.1-0.1-0.3-0.2-0.5-0.3c-0.2-0.1-0.4-0.1-0.6-0.1c-0.3,0-0.5,0-0.7,0.2
	c-0.2,0.1-0.4,0.3-0.6,0.5c-0.3,0.6-0.5,1.3-0.5,1.9v0.5c0,0.7,0.1,1.4,0.5,1.9c0.2,0.2,0.4,0.4,0.6,0.5c0.2,0.1,0.5,0.2,0.8,0.2
	c0.2,0,0.4,0,0.5,0c0.1,0,0.3-0.1,0.4-0.1c0.1,0,0.2-0.1,0.3-0.1c0.1,0,0.1-0.1,0.2-0.1v-0.8c0-0.2-0.1-0.3-0.2-0.4
	c-0.1-0.1-0.3-0.2-0.4-0.2h-0.3c-0.2,0-0.3-0.1-0.4-0.2c-0.1-0.1-0.2-0.3-0.2-0.4l0,0c0-0.2,0.1-0.3,0.2-0.4
	c0.1-0.1,0.3-0.2,0.4-0.2h2c0.1,0,0.2,0,0.2,0c0.1,0,0.2,0.1,0.2,0.1c0,0.1,0.1,0.1,0.1,0.2c0,0.1,0.1,0.2,0.1,0.2L1097.5,222.9z"/>
<path class="st30" d="M782.1,867v14.4h-20.7c2.2-6.7,7.7-11.9,14.7-13.5C778.1,867.4,780.1,867.1,782.1,867z"/>
<linearGradient id="SVGID_3_" gradientUnits="userSpaceOnUse" x1="766.3234" y1="94.4363" x2="795.5684" y2="36.9033" gradientTransform="matrix(1 0 0 -1 0 958)">
	<stop  offset="0" style="stop-color:#09C6F9"/>
	<stop  offset="1" style="stop-color:#045DE9"/>
</linearGradient>
<path class="st31" d="M782.1,867v14.4h-20.7c2.2-6.7,7.7-11.9,14.7-13.5C778.1,867.4,780.1,867.1,782.1,867z"/>
<path class="st30" d="M785.9,867v29.8h21.6c0.8-4.5,0.6-9.2-0.4-13.7c-1.8-7.5-7.6-13.4-15.2-15.2
	C789.9,867.4,787.9,867.1,785.9,867z"/>
<linearGradient id="SVGID_4_" gradientUnits="userSpaceOnUse" x1="779.9232" y1="101.3493" x2="809.1682" y2="43.8163" gradientTransform="matrix(1 0 0 -1 0 958)">
	<stop  offset="0" style="stop-color:#09C6F9"/>
	<stop  offset="1" style="stop-color:#045DE9"/>
</linearGradient>
<path class="st32" d="M785.9,867v29.8h21.6c0.8-4.5,0.6-9.2-0.4-13.7c-1.8-7.5-7.6-13.4-15.2-15.2
	C789.9,867.4,787.9,867.1,785.9,867z"/>
<path class="st30" d="M806.6,900.6h-20.7V915c2-0.1,4-0.4,6-0.9C798.9,912.5,804.4,907.3,806.6,900.6z"/>
<linearGradient id="SVGID_5_" gradientUnits="userSpaceOnUse" x1="772.2521" y1="97.4499" x2="801.4971" y2="39.917" gradientTransform="matrix(1 0 0 -1 0 958)">
	<stop  offset="0" style="stop-color:#09C6F9"/>
	<stop  offset="1" style="stop-color:#045DE9"/>
</linearGradient>
<path class="st33" d="M806.6,900.6h-20.7V915c2-0.1,4-0.4,6-0.9C798.9,912.5,804.4,907.3,806.6,900.6z"/>
<path class="st30" d="M782.1,915v-29.8h-21.6c-0.8,4.5-0.6,9.2,0.4,13.7c1.8,7.5,7.6,13.4,15.2,15.2
	C778.1,914.6,780.1,914.9,782.1,915z"/>
<linearGradient id="SVGID_6_" gradientUnits="userSpaceOnUse" x1="758.6523" y1="90.5369" x2="787.8973" y2="33.004" gradientTransform="matrix(1 0 0 -1 0 958)">
	<stop  offset="0" style="stop-color:#09C6F9"/>
	<stop  offset="1" style="stop-color:#045DE9"/>
</linearGradient>
<path class="st34" d="M782.1,915v-29.8h-21.6c-0.8,4.5-0.6,9.2,0.4,13.7c1.8,7.5,7.6,13.4,15.2,15.2
	C778.1,914.6,780.1,914.9,782.1,915z"/>
<path class="st30" d="M652.8,867.4c-2.4-0.6-4.8-0.6-7.2,0c-3.1,0.7-5.5,3.1-6.2,6.2c-0.6,2.4-0.6,4.8,0,7.2
	c0.7,3.1,3.1,5.5,6.2,6.2c2.4,0.6,4.8,0.6,7.2,0c3.1-0.7,5.5-3.1,6.2-6.2c0.6-2.4,0.6-4.8,0-7.2
	C658.4,870.6,655.9,868.1,652.8,867.4z"/>
<linearGradient id="SVGID_7_" gradientUnits="userSpaceOnUse" x1="642.9152" y1="93.2122" x2="672.1602" y2="35.6792" gradientTransform="matrix(1 0 0 -1 0 958)">
	<stop  offset="0" style="stop-color:#09C6F9"/>
	<stop  offset="1" style="stop-color:#045DE9"/>
</linearGradient>
<path class="st35" d="M652.8,867.4c-2.4-0.6-4.8-0.6-7.2,0c-3.1,0.7-5.5,3.1-6.2,6.2c-0.6,2.4-0.6,4.8,0,7.2
	c0.7,3.1,3.1,5.5,6.2,6.2c2.4,0.6,4.8,0.6,7.2,0c3.1-0.7,5.5-3.1,6.2-6.2c0.6-2.4,0.6-4.8,0-7.2
	C658.4,870.6,655.9,868.1,652.8,867.4z"/>
<path class="st30" d="M652.8,894.9c-2.4-0.6-4.8-0.6-7.2,0c-3.1,0.7-5.5,3.1-6.2,6.2c-0.6,2.4-0.6,4.8,0,7.2
	c0.7,3.1,3.1,5.5,6.2,6.2c2.4,0.6,4.8,0.6,7.2,0c3.1-0.7,5.5-3.1,6.2-6.2c0.6-2.4,0.6-4.8,0-7.2
	C658.4,898.1,655.9,895.6,652.8,894.9z"/>
<linearGradient id="SVGID_8_" gradientUnits="userSpaceOnUse" x1="631.806" y1="87.5652" x2="661.051" y2="30.0322" gradientTransform="matrix(1 0 0 -1 0 958)">
	<stop  offset="0" style="stop-color:#09C6F9"/>
	<stop  offset="1" style="stop-color:#045DE9"/>
</linearGradient>
<path class="st36" d="M652.8,894.9c-2.4-0.6-4.8-0.6-7.2,0c-3.1,0.7-5.5,3.1-6.2,6.2c-0.6,2.4-0.6,4.8,0,7.2
	c0.7,3.1,3.1,5.5,6.2,6.2c2.4,0.6,4.8,0.6,7.2,0c3.1-0.7,5.5-3.1,6.2-6.2c0.6-2.4,0.6-4.8,0-7.2
	C658.4,898.1,655.9,895.6,652.8,894.9z"/>
<path class="st30" d="M680.3,867.4c-2.4-0.6-4.8-0.6-7.2,0c-3.1,0.7-5.5,3.1-6.2,6.2c-0.6,2.4-0.6,4.8,0,7.2
	c0.7,3.1,3.1,5.5,6.2,6.2c2.4,0.6,4.8,0.6,7.2,0c3.1-0.7,5.5-3.1,6.2-6.2c0.6-2.4,0.6-4.8,0-7.2
	C685.9,870.6,683.4,868.1,680.3,867.4z"/>
<linearGradient id="SVGID_9_" gradientUnits="userSpaceOnUse" x1="664.7695" y1="104.321" x2="694.0145" y2="46.7881" gradientTransform="matrix(1 0 0 -1 0 958)">
	<stop  offset="0" style="stop-color:#09C6F9"/>
	<stop  offset="1" style="stop-color:#045DE9"/>
</linearGradient>
<path class="st37" d="M680.3,867.4c-2.4-0.6-4.8-0.6-7.2,0c-3.1,0.7-5.5,3.1-6.2,6.2c-0.6,2.4-0.6,4.8,0,7.2
	c0.7,3.1,3.1,5.5,6.2,6.2c2.4,0.6,4.8,0.6,7.2,0c3.1-0.7,5.5-3.1,6.2-6.2c0.6-2.4,0.6-4.8,0-7.2
	C685.9,870.6,683.4,868.1,680.3,867.4z"/>
<path class="st30" d="M680.3,894.9c-2.4-0.6-4.8-0.6-7.2,0c-3.1,0.7-5.5,3.1-6.2,6.2c-0.6,2.4-0.6,4.8,0,7.2
	c0.7,3.1,3.1,5.5,6.2,6.2c2.4,0.6,4.8,0.6,7.2,0c3.1-0.7,5.5-3.1,6.2-6.2c0.6-2.4,0.6-4.8,0-7.2
	C685.9,898.1,683.4,895.6,680.3,894.9z"/>
<linearGradient id="SVGID_10_" gradientUnits="userSpaceOnUse" x1="653.6603" y1="98.674" x2="682.9053" y2="41.1411" gradientTransform="matrix(1 0 0 -1 0 958)">
	<stop  offset="0" style="stop-color:#09C6F9"/>
	<stop  offset="1" style="stop-color:#045DE9"/>
</linearGradient>
<path class="st38" d="M680.3,894.9c-2.4-0.6-4.8-0.6-7.2,0c-3.1,0.7-5.5,3.1-6.2,6.2c-0.6,2.4-0.6,4.8,0,7.2
	c0.7,3.1,3.1,5.5,6.2,6.2c2.4,0.6,4.8,0.6,7.2,0c3.1-0.7,5.5-3.1,6.2-6.2c0.6-2.4,0.6-4.8,0-7.2
	C685.9,898.1,683.4,895.6,680.3,894.9z"/>
<path class="st39" d="M550.9,905.5l-1.4,0.3v1.9c0,3.2-2,5.9-4.8,6.9v5c0,1.3-1.1,2.4-2.4,2.4c-1.3,0-2.4-1.1-2.4-2.4v-5
	c-2.8-1-4.8-3.7-4.8-6.9v-1.7c-0.2,0-0.4-0.1-0.6-0.1l-1.4-0.3c-6.9-1.5-12.4-6.9-14.1-13.9c-1.3-5.1-1.3-10.5,0-15.6
	c1.7-7,7.2-12.3,14.1-13.9l1.4-0.3c4.9-1.1,10.1-1.1,15,0l1.4,0.3c6.9,1.5,12.4,6.9,14.1,13.9c1.3,5.1,1.3,10.5,0,15.6
	C563.3,898.6,557.8,904,550.9,905.5z M544.7,906.5c-0.3,0-0.6,0-0.8,0.1c-1.3,0.1-2.6,0.1-4,0v1.1c0,1.3,1.1,2.4,2.4,2.4
	c1.3,0,2.4-1.1,2.4-2.4V906.5z M544.8,874.1c0.8,0.7,1,1.9,0.3,2.7l-3.9,5h5.6c0.7,0,1.4,0.4,1.7,1.1c0.3,0.7,0.2,1.5-0.2,2.1
	l-6.4,8.1c-0.7,0.8-1.9,1-2.7,0.3c-0.8-0.7-1-1.9-0.3-2.7l3.9-5h-5.6c-0.7,0-1.4-0.4-1.7-1.1c-0.3-0.7-0.2-1.5,0.2-2.1l6.4-8.1
	C542.8,873.6,544,873.4,544.8,874.1z"/>
<linearGradient id="SVGID_11_" gradientUnits="userSpaceOnUse" x1="524.4096" y1="101.4226" x2="566.3456" y2="36.5056" gradientTransform="matrix(1 0 0 -1 0 958)">
	<stop  offset="0" style="stop-color:#09C6F9"/>
	<stop  offset="1" style="stop-color:#045DE9"/>
</linearGradient>
<path class="st40" d="M550.9,905.5l-1.4,0.3v1.9c0,3.2-2,5.9-4.8,6.9v5c0,1.3-1.1,2.4-2.4,2.4c-1.3,0-2.4-1.1-2.4-2.4v-5
	c-2.8-1-4.8-3.7-4.8-6.9v-1.7c-0.2,0-0.4-0.1-0.6-0.1l-1.4-0.3c-6.9-1.5-12.4-6.9-14.1-13.9c-1.3-5.1-1.3-10.5,0-15.6
	c1.7-7,7.2-12.3,14.1-13.9l1.4-0.3c4.9-1.1,10.1-1.1,15,0l1.4,0.3c6.9,1.5,12.4,6.9,14.1,13.9c1.3,5.1,1.3,10.5,0,15.6
	C563.3,898.6,557.8,904,550.9,905.5z M544.7,906.5c-0.3,0-0.6,0-0.8,0.1c-1.3,0.1-2.6,0.1-4,0v1.1c0,1.3,1.1,2.4,2.4,2.4
	c1.3,0,2.4-1.1,2.4-2.4V906.5z M544.8,874.1c0.8,0.7,1,1.9,0.3,2.7l-3.9,5h5.6c0.7,0,1.4,0.4,1.7,1.1c0.3,0.7,0.2,1.5-0.2,2.1
	l-6.4,8.1c-0.7,0.8-1.9,1-2.7,0.3c-0.8-0.7-1-1.9-0.3-2.7l3.9-5h-5.6c-0.7,0-1.4-0.4-1.7-1.1c-0.3-0.7-0.2-1.5,0.2-2.1l6.4-8.1
	C542.8,873.6,544,873.4,544.8,874.1z"/>
<path class="st39" d="M776.1,769.9c5.2-1.2,10.6-1.2,15.8,0c7.5,1.8,13.4,7.6,15.2,15.2c1.2,5.2,1.2,10.6,0,15.8
	c-1.8,7.5-7.6,13.4-15.2,15.2c-5.2,1.2-10.6,1.2-15.8,0c-7.5-1.8-13.4-7.6-15.2-15.2c-1.2-5.2-1.2-10.6,0-15.8
	C762.7,777.6,768.6,771.7,776.1,769.9z M788,787.7c0.8-0.3,1.7,0.5,1.3,1.3l-2.1,5.2c-0.4,0.9-1.1,1.6-2,2l-5.2,2.1
	c-0.8,0.3-1.7-0.5-1.3-1.3l2.1-5.2c0.4-0.9,1.1-1.6,2-2L788,787.7z M792.1,790.2c1.3-3.3-2-6.6-5.3-5.3l-5.2,2.1
	c-1.7,0.7-3,2-3.7,3.7l-2.1,5.2c-1.3,3.3,2,6.6,5.3,5.3l5.2-2.1c1.7-0.7,3-2,3.7-3.7L792.1,790.2z"/>
<linearGradient id="SVGID_12_" gradientUnits="userSpaceOnUse" x1="769.2877" y1="193.9431" x2="798.5327" y2="136.4101" gradientTransform="matrix(1 0 0 -1 0 958)">
	<stop  offset="0" style="stop-color:#09C6F9"/>
	<stop  offset="1" style="stop-color:#045DE9"/>
</linearGradient>
<path class="st41" d="M776.1,769.9c5.2-1.2,10.6-1.2,15.8,0c7.5,1.8,13.4,7.6,15.2,15.2c1.2,5.2,1.2,10.6,0,15.8
	c-1.8,7.5-7.6,13.4-15.2,15.2c-5.2,1.2-10.6,1.2-15.8,0c-7.5-1.8-13.4-7.6-15.2-15.2c-1.2-5.2-1.2-10.6,0-15.8
	C762.7,777.6,768.6,771.7,776.1,769.9z M788,787.7c0.8-0.3,1.7,0.5,1.3,1.3l-2.1,5.2c-0.4,0.9-1.1,1.6-2,2l-5.2,2.1
	c-0.8,0.3-1.7-0.5-1.3-1.3l2.1-5.2c0.4-0.9,1.1-1.6,2-2L788,787.7z M792.1,790.2c1.3-3.3-2-6.6-5.3-5.3l-5.2,2.1
	c-1.7,0.7-3,2-3.7,3.7l-2.1,5.2c-1.3,3.3,2,6.6,5.3,5.3l5.2-2.1c1.7-0.7,3-2,3.7-3.7L792.1,790.2z"/>
<path class="st39" d="M652.1,771c5,0,9.3,2.9,11.5,7c2.6-1.2,5.6-1.8,8.7-1.8c11.4,0,20.7,8.9,20.7,19.9c0,11-9.3,19.9-20.7,19.9
	h-24.2c-8.3,0-15.1-6.5-15.1-14.6c0-5.3,2.9-9.8,7.2-12.4c-0.6-1.5-1-3.2-1-5C639.2,776.9,644.9,771,652.1,771z M643.4,784.1
	c0-5,4-9,8.8-9c3.4,0,6.4,2,7.8,5c-2.6,1.9-4.8,4.3-6.2,7.2c-0.1,0.2-0.2,0.4-0.3,0.6c-0.2-0.1-0.4-0.1-0.6-0.2
	c-1.5-0.5-3.1-0.7-4.8-0.7c-1.4,0-2.8,0.2-4.1,0.5C643.6,786.4,643.4,785.2,643.4,784.1z"/>
<linearGradient id="SVGID_13_" gradientUnits="userSpaceOnUse" x1="650.0458" y1="193.7067" x2="672.6389" y2="134.4457" gradientTransform="matrix(1 0 0 -1 0 958)">
	<stop  offset="0" style="stop-color:#09C6F9"/>
	<stop  offset="1" style="stop-color:#045DE9"/>
</linearGradient>
<path class="st42" d="M652.1,771c5,0,9.3,2.9,11.5,7c2.6-1.2,5.6-1.8,8.7-1.8c11.4,0,20.7,8.9,20.7,19.9c0,11-9.3,19.9-20.7,19.9
	h-24.2c-8.3,0-15.1-6.5-15.1-14.6c0-5.3,2.9-9.8,7.2-12.4c-0.6-1.5-1-3.2-1-5C639.2,776.9,644.9,771,652.1,771z M643.4,784.1
	c0-5,4-9,8.8-9c3.4,0,6.4,2,7.8,5c-2.6,1.9-4.8,4.3-6.2,7.2c-0.1,0.2-0.2,0.4-0.3,0.6c-0.2-0.1-0.4-0.1-0.6-0.2
	c-1.5-0.5-3.1-0.7-4.8-0.7c-1.4,0-2.8,0.2-4.1,0.5C643.6,786.4,643.4,785.2,643.4,784.1z"/>
<path class="st39" d="M531.1,771c5,0,9.3,2.9,11.5,7c2.6-1.2,5.6-1.8,8.7-1.8c11.4,0,20.7,8.9,20.7,19.9c0,11-9.3,19.9-20.7,19.9
	h-24.2c-8.3,0-15.1-6.5-15.1-14.6c0-5.3,2.9-9.8,7.2-12.4c-0.6-1.5-1-3.2-1-5C518.2,776.9,523.9,771,531.1,771z M522.4,784.1
	c0-5,4-9,8.8-9c3.4,0,6.4,2,7.8,5c-2.6,1.9-4.8,4.3-6.2,7.2c-0.1,0.2-0.2,0.4-0.3,0.6c-0.2-0.1-0.4-0.1-0.6-0.2
	c-1.5-0.5-3.1-0.7-4.8-0.7c-1.4,0-2.8,0.2-4.1,0.5C522.6,786.4,522.4,785.2,522.4,784.1z"/>
<linearGradient id="SVGID_14_" gradientUnits="userSpaceOnUse" x1="529.0458" y1="193.7067" x2="551.6389" y2="134.4457" gradientTransform="matrix(1 0 0 -1 0 958)">
	<stop  offset="0" style="stop-color:#09C6F9"/>
	<stop  offset="1" style="stop-color:#045DE9"/>
</linearGradient>
<path class="st43" d="M531.1,771c5,0,9.3,2.9,11.5,7c2.6-1.2,5.6-1.8,8.7-1.8c11.4,0,20.7,8.9,20.7,19.9c0,11-9.3,19.9-20.7,19.9
	h-24.2c-8.3,0-15.1-6.5-15.1-14.6c0-5.3,2.9-9.8,7.2-12.4c-0.6-1.5-1-3.2-1-5C518.2,776.9,523.9,771,531.1,771z M522.4,784.1
	c0-5,4-9,8.8-9c3.4,0,6.4,2,7.8,5c-2.6,1.9-4.8,4.3-6.2,7.2c-0.1,0.2-0.2,0.4-0.3,0.6c-0.2-0.1-0.4-0.1-0.6-0.2
	c-1.5-0.5-3.1-0.7-4.8-0.7c-1.4,0-2.8,0.2-4.1,0.5C522.6,786.4,522.4,785.2,522.4,784.1z"/>
<circle class="st30" cx="367" cy="859" r="16"/>
<linearGradient id="SVGID_15_" gradientUnits="userSpaceOnUse" x1="357.1916" y1="118.2954" x2="376.6886" y2="79.9404" gradientTransform="matrix(1 0 0 -1 0 958)">
	<stop  offset="0" style="stop-color:#09C6F9"/>
	<stop  offset="1" style="stop-color:#045DE9"/>
</linearGradient>
<circle class="st44" cx="367" cy="859" r="16"/>
<path class="st4" d="M362.2,863v-3l-2.8-5.4h1.7l1.9,3.9l1.8-3.9h1.7l-2.8,5.4v3H362.2z M369.5,863v-7.2H367v-1.2h6.4v1.2H371v7.2
	H369.5z"/>
<circle class="st30" cx="407" cy="859" r="16"/>
<linearGradient id="SVGID_16_" gradientUnits="userSpaceOnUse" x1="397.1916" y1="118.2954" x2="416.6886" y2="79.9404" gradientTransform="matrix(1 0 0 -1 0 958)">
	<stop  offset="0" style="stop-color:#09C6F9"/>
	<stop  offset="1" style="stop-color:#045DE9"/>
</linearGradient>
<circle class="st45" cx="407" cy="859" r="16"/>
<path class="st4" d="M402.9,863v-8.4h1.5v7.2h3.7v1.2H402.9z M409.5,863v-8.4h1.5v8.4H409.5z"/>
<circle class="st30" cx="327" cy="859" r="16"/>
<linearGradient id="SVGID_17_" gradientUnits="userSpaceOnUse" x1="317.1916" y1="118.2954" x2="336.6886" y2="79.9404" gradientTransform="matrix(1 0 0 -1 0 958)">
	<stop  offset="0" style="stop-color:#09C6F9"/>
	<stop  offset="1" style="stop-color:#045DE9"/>
</linearGradient>
<circle class="st46" cx="327" cy="859" r="16"/>
<path class="st4" d="M320.8,863v-8.4h1.5v8.4H320.8z M327.7,863.1c-0.8,0-1.5-0.2-2.1-0.5c-0.6-0.4-1.1-0.9-1.4-1.5
	c-0.3-0.6-0.5-1.4-0.5-2.3c0-0.9,0.2-1.6,0.5-2.3c0.3-0.7,0.8-1.2,1.5-1.5c0.6-0.4,1.4-0.6,2.2-0.6c1,0,1.8,0.2,2.4,0.7
	c0.6,0.5,1.1,1.1,1.3,2h-1.7c-0.1-0.4-0.4-0.7-0.7-0.9c-0.3-0.2-0.8-0.3-1.3-0.3c-0.8,0-1.5,0.3-1.9,0.8c-0.5,0.5-0.7,1.3-0.7,2.2
	c0,0.9,0.2,1.6,0.7,2.2c0.5,0.5,1.1,0.8,1.8,0.8c0.8,0,1.3-0.2,1.7-0.6c0.4-0.4,0.6-1,0.7-1.6h-2.1v-1.2h3.7v4.6h-1.4l-0.1-1.1
	c-0.3,0.4-0.6,0.7-1,0.9C328.8,863,328.3,863.1,327.7,863.1z"/>
<circle class="st30" cx="287" cy="859" r="16"/>
<linearGradient id="SVGID_18_" gradientUnits="userSpaceOnUse" x1="277.1916" y1="118.2954" x2="296.6886" y2="79.9404" gradientTransform="matrix(1 0 0 -1 0 958)">
	<stop  offset="0" style="stop-color:#09C6F9"/>
	<stop  offset="1" style="stop-color:#045DE9"/>
</linearGradient>
<circle class="st47" cx="287" cy="859" r="16"/>
<path class="st4" d="M279.8,863v-8.4h5.4v1.2h-3.9v2.4h3.1v1.2h-3.1v3.6H279.8z M286.4,863v-8.4h3.4c0.9,0,1.5,0.2,2,0.6
	c0.5,0.4,0.7,0.9,0.7,1.5c0,0.5-0.1,1-0.4,1.3c-0.3,0.3-0.6,0.5-1,0.6c0.5,0.1,0.9,0.3,1.2,0.7c0.3,0.4,0.5,0.8,0.5,1.3
	c0,0.7-0.2,1.2-0.7,1.6s-1.2,0.6-2,0.6H286.4z M288,858.1h1.6c0.4,0,0.8-0.1,1-0.3s0.3-0.5,0.3-0.9c0-0.4-0.1-0.6-0.3-0.8
	c-0.2-0.2-0.6-0.3-1-0.3H288V858.1z M288,861.8h1.7c0.5,0,0.8-0.1,1.1-0.3c0.3-0.2,0.4-0.5,0.4-0.9c0-0.4-0.1-0.7-0.4-0.9
	c-0.3-0.2-0.6-0.3-1.1-0.3H288V861.8z"/>
</svg>
