<svg id="Layer_1" data-name="Layer 1" xmlns="http://www.w3.org/2000/svg" viewBox="0 0 542.99 362.17"><defs><style>.cls-1{fill:#657285;}.cls-2{fill:#b8c1c9;}.cls-3{fill:#eaeaea;}.cls-4{opacity:0.6;}.cls-5{fill:#d5d6da;}.cls-6{fill:#fff;}.cls-7{opacity:0.5;}.cls-8{fill:#00a3fe;}.cls-9{fill:#016eb9;}.cls-10{fill:#131f2d;}.cls-11{fill:#5c305d;}.cls-12{opacity:0.4;}.cls-13{fill:#ff7955;}.cls-14{fill:#364154;}.cls-15{fill:#ffb27d;}</style></defs><title>bug-monitor</title><path class="cls-1" d="M511.1,238.07c-14.87,19.7-39.87,31.4-66,31.4-42.44,0-80.18-32.4-80.18-74.79,0-35,19.13-60.05,45.46-71.6a84.67,84.67,0,0,1,22.72-6.33,90.93,90.93,0,0,1,12-.8,78.07,78.07,0,0,1,29.9,6c28.09,11.61,48.53,39,50,70.81A68.89,68.89,0,0,1,511.1,238.07Z" transform="translate(-28 -107.04)"/><path class="cls-2" d="M400.91,199.45s3,6.93,0,10.73-3.26,11,2.73,15.77,8.56,5.16,7.2,9.92-2.78,10.56-.54,13,3.16,8.25,8.16,8.68-.4-4,2.86-8.06,15.91-4.89,14.69-12.94,10.41-8.76,12-14.06-5.3-8.56-11.12-8.15-2.25-8.67-8.57-10-9.29-6.42-13-5.81-7.75-4.59-11.94-3S400.91,199.45,400.91,199.45Z" transform="translate(-28 -107.04)"/><path class="cls-2" d="M390.3,144a17.09,17.09,0,0,0-5.56,8.83c-1.21,5.43-7.35,8.83-8.3,16.32s3.37,7.68,1.84,11.76.37,6.11,5,8.15,5.07,5.17,7.82,6.2,2,3.79,3,4.09.51-2.08,1.47-5.21,1.76-4.42-1.7-4.28-2.39-2.65-1-4.41-1.9-2-3-1.77-.81,5.3-3.06,2.92-3.33-5.1-1.5-8.22,5.78-.54,8.58-4.28,6.73-2.24,6.95.75,5.78,3,6.73-.89.55-10.8,6.26-11.92,17-6.83,9.8-9.17-4.29-7.24-8-6.95-2.24,5.81-6.33,4.17-7-6-1.32-7.24,8.06-7.54,3.67-7.13-5.1-3.87-7.75-3.36-5.41,6.94-8.16,8.56S390.3,144,390.3,144Z" transform="translate(-28 -107.04)"/><path class="cls-2" d="M427.1,131.44s5.65-1.57,8.1,0,6.26,6,3.06,7.61-6.54,2.17-5,5.23-4.49,4.08-6.19,0-1.7-5.56-3.47-7.48S422.61,130.83,427.1,131.44Z" transform="translate(-28 -107.04)"/><path class="cls-2" d="M511.1,238.07c-23.35-6.12-4-15.72-12.17-26.77-4.66-6.29,3.64-13.87-1.67-14.91-3.08-.61-10.17,7.25-14.25,0s-11.39-7.3-13.52-2.91-11.08,7.43-17,4.25S450,190.3,444.93,187s-5.46-8.64,0-12.73,3-10,11.16-8.19,6.65-17,6.65-17c-.13-3.31,3.07-3.87,1.25-7s-7-.57-9.68-7.39,4.33-10.92,10-10.26c1.66.2,5.69-1,10.69-2.48,28.1,11.61,48.54,39,50,70.81A69,69,0,0,1,511.1,238.07Z" transform="translate(-28 -107.04)"/><path class="cls-2" d="M402.58,183.85s4.71-2.62,7.21-.53,3.59,3.47,7.28,2.68,6.21.7,3.83,1.79-8,3-10.56.71S400.4,184.77,402.58,183.85Z" transform="translate(-28 -107.04)"/><path class="cls-2" d="M421.55,192.32s3.34.59,4.12-.78-.78-.06-2.06-.77S419.88,190.77,421.55,192.32Z" transform="translate(-28 -107.04)"/><path class="cls-3" d="M301.15,469.21c145.32,0,263.13-11.84,263.13-26.45S446.47,416.3,301.15,416.3,38,428.14,38,442.76,155.83,469.21,301.15,469.21Z" transform="translate(-28 -107.04)"/><g class="cls-4"><path class="cls-5" d="M432.2,319.54c30.1-30.74,72.34-67,90.72-50.76,22.15,19.62-31.64,44.3-72.09,69.58C436.32,347.43,413,339.13,432.2,319.54Z" transform="translate(-28 -107.04)"/></g><path class="cls-2" d="M395,332.32s153.65-59.4,173.93-11.92S454,334.55,410,353.4Z" transform="translate(-28 -107.04)"/><path class="cls-6" d="M403.31,344.18c30.13-13.58,67.3-17.88,93.18-19.1a395.79,395.79,0,0,1,49.43.63l.12-1.31a396.76,396.76,0,0,0-49.61-.64c-26,1.22-63.34,5.56-93.67,19.22Z" transform="translate(-28 -107.04)"/><path class="cls-5" d="M500.58,430.11c-19.28-8.62-35,18.57-50.56,0-13.12-15.73-13.38-18.2-22.33-17.66a32.67,32.67,0,0,0-9,1.88c-3.47,1.24-9.33,2.5-14.83-.22-33.59-16.64-41.93-90.45,6.94-91.88,3.53-.11,7.3,1.62,11.31,3.7C444,337.27,443.45,350.74,475.86,339s29,36.73,43,45.22,28.54,13,28.54,34.46S519.86,438.74,500.58,430.11Z" transform="translate(-28 -107.04)"/><g class="cls-7"><path class="cls-6" d="M396.77,361.14v-1.39c.61,0,62.24,3.25,150,64.6l-.8,1.14C458.6,364.37,397.4,361.17,396.77,361.14Z" transform="translate(-28 -107.04)"/><path class="cls-6" d="M474.94,367.29c-3.85-18.59.12-28.18.3-28.58l1.27.54c0,.09-4,9.64-.21,27.76Z" transform="translate(-28 -107.04)"/><path class="cls-6" d="M468,380.8c1-8,7.22-15.87,18.14-22.81a93,93,0,0,1,16.23-8.14l.47,1.3c-.31.11-31.32,11.47-33.5,29.81Z" transform="translate(-28 -107.04)"/><path class="cls-6" d="M492.17,395.53c-.52-2.13-.7-3.4-.72-3.48l1.39-.19c0,.27,4.07,27.09,27.36,43.13l-.79,1.14C500.63,423.22,494.11,403.46,492.17,395.53Z" transform="translate(-28 -107.04)"/><path class="cls-6" d="M484.32,429.61a32.77,32.77,0,0,1,4.34-20.6,24.48,24.48,0,0,1,5.75-6.66l.81,1.14c-.11.08-11.24,8.37-9.53,26Z" transform="translate(-28 -107.04)"/></g><path class="cls-3" d="M136.53,120.25s4.87-9.35,17.18-8.18,10.84,10.54,16.69,9.66,14.06,0,15.82,5.86,9.67,2.64,10,7.61-9.08,8.5-19.93,4.1-16.11,3.42-31.35,2-17.13-3.17-26.15-2.29-8.8-5.29-4.7-9.38S134.77,125.91,136.53,120.25Z" transform="translate(-28 -107.04)"/><g class="cls-4"><path class="cls-3" d="M198.24,151a9,9,0,0,1,8.94-4.26c6.4.61,5.64,5.49,8.69,5s7.3,0,8.23,3.05,5,1.39,5.19,4-4.73,4.42-10.37,2.14-8.39,1.77-16.32,1-8.92-1.65-13.61-1.2-4.59-2.75-2.43-4.88S197.33,154,198.24,151Z" transform="translate(-28 -107.04)"/></g><path class="cls-5" d="M124.08,182.4c-2.81,3.29-4.7,3.37-6,2.27s-1.49-3,1.32-6.25c5.13-6,9.94-6.88,9.94-6.88S129.28,176.33,124.08,182.4Z" transform="translate(-28 -107.04)"/><path class="cls-5" d="M133,209c-1.6,4-3.36,4.7-4.93,4.08s-2.38-2.33-.78-6.35c2.91-7.31,7.18-9.72,7.18-9.72S136,201.53,133,209Z" transform="translate(-28 -107.04)"/><path class="cls-5" d="M155.17,278.45l-.8.2c0-.12-3.18-12.43-13.25-28.57-9.3-14.9-26.55-36.2-56-53.14l.41-.69c29.58,17,46.94,38.44,56.27,53.42C152,265.93,155.17,278.33,155.17,278.45Z" transform="translate(-28 -107.04)"/><path class="cls-5" d="M116.86,219.62l-.8-.19c7-28.88-12-54.46-12.23-54.72l.65-.49C104.68,164.47,124,190.36,116.86,219.62Z" transform="translate(-28 -107.04)"/><path class="cls-5" d="M100.87,211.1a29,29,0,0,1-15.26.8l.21-.79c.09,0,9.45,2.43,18.23-2.29l.39.72a23.11,23.11,0,0,1-3.57,1.56Z" transform="translate(-28 -107.04)"/><path class="cls-5" d="M147.86,261.46c-16.53,3.67-32.1.35-46.26-9.84a11.21,11.21,0,0,0-1.07-.73h.09v-.82c.24,0,.44.14,1.47.88,14,10.07,29.31,13.32,45.6,9.72Z" transform="translate(-28 -107.04)"/><path class="cls-5" d="M122.48,260.88l-.81.05c-.75-11.08-12.66-23.65-12.78-23.78l.6-.57a67.71,67.71,0,0,1,6.19,7.82C118.57,248.61,122.09,254.92,122.48,260.88Z" transform="translate(-28 -107.04)"/><path class="cls-5" d="M83.16,192.82c5.37,2.28,6.43,4.23,5.77,5.79s-2.79,2.14-8.18-.14c-9.78-4.17-13.31-9-13.31-9S73.23,188.61,83.16,192.82Z" transform="translate(-28 -107.04)"/><path class="cls-5" d="M86.83,208.67c5.81.56,7.4,2.08,7.24,3.78s-2,2.89-7.83,2.33c-10.59-1-15.41-4.56-15.41-4.56S76.09,207.63,86.83,208.67Z" transform="translate(-28 -107.04)"/><path class="cls-5" d="M110.34,233.84c3.13,3,3.11,4.86,1.94,6.1s-3.06,1.32-6.18-1.66c-5.7-5.45-6.33-10.3-6.33-10.3S104.56,228.31,110.34,233.84Z" transform="translate(-28 -107.04)"/><path class="cls-5" d="M104.54,196c2.3,3.65,1.82,5.47.39,6.38s-3.29.54-5.59-3.13c-4.2-6.67-3.63-11.52-3.63-11.52S100.27,189.27,104.54,196Z" transform="translate(-28 -107.04)"/><path class="cls-5" d="M131.32,253.26c1.19,4.16.22,5.77-1.41,6.25s-3.31-.4-4.49-4.56c-2.16-7.57-.25-12.08-.25-12.08S129.14,245.57,131.32,253.26Z" transform="translate(-28 -107.04)"/><path class="cls-5" d="M104.86,249.73c3.69,2.25,4.08,4.09,3.2,5.54s-2.7,2-6.4-.3c-6.73-4.1-8.39-8.68-8.39-8.68S98,245.57,104.86,249.73Z" transform="translate(-28 -107.04)"/><path class="cls-5" d="M105,160.52c3.13,4.92,2.91,7.12,1.48,8s-3.52.19-6.66-4.73c-5.71-9-5.88-14.94-5.88-14.94S99.24,151.43,105,160.52Z" transform="translate(-28 -107.04)"/><path class="cls-5" d="M218.1,385.34S134.7,248,98.26,272.06s76.28,79.62,99.29,120.36Z" transform="translate(-28 -107.04)"/><path class="cls-3" d="M179.29,360.85s-96-101.7-128.92-72.75S133.26,341,160,371.53Z" transform="translate(-28 -107.04)"/><path class="cls-6" d="M168.57,366.92c-18.12-21.44-45-38.33-64.41-48.72A338,338,0,0,0,66,300.6l.39-1a336,336,0,0,1,38.25,17.66c19.47,10.44,46.51,27.41,64.74,49Z" transform="translate(-28 -107.04)"/><path class="cls-2" d="M64.58,400.33c21.61,4.2,18.72,36.79,43.1,30.24s22.31-8.09,34.32,2.3c0,0,4.81,10.18,14.61,11.68,38.59,5.93,90-52,49.19-82.45-3-2.19-7.18-3-11.86-3.61-25.41-3.41-33.06,8.37-53.64-21s-46.76,13.92-63.78,12.78-32.09-5.91-44.94,12.34S43,396.16,64.58,400.33Z" transform="translate(-28 -107.04)"/><path class="cls-6" d="M194.4,403.69l.78-1.21c-.53-.35-55-34.48-166.57-34.73v1.44C139.78,369.44,193.87,403.35,194.4,403.69Z" transform="translate(-28 -107.04)"/><path class="cls-6" d="M124.11,362.15c14.43-13.55,16.79-24.09,16.89-24.53l-1.42-.31c0,.11-2.4,10.59-16.46,23.78Z" transform="translate(-28 -107.04)"/><path class="cls-6" d="M121.89,377.79c4-7.36,3.37-17.84-1.77-30.29a96.07,96.07,0,0,0-9-16.67l-1.18.83c.2.28,19.82,28.52,10.67,45.45Z" transform="translate(-28 -107.04)"/><path class="cls-6" d="M92.49,375.9c1.72-1.5,2.65-2.47,2.69-2.51l-1-1C94,372.59,74.47,393,45,392.77v1.44C68.67,394.43,86.08,381.5,92.49,375.9Z" transform="translate(-28 -107.04)"/><path class="cls-6" d="M78.74,409.64c6.56-7.65,8.32-15.16,8.64-20.13a25.54,25.54,0,0,0-.91-9.12l-1.37.48c0,.13,4.55,13.85-7.46,27.82Z" transform="translate(-28 -107.04)"/><path class="cls-8" d="M353.4,403.93V359.55H263.75v44.38c0,11.54-7.69,20.89-17.17,20.89H243v5.73H374.16v-5.73h-3.61C361.07,424.82,353.4,415.47,353.4,403.93Z" transform="translate(-28 -107.04)"/><path class="cls-9" d="M373.4,430.55H243.71a2.86,2.86,0,0,1-2.87-2.87h0a2.87,2.87,0,0,1,2.87-2.86H373.4a2.87,2.87,0,0,1,2.87,2.86h0A2.86,2.86,0,0,1,373.4,430.55Z" transform="translate(-28 -107.04)"/><path class="cls-9" d="M461.24,386.8l-303.1-3.48a11.83,11.83,0,0,1-11.74-11.83V186.7a11.83,11.83,0,0,1,11.66-11.83l299.2-4.58a11.83,11.83,0,0,1,12,11.59l3.91,192.84a11.8,11.8,0,0,1-7.35,11.19,12,12,0,0,1-4.63.89Z" transform="translate(-28 -107.04)"/><path class="cls-3" d="M451,188.9H164.53a6.36,6.36,0,0,0-6.36,6.35V343.8a6.35,6.35,0,0,0,6.35,6.35H451a6.35,6.35,0,0,0,6.35-6.35V195.25A6.37,6.37,0,0,0,451,188.9Z" transform="translate(-28 -107.04)"/><path class="cls-8" d="M339,138.51l3.76-.1a2.69,2.69,0,0,0,1-.22,2.6,2.6,0,0,0,1.37-1.45,2.63,2.63,0,0,0,.17-1l-.12-4.58a2.62,2.62,0,0,0-.81-1.82,2.71,2.71,0,0,0-1.87-.72l-2.66.08a2.64,2.64,0,0,1-2.55-1.79c-.07-.21-.14-.41-.22-.62a2.58,2.58,0,0,1,.74-2.84l1.82-1.59a2.61,2.61,0,0,0,.26-3.67h0l-3-3.44a2.77,2.77,0,0,0-.81-.63,2.64,2.64,0,0,0-1-.26,2.57,2.57,0,0,0-1.88.64l-1.79,1.59a2.58,2.58,0,0,1-2.91.35l-.59-.3a2.62,2.62,0,0,1-1.43-2.76l.42-2.63a2.53,2.53,0,0,0-2.16-2.94l-4.52-.73a2.61,2.61,0,0,0-3,2.15h0l-.6,3.72a2.59,2.59,0,0,1-.63,1.31,2.56,2.56,0,0,1-1.24.77,19.09,19.09,0,0,0-2.43.89,2.71,2.71,0,0,1-1.64.18,2.64,2.64,0,0,1-1.42-.83l-2-2.26a2.58,2.58,0,0,0-.81-.62,2.86,2.86,0,0,0-1-.27,2.6,2.6,0,0,0-1,.13,2.78,2.78,0,0,0-.88.51l-3.45,3a2.6,2.6,0,0,0-.24,3.67h0l2.62,3a2.62,2.62,0,0,1,.63,1.32,2.57,2.57,0,0,1-.19,1.45c-.1.23-.19.45-.28.68a2.58,2.58,0,0,1-2.35,1.63l-4.26.11a2.62,2.62,0,0,0-1.82.81,2.59,2.59,0,0,0-.71,1.87l.12,4.57a2.61,2.61,0,0,0,2.67,2.54l3.66-.1a2.72,2.72,0,0,1,1.54.45,2.63,2.63,0,0,1,1,1.26h0a2.61,2.61,0,0,1,.08,1.54,2.54,2.54,0,0,1-.81,1.31l-2.58,2.26a2.58,2.58,0,0,0-.62.81,2.48,2.48,0,0,0-.27,1,2.57,2.57,0,0,0,.64,1.88l3,3.45a2.63,2.63,0,0,0,2.8.75,2.55,2.55,0,0,0,.89-.51l2.58-2.26a2.75,2.75,0,0,1,1.41-.63,2.6,2.6,0,0,1,1.52.29h0a2.62,2.62,0,0,1,1.37,2.72l-.58,3.6a2.8,2.8,0,0,0,0,1,2.65,2.65,0,0,0,.42.92,2.48,2.48,0,0,0,.75.69,2.8,2.8,0,0,0,1,.36l4.52.72a2.6,2.6,0,0,0,2-.46,2.63,2.63,0,0,0,1-1.7l.67-4.19a2.58,2.58,0,0,1,1.93-2.11l.69-.19a2.59,2.59,0,0,1,1.46,0,2.65,2.65,0,0,1,1.23.79l2.63,3a3,3,0,0,0,.8.62,2.64,2.64,0,0,0,1,.26,2.6,2.6,0,0,0,1-.13,2.78,2.78,0,0,0,.88-.51l3.45-3a2.43,2.43,0,0,0,.62-.8,2.48,2.48,0,0,0,.27-1,2.43,2.43,0,0,0-.14-1,2.75,2.75,0,0,0-.5-.88l-2-2.24a2.56,2.56,0,0,1-.63-1.51,2.59,2.59,0,0,1,.39-1.6,18.17,18.17,0,0,0,1.19-2.27,2.57,2.57,0,0,1,1-1.14,2.72,2.72,0,0,1,1.41-.44Zm-12.44,2.14c-4,3.5-12.19,2.51-15.7-1.49s-2.1-10.77,1.9-14.24,10.84-1.63,14.34,2.37,3.47,9.85-.54,13.36Z" transform="translate(-28 -107.04)"/><path class="cls-10" d="M319.51,161.92a3.09,3.09,0,0,1-.43,0l-4.52-.73a2.62,2.62,0,0,1-1-.36,2.9,2.9,0,0,1-.77-.71,2.49,2.49,0,0,1-.44-1,2.65,2.65,0,0,1,0-1.05l.58-3.6a2.45,2.45,0,0,0-.23-1.53,2.59,2.59,0,0,0-1.09-1.11h0a2.5,2.5,0,0,0-2.84.35l-2.58,2.25a2.69,2.69,0,0,1-.91.53,2.6,2.6,0,0,1-1,.13,2.67,2.67,0,0,1-1.83-.91l-3-3.45a2.49,2.49,0,0,1-.53-.9,2.82,2.82,0,0,1-.14-1,2.67,2.67,0,0,1,.28-1,2.47,2.47,0,0,1,.64-.83l2.58-2.26A2.55,2.55,0,0,0,303,142h0a2.52,2.52,0,0,0-2.44-1.66l-3.65.1a2.7,2.7,0,0,1-1.92-.74,2.67,2.67,0,0,1-.84-1.87l-.12-4.58a2.7,2.7,0,0,1,2.62-2.76l4.25-.11a2.41,2.41,0,0,0,1.37-.45,2.52,2.52,0,0,0,.91-1.13c.09-.23.18-.45.28-.67a2.52,2.52,0,0,0,.18-1.41,2.45,2.45,0,0,0-.6-1.28l-2.63-3a2.68,2.68,0,0,1-.66-2,2.72,2.72,0,0,1,.91-1.84l3.45-3a2.68,2.68,0,0,1,3.78.24h0L309.7,118a2.6,2.6,0,0,0,1.38.81,2.56,2.56,0,0,0,1.59-.18,19.09,19.09,0,0,1,2.43-.89,2.57,2.57,0,0,0,1.82-2l.6-3.72a2.68,2.68,0,0,1,1.08-1.75,2.74,2.74,0,0,1,2-.47l4.52.72a2.76,2.76,0,0,1,1.75,1.08,2.7,2.7,0,0,1,.48,2l-.43,2.62a2.51,2.51,0,0,0,.25,1.57,2.55,2.55,0,0,0,1.14,1.11l.59.29a2.49,2.49,0,0,0,1.47.27,2.56,2.56,0,0,0,1.36-.61l1.82-1.59a2.69,2.69,0,0,1,3.79.25l3,3.44a3,3,0,0,1,.53.91,2.6,2.6,0,0,1,.13,1,2.67,2.67,0,0,1-.91,1.83l-1.82,1.59a2.5,2.5,0,0,0-.72,2.76c.08.21.15.42.22.62a2.66,2.66,0,0,0,2.52,1.74l2.67-.07a2.69,2.69,0,0,1,1.92.73,2.72,2.72,0,0,1,.83,1.88l.13,4.58a2.69,2.69,0,0,1-2.61,2.75l-3.77.11a2.51,2.51,0,0,0-1.35.43,2.54,2.54,0,0,0-.91,1.09,20,20,0,0,1-1.2,2.29,2.56,2.56,0,0,0,.23,3l2,2.23a2.76,2.76,0,0,1,.52.91,2.82,2.82,0,0,1,.14,1,2.91,2.91,0,0,1-.27,1,2.75,2.75,0,0,1-.64.83l-3.47,3a2.57,2.57,0,0,1-.91.52,2.62,2.62,0,0,1-2-.14,2.47,2.47,0,0,1-.83-.64l-2.63-3a2.53,2.53,0,0,0-2.61-.76l-.69.19a2.54,2.54,0,0,0-1.87,2l-.67,4.19a2.68,2.68,0,0,1-2.67,2.25Zm-9.11-10.56a2.68,2.68,0,0,1,1.24.31h0a2.71,2.71,0,0,1,1.39,2.8l-.58,3.6a2.54,2.54,0,0,0,2.08,2.9l4.52.73a2.56,2.56,0,0,0,1.88-.45,2.48,2.48,0,0,0,1-1.64l.68-4.19a2.69,2.69,0,0,1,.66-1.39,2.64,2.64,0,0,1,1.32-.79l.7-.19a2.7,2.7,0,0,1,2.78.83l2.63,3a2.55,2.55,0,0,0,.78.6,2.63,2.63,0,0,0,1,.25,2.42,2.42,0,0,0,1-.12,2.56,2.56,0,0,0,.86-.5l3.45-3a2.53,2.53,0,0,0,.24-3.57h0l-2-2.23a2.68,2.68,0,0,1-.25-3.21,17.38,17.38,0,0,0,1.19-2.26,2.71,2.71,0,0,1,2.4-1.63l3.76-.1a2.53,2.53,0,0,0,1.77-.79,2.5,2.5,0,0,0,.69-1.8l-.12-4.58a2.53,2.53,0,0,0-.79-1.77,2.5,2.5,0,0,0-1.8-.69l-2.67.07a2.66,2.66,0,0,1-2.62-1.83c-.07-.21-.14-.42-.22-.62a2.66,2.66,0,0,1-.07-1.58,2.58,2.58,0,0,1,.83-1.35l1.82-1.59a2.53,2.53,0,0,0,.73-2.72,2.42,2.42,0,0,0-.49-.85l-3-3.45a2.53,2.53,0,0,0-1.74-.85,2.5,2.5,0,0,0-1.83.62l-1.82,1.59a2.69,2.69,0,0,1-1.45.64,2.63,2.63,0,0,1-1.56-.28c-.19-.1-.38-.2-.58-.29a2.69,2.69,0,0,1-1.48-2.84l.43-2.63a2.54,2.54,0,0,0-2.09-2.9l-4.52-.73a2.55,2.55,0,0,0-2.9,2.08l-.6,3.72a2.69,2.69,0,0,1-1.93,2.16,18.77,18.77,0,0,0-2.41.88,2.7,2.7,0,0,1-1.68.19,2.76,2.76,0,0,1-1.47-.86l-1.95-2.23a2.55,2.55,0,0,0-.78-.6,2.49,2.49,0,0,0-1.93-.13,2.53,2.53,0,0,0-.86.49l-3.45,3a2.55,2.55,0,0,0-.24,3.57l2.63,3a2.7,2.7,0,0,1,.42,2.85c-.09.22-.19.44-.28.67a2.6,2.6,0,0,1-1,1.2,2.66,2.66,0,0,1-1.47.48l-4.26.11a2.43,2.43,0,0,0-1,.22,2.7,2.7,0,0,0-.81.57,2.56,2.56,0,0,0-.69,1.83l.12,4.58a2.57,2.57,0,0,0,.79,1.77,2.54,2.54,0,0,0,1.81.69l3.79-.12a2.61,2.61,0,0,1,1.58.46,2.69,2.69,0,0,1,1,1.3h0a2.69,2.69,0,0,1-.75,2.94l-2.61,2.3a2.67,2.67,0,0,0-.6.78,2.46,2.46,0,0,0-.25,1,2.42,2.42,0,0,0,.12,1,2.61,2.61,0,0,0,.5.85l3,3.45a2.55,2.55,0,0,0,.78.6,2.64,2.64,0,0,0,1,.26,2.49,2.49,0,0,0,1.85-.63l2.58-2.25a2.7,2.7,0,0,1,1.82-.67Z" transform="translate(-28 -107.04)"/><g class="cls-4"><path class="cls-5" d="M429.68,208H185.49a6.32,6.32,0,0,0-6.32,6.32h0v41.48a6.32,6.32,0,0,0,6.32,6.32H429.68a6.32,6.32,0,0,0,6.32-6.32h0V214.34a6.32,6.32,0,0,0-6.31-6.33Z" transform="translate(-28 -107.04)"/></g><g class="cls-4"><path class="cls-5" d="M432.16,278.65H314.25a1.86,1.86,0,0,1-.7-.14,1.79,1.79,0,0,1-.59-.39,1.87,1.87,0,0,1-.54-1.3v-1.07a1.85,1.85,0,0,1,.54-1.3,1.83,1.83,0,0,1,.6-.39,1.73,1.73,0,0,1,.71-.14L432.18,275a1.83,1.83,0,0,1,1.81,1.82h0A1.83,1.83,0,0,1,432.16,278.65Z" transform="translate(-28 -107.04)"/></g><path class="cls-1" d="M423.34,233H344.22v-3l79.12.7Z" transform="translate(-28 -107.04)"/><path class="cls-8" d="M379.56,239.7H344.22v-3l35.34.71Z" transform="translate(-28 -107.04)"/><path class="cls-8" d="M391,254.29H344.22v-3L391,252Z" transform="translate(-28 -107.04)"/><path class="cls-11" d="M379.56,247.53H344.22v-3l35.34.71Z" transform="translate(-28 -107.04)"/><path class="cls-1" d="M405.33,247.53H384.62v-3l20.71.71Z" transform="translate(-28 -107.04)"/><path class="cls-8" d="M420,239.7H384.62v-3l35.33.71Z" transform="translate(-28 -107.04)"/><g class="cls-4"><path class="cls-5" d="M432.34,289.15l-118.22,1.39a1.82,1.82,0,0,1-.65-.12,1.69,1.69,0,0,1-1-1.55v-1.39a1.67,1.67,0,0,1,1.67-1.67H432.32a1.67,1.67,0,0,1,1.67,1.67h0a1.65,1.65,0,0,1-.48,1.17,1.63,1.63,0,0,1-1.17.5Z" transform="translate(-28 -107.04)"/></g><g class="cls-4"><path class="cls-5" d="M244.76,325.84h-64.7V322l63.64.87a2,2,0,0,1,2,2h0a1,1,0,0,1-.28.67A.92.92,0,0,1,244.76,325.84Z" transform="translate(-28 -107.04)"/></g><g class="cls-4"><path class="cls-5" d="M265,335.24l-83.86,1.12a1,1,0,0,1-.41-.08,1,1,0,0,1-.34-.22,1,1,0,0,1-.23-.34,1.1,1.1,0,0,1-.08-.4v-1.71a1,1,0,0,1,1-1h83.86a1.06,1.06,0,0,1,1,1v.59a1.06,1.06,0,0,1-.3.73,1.08,1.08,0,0,1-.72.31Z" transform="translate(-28 -107.04)"/></g><g class="cls-4"><path class="cls-5" d="M331.8,335.25l-58.67,1.1a1.3,1.3,0,0,1-.52-.1,1.2,1.2,0,0,1-.45-.29,1.23,1.23,0,0,1-.3-.44,1.3,1.3,0,0,1-.1-.52v-1.09a1.34,1.34,0,0,1,1.31-1.35H331.8a1.37,1.37,0,0,1,1,.39,1.35,1.35,0,0,1,0,1.9h0a1.33,1.33,0,0,1-1,.39Z" transform="translate(-28 -107.04)"/></g><g class="cls-4"><path class="cls-5" d="M432.34,304.35l-118.22,1.39a1.82,1.82,0,0,1-.65-.12,1.51,1.51,0,0,1-.54-.36,1.66,1.66,0,0,1-.5-1.19v-1.39A1.66,1.66,0,0,1,314.1,301H432.32a1.66,1.66,0,0,1,1.67,1.66h0a1.69,1.69,0,0,1-.48,1.18A1.66,1.66,0,0,1,432.34,304.35Z" transform="translate(-28 -107.04)"/></g><path class="cls-5" d="M232.87,269.52H184.74a5.56,5.56,0,0,0-5.57,5.55h0v30.07a5.56,5.56,0,0,0,5.56,5.56h48.14a5.56,5.56,0,0,0,5.56-5.56V275.08A5.56,5.56,0,0,0,232.87,269.52Z" transform="translate(-28 -107.04)"/><g class="cls-4"><path class="cls-5" d="M294.68,269.52H251.12a4.73,4.73,0,0,0-4.73,4.73V306a4.73,4.73,0,0,0,4.73,4.73h43.56A4.73,4.73,0,0,0,299.4,306V274.25A4.73,4.73,0,0,0,294.68,269.52Z" transform="translate(-28 -107.04)"/></g><path class="cls-8" d="M234.51,333.59c-.32,17.14-1.56,40.62-5.46,61.2-6.5,34.34-46.51,57.9-53.89,62a2.61,2.61,0,0,1-2.37.09c-62.59-28.72-61.61-72.36-61.61-72.36V333.25a2.66,2.66,0,0,1,2.6-2.64c9.53-.16,42.76-2,57.29-19a2.64,2.64,0,0,1,.86-.66,2.74,2.74,0,0,1,1-.25,2.59,2.59,0,0,1,1.06.19,2.47,2.47,0,0,1,.9.59,77.36,77.36,0,0,0,59.46,22.11Z" transform="translate(-28 -107.04)"/><path class="cls-10" d="M173.83,448.43h-.12c-12.76-5.75-23.59-12.68-32.21-20.62A78.16,78.16,0,0,1,125.16,407c-6.72-12.72-6.58-22.51-6.58-22.61v-43a4.49,4.49,0,0,1,4.36-4.52,116.69,116.69,0,0,0,23.38-3.15c11.26-2.84,19.56-7.3,24.69-13.25a2.71,2.71,0,0,1,.87-.67,2.59,2.59,0,0,1,1.06-.26,2.65,2.65,0,0,1,1.08.19,2.36,2.36,0,0,1,.91.61c3.48,3.57,12.83,12.25,24.8,15.67a100.31,100.31,0,0,0,22.83,3.58,4.36,4.36,0,0,1,4.19,4.46c-.5,20-2,36.18-4.45,49.35A57.34,57.34,0,0,1,212.08,416a98.88,98.88,0,0,1-16.32,17.33,131.73,131.73,0,0,1-21.79,15,.33.33,0,0,1-.14,0ZM173,320.11H173a2,2,0,0,0-.84.21,2,2,0,0,0-.69.52c-5.19,6-13.59,10.57-25,13.43a117.27,117.27,0,0,1-23.51,3.17,3.93,3.93,0,0,0-3.8,3.93v43c0,.1-.14,9.77,6.53,22.37a77.22,77.22,0,0,0,16.21,20.66c8.54,7.86,19.27,14.74,31.91,20.44A131.78,131.78,0,0,0,195.4,433c10.24-8.69,23.12-22.62,26.34-39.65,2.49-13.15,3.94-29.26,4.44-49.26a3.81,3.81,0,0,0-3.65-3.88,100.63,100.63,0,0,1-22.94-3.6c-12.11-3.48-21.56-12.22-25.06-15.82a2,2,0,0,0-.68-.47,2.1,2.1,0,0,0-.82-.16Z" transform="translate(-28 -107.04)"/><path class="cls-10" d="M187.25,405.52H147.64a6.66,6.66,0,0,1-6.65-6.64V374.47a6.7,6.7,0,0,1,2-4.7,6.62,6.62,0,0,1,4.7-2h2.23a18.09,18.09,0,0,1,35.15,0h2.23a6.67,6.67,0,0,1,6.65,6.65v24.41a6.58,6.58,0,0,1-2,4.69A6.7,6.7,0,0,1,187.25,405.52Zm-39.61-37.13a6.06,6.06,0,0,0-4.29,1.78,6.14,6.14,0,0,0-1.79,4.3v24.41a6.09,6.09,0,0,0,6.08,6.07h39.61a6.19,6.19,0,0,0,4.3-1.78,6.06,6.06,0,0,0,1.78-4.29V374.47a6.08,6.08,0,0,0-6.08-6.08h-2.46a.3.3,0,0,1-.18-.06.34.34,0,0,1-.1-.16,17.52,17.52,0,0,0-34.13,0,.27.27,0,0,1-.1.16.3.3,0,0,1-.18.06Zm32.6,0H154.52a.39.39,0,0,1-.1-.08v-.12a.33.33,0,0,1,0-.14,13.69,13.69,0,0,1,26.13,0,.29.29,0,0,1,0,.13.21.21,0,0,1-.05.13.39.39,0,0,1-.1.08h-.16Zm-25.2-.57h24.81a13.12,13.12,0,0,0-24.8,0Z" transform="translate(-28 -107.04)"/><path class="cls-10" d="M191.11,364.24H153.79a6.82,6.82,0,0,0-6.82,6.82h0v23.49a6.82,6.82,0,0,0,6.82,6.82h37.32a6.82,6.82,0,0,0,6.82-6.82h0V371.06A6.84,6.84,0,0,0,191.11,364.24Z" transform="translate(-28 -107.04)"/><path class="cls-10" d="M172.45,386A17.82,17.82,0,1,1,185,380.79,17.82,17.82,0,0,1,172.45,386Zm0-31.17a13.42,13.42,0,1,0,9.47,3.93A13.42,13.42,0,0,0,172.45,354.84Z" transform="translate(-28 -107.04)"/><path class="cls-8" d="M172.45,384.26a1.86,1.86,0,0,1-1.31-.55,1.9,1.9,0,0,1-.55-1.31v-9a1.9,1.9,0,0,1,.55-1.31,1.85,1.85,0,0,1,1.31-.54h0a1.84,1.84,0,0,1,1.85,1.83v9a1.85,1.85,0,0,1-.54,1.31A1.9,1.9,0,0,1,172.45,384.26Z" transform="translate(-28 -107.04)"/><path class="cls-8" d="M172.45,392.41a5,5,0,1,0-5-5A5,5,0,0,0,172.45,392.41Z" transform="translate(-28 -107.04)"/><path class="cls-10" d="M263.45,257.29a.67.67,0,0,1-.31-.07L256,253.66a.92.92,0,0,1-.22-.17.72.72,0,0,1-.14-.24.66.66,0,0,1,0-.28.59.59,0,0,1,.07-.26.62.62,0,0,1,.17-.22.58.58,0,0,1,.24-.14.66.66,0,0,1,.28,0,.79.79,0,0,1,.26.08l7.15,3.56a.68.68,0,0,1,.43.81.7.7,0,0,1-.75.53Z" transform="translate(-28 -107.04)"/><path class="cls-10" d="M253.31,265.85a.66.66,0,0,1-.5-.19.71.71,0,0,1-.23-.49.78.78,0,0,1,.19-.51.68.68,0,0,1,.5-.22l7.92-.54a.76.76,0,0,1,.52.17.71.71,0,0,1-.42,1.24l-7.93.54Z" transform="translate(-28 -107.04)"/><path class="cls-10" d="M257.8,277.72a.72.72,0,0,1-.45-.13.67.67,0,0,1-.26-.39.61.61,0,0,1,0-.46.66.66,0,0,1,.32-.34l6.9-4a.62.62,0,0,1,.26-.09.61.61,0,0,1,.27,0,1.15,1.15,0,0,1,.25.12.91.91,0,0,1,.18.21.75.75,0,0,1,.08.53,1.15,1.15,0,0,1-.12.25.91.91,0,0,1-.21.18l-6.89,4a.69.69,0,0,1-.37.1Z" transform="translate(-28 -107.04)"/><path class="cls-10" d="M286.64,257.29a.61.61,0,0,1-.37-.1.73.73,0,0,1-.26-.29.79.79,0,0,1-.08-.26.66.66,0,0,1,0-.28.58.58,0,0,1,.14-.24.62.62,0,0,1,.22-.17l7.14-3.55a.64.64,0,0,1,.27-.07.62.62,0,0,1,.27,0,.72.72,0,0,1,.24.14.62.62,0,0,1,.17.22.59.59,0,0,1,.07.26.61.61,0,0,1,0,.27.72.72,0,0,1-.14.24.62.62,0,0,1-.22.17l-7.15,3.55A.64.64,0,0,1,286.64,257.29Z" transform="translate(-28 -107.04)"/><path class="cls-10" d="M296.78,265.85h0l-7.93-.54a.68.68,0,0,1-.48-.24.7.7,0,0,1,.06-1h0a.68.68,0,0,1,.51-.18l7.93.54a.74.74,0,0,1,.49.22.69.69,0,0,1,.19.51.64.64,0,0,1-.22.49.69.69,0,0,1-.51.19Z" transform="translate(-28 -107.04)"/><path class="cls-10" d="M292.3,277.72a.74.74,0,0,1-.35-.1l-6.89-4.05a.91.91,0,0,1-.21-.18,1.15,1.15,0,0,1-.12-.25.75.75,0,0,1,.08-.53.91.91,0,0,1,.18-.21,1.15,1.15,0,0,1,.25-.12.61.61,0,0,1,.27,0,.62.62,0,0,1,.26.09l6.89,4a.73.73,0,0,1,.32.33.64.64,0,0,1,0,.47.67.67,0,0,1-.26.38.66.66,0,0,1-.45.13Z" transform="translate(-28 -107.04)"/><path class="cls-1" d="M289.24,261.81c0,9.17-6.09,16.67-13.74,17.12h-.75c-8,0-14.49-7.67-14.49-17.14a19.14,19.14,0,0,1,3.19-10.73,13.75,13.75,0,0,1,11.3-6.42,12.15,12.15,0,0,1,3.69.57,14.48,14.48,0,0,1,7.61,5.85,19.14,19.14,0,0,1,3.19,10.73Z" transform="translate(-28 -107.04)"/><path class="cls-1" d="M289.24,261.81c0,9.17-6.09,16.67-13.74,17.12a45.8,45.8,0,0,1-2.1-8.72,41.19,41.19,0,0,1,.84-16.76,20.51,20.51,0,0,1,4.21-8.22,14.48,14.48,0,0,1,7.61,5.85,19.14,19.14,0,0,1,3.19,10.73Z" transform="translate(-28 -107.04)"/><path class="cls-10" d="M274.75,257.51c6.24,0,11.3-2.88,11.3-6.42s-5.06-6.42-11.3-6.42-11.3,2.87-11.3,6.42S268.51,257.51,274.75,257.51Z" transform="translate(-28 -107.04)"/><path class="cls-10" d="M271.58,246.89a.67.67,0,0,1-.69-.67v0c-.14-5.37-5.09-7.54-5.14-7.56a.72.72,0,0,1-.38-.93.76.76,0,0,1,.39-.38.72.72,0,0,1,.54,0c.24.11,5.85,2.57,6,8.83a.66.66,0,0,1,0,.28.51.51,0,0,1-.15.23.63.63,0,0,1-.23.16.63.63,0,0,1-.27.06Z" transform="translate(-28 -107.04)"/><path class="cls-10" d="M277.4,248.71a.71.71,0,0,1-.48-.19.67.67,0,0,1-.22-.46c-.6-7.56,4.57-10.56,4.78-10.68a.68.68,0,0,1,.54-.07.72.72,0,0,1,.43.33.73.73,0,0,1,.06.54.75.75,0,0,1-.33.43c-.19.11-4.59,2.71-4.07,9.34a.61.61,0,0,1,0,.27.7.7,0,0,1-.13.24.72.72,0,0,1-.22.17.61.61,0,0,1-.26.08Z" transform="translate(-28 -107.04)"/><g class="cls-12"><path class="cls-8" d="M317.29,305.47a58.76,58.76,0,1,0-.15.15Z" transform="translate(-28 -107.04)"/></g><path class="cls-13" d="M342.58,314s-10.4.23-13.25-4.32,2-8.52,2-8.52l15.48,8.36Z" transform="translate(-28 -107.04)"/><path class="cls-10" d="M326.4,290.19l-4.53,7.3,114.82,71,4.53-7.3Z" transform="translate(-28 -107.04)"/><path class="cls-10" d="M442.3,364.24l-2.46,4a3.37,3.37,0,0,1-4.63,1.09l-59.9-37.06a3.37,3.37,0,0,1-1.09-4.63l2.46-4a3.37,3.37,0,0,1,4.63-1.09l59.9,37.06a3.36,3.36,0,0,1,1.09,4.62Z" transform="translate(-28 -107.04)"/><path class="cls-10" d="M223.28,231.48a61.58,61.58,0,1,0,16.4-17.56A61.57,61.57,0,0,0,223.28,231.48Zm100.18,62A56.09,56.09,0,1,1,331.15,273a56.08,56.08,0,0,1-7.69,20.52Z" transform="translate(-28 -107.04)"/><path class="cls-8" d="M435.53,327.13c-2.78-20.8-26.13-32.55-26.13-32.55s2,46.36,6,45C422.2,337.23,431.56,337.18,435.53,327.13Z" transform="translate(-28 -107.04)"/><path class="cls-10" d="M389.9,444s-.18,3.48-2.53,4.41-9.11,1.62-6.65,3.93c1.41,1.32,8.24.69,10.16.73s3.7.95,5.17-.31.23-8.58.23-8.58a7.61,7.61,0,0,1-3.18.75A6,6,0,0,1,389.9,444Z" transform="translate(-28 -107.04)"/><path class="cls-14" d="M373,356.28c.45,7.23,1.3,16.61,2.87,28.08,3,21.89,6.62,43.94,8.41,54.51a8.16,8.16,0,0,0,2.5,4.72,8.25,8.25,0,0,0,4.88,2.16l2,.13a6.86,6.86,0,0,0,7.16-6.53,6.09,6.09,0,0,0,0-.74l-3.13-71.31L397.4,356S372.3,344.43,373,356.28Z" transform="translate(-28 -107.04)"/><path class="cls-10" d="M411.92,444.66s-.18,3.47-2.53,4.4-9.11,1.62-6.65,3.93c1.41,1.32,8.23.7,10.16.73s3.7,1,5.16-.31c1.61-1.39.23-8.58.23-8.58a7.57,7.57,0,0,1-3.17.75A6,6,0,0,1,411.92,444.66Z" transform="translate(-28 -107.04)"/><path class="cls-14" d="M394.66,339s-.88,15.72,3.26,46c3,21.88,6.63,43.93,8.42,54.51a8.1,8.1,0,0,0,7.38,6.87l2,.14a6.85,6.85,0,0,0,7.15-6.52,6.26,6.26,0,0,0,0-.75L419.73,368l-.61-23.46Z" transform="translate(-28 -107.04)"/><path class="cls-10" d="M398.91,391.14h-.3c0-.13,1.71-13,3-17.63s7.23-8.68,7.3-8.74l.17.26s-5.91,4-7.17,8.56S398.91,391,398.91,391.14Z" transform="translate(-28 -107.04)"/><path class="cls-13" d="M399,290.67,397.4,286l-.45-1.37-2.65-8-.35,8-.21,4.81-.06,1.52c-.05,1-.72,1.24-1.53,2.14-.33.35-2.43,2.57,0,3.56,3,1.25,8.55-.63,10.67-3.1C402.8,293.49,399.48,292.19,399,290.67Z" transform="translate(-28 -107.04)"/><path class="cls-13" d="M402.13,280.94c.9-4.69-1.71-9.12-5.83-9.91s-8.17,2.38-9.07,7.06,1.71,9.12,5.83,9.91S401.23,285.62,402.13,280.94Z" transform="translate(-28 -107.04)"/><path class="cls-10" d="M390.47,276.55c-4.34.15-6.45-2.21-6.5-4.39-.06-2.8,1.81-5.28,4-4.24s1.25-1.51,3.34-1.79c3.92-.5,4.66,2.12,7.86,2.25,4.23.17,9,6.81,5.51,11.65C404.67,280,393.9,276.43,390.47,276.55Z" transform="translate(-28 -107.04)"/><path class="cls-10" d="M386.6,273.72s4.64,4.21,4,6.58-.46,3.29,2.25,4.55.32,3.31,3.93,3.48,8-3.87,8-10.48a9.57,9.57,0,0,0-2.25-6.09Z" transform="translate(-28 -107.04)"/><path class="cls-15" d="M388.29,280.19a1.65,1.65,0,0,1,2.16-.47,1.45,1.45,0,0,1,.39.43,1.38,1.38,0,0,1,.19.56,1.42,1.42,0,0,1,0,.58,1.32,1.32,0,0,1-.28.52,1.65,1.65,0,0,1-1,.65,1.6,1.6,0,0,1-1.17-.19,1.48,1.48,0,0,1-.58-1,1.28,1.28,0,0,1,.05-.58A1.36,1.36,0,0,1,388.29,280.19Z" transform="translate(-28 -107.04)"/><path class="cls-10" d="M406.4,281.85h-.07v-.06a2.49,2.49,0,0,0-1.12-1.39h0a2.69,2.69,0,0,1,1.23,1.54h0Z" transform="translate(-28 -107.04)"/><path class="cls-10" d="M405.24,279.87h-.08a.09.09,0,0,1,0-.07h0s1.18-.08,1.35-.94a.18.18,0,0,1,.05-.07h.08a.18.18,0,0,1,.07,0,.11.11,0,0,1,0,.08c-.21,1-1.5,1.11-1.56,1.11Z" transform="translate(-28 -107.04)"/><path class="cls-10" d="M388.62,267.75h-.23a3,3,0,0,1-.89-.45,2,2,0,0,0-.87-.4,1.87,1.87,0,0,0-.94.09h0a2,2,0,0,1,1-.09,2,2,0,0,1,.94.44,3.3,3.3,0,0,0,.84.42.45.45,0,0,0,.23,0,.5.5,0,0,0,.23-.09c.47-.32.59-1.39.59-1.39a.09.09,0,0,1,0-.07h.08m0,.05s-.12,1.16-.69,1.54a.71.71,0,0,1-.29-.05Z" transform="translate(-28 -107.04)"/><path class="cls-10" d="M398.83,268a4.6,4.6,0,0,1-2.78-1.09h.09a4.27,4.27,0,0,0,3.1,1h.08a.09.09,0,0,1,0,.07.11.11,0,0,1,0,.08.14.14,0,0,1-.08.05h-.49Z" transform="translate(-28 -107.04)"/><path class="cls-10" d="M389.45,282.57a.76.76,0,0,1-.3,0h0s1,.29,1.65-1h.07A1.68,1.68,0,0,1,389.45,282.57Z" transform="translate(-28 -107.04)"/><path class="cls-10" d="M373,356.28s31.49-1.74,46.43,1.91l.23-4.32-21-6.27-16.92.42-5.19,1.12-3.67,5.75Z" transform="translate(-28 -107.04)"/><path class="cls-8" d="M416.68,303.66S413.9,291.57,397,291.57c-29.55,0-21.26,24.44-24,63.3,0,0,19.05-4.19,46.61,1.39,0,0,2.69-21-.78-38.83C417.87,312.73,418,307.74,416.68,303.66Z" transform="translate(-28 -107.04)"/><path class="cls-8" d="M393.55,291.57s-9.48.14-16.53,6.89-16.12,16-18,21.38c-2.37,6.6,2,13.2,7.54,13.33s10.51-3.93,10.51-3.93Z" transform="translate(-28 -107.04)"/><path class="cls-10" d="M420.47,346.78h-.21a159.26,159.26,0,0,0-1.87-31h.21A162.45,162.45,0,0,1,420.47,346.78Z" transform="translate(-28 -107.04)"/><path class="cls-10" d="M373.74,331.43l-.11-.18c5.57-3.33,12.82-12.11,12.89-12.2l.16.14C386.61,319.27,379.34,328.08,373.74,331.43Z" transform="translate(-28 -107.04)"/><path class="cls-8" d="M335.06,315.74c-.07,4.32,21.3,20.07,34.12,17.44,13.63-2.78-3.19-17.95-3.19-17.95l-25.12-5.77S335.13,311.38,335.06,315.74Z" transform="translate(-28 -107.04)"/><path class="cls-13" d="M340.87,309.46a3,3,0,0,0-.16-1.49,3.16,3.16,0,0,0-.83-1.24c-1.29-1.14-2.63-6.32-3.48-5s-.06,5.43-1.34,5.88S340.87,309.46,340.87,309.46Z" transform="translate(-28 -107.04)"/><path class="cls-8" d="M350.27,217.35H349a.61.61,0,0,0-.62.62v5.56a.64.64,0,0,1-.63.62h-.44a.61.61,0,0,1-.62-.62V218a.61.61,0,0,0-.6-.62h-1.25a.59.59,0,0,1-.44-.18.6.6,0,0,1-.19-.44v-.12a.61.61,0,0,1,.19-.44.59.59,0,0,1,.44-.18h5.42a.6.6,0,0,1,.44.18.62.62,0,0,1,.18.44v.12a.61.61,0,0,1-.6.62h0Z" transform="translate(-28 -107.04)"/><path class="cls-8" d="M356.14,220.61h-2a.58.58,0,0,0-.43.18.59.59,0,0,0-.18.44v.94a.63.63,0,0,0,.61.63h2.56a.49.49,0,0,1,.24,0,.7.7,0,0,1,.34.34,1,1,0,0,1,0,.24v.11a1,1,0,0,1,0,.24.66.66,0,0,1-.14.2.53.53,0,0,1-.2.13.69.69,0,0,1-.24.05h-4.24a.61.61,0,0,1-.62-.6v-7a.62.62,0,0,1,.18-.44.67.67,0,0,1,.44-.18h4.23a.67.67,0,0,1,.44.18.62.62,0,0,1,.18.44v.12a.59.59,0,0,1-.18.44.66.66,0,0,1-.44.19h-2.55a.61.61,0,0,0-.61.61v.7a.61.61,0,0,0,.6.62h2a.67.67,0,0,1,.44.18.6.6,0,0,1,.18.44V220a.49.49,0,0,1,0,.24.61.61,0,0,1-.13.22.6.6,0,0,1-.21.14.69.69,0,0,1-.24,0Z" transform="translate(-28 -107.04)"/><path class="cls-8" d="M362.57,222a1.21,1.21,0,0,0-.06-.38.7.7,0,0,0-.24-.32,2.39,2.39,0,0,0-.49-.28,5.6,5.6,0,0,0-.81-.3,8.33,8.33,0,0,1-1-.4,3.72,3.72,0,0,1-.87-.54,2.3,2.3,0,0,1-.59-.69,2.12,2.12,0,0,1,0-1.87,2.14,2.14,0,0,1,.62-.72,3.1,3.1,0,0,1,.95-.46,4.6,4.6,0,0,1,1.22-.17,4,4,0,0,1,1.24.19,2.7,2.7,0,0,1,.95.53,2.13,2.13,0,0,1,.6.79c0,.07.06.14.09.2a.71.71,0,0,1,0,.29.54.54,0,0,1-.11.27.57.57,0,0,1-.22.19.55.55,0,0,1-.28.07h-.46a.58.58,0,0,1-.36-.12.64.64,0,0,1-.23-.31h0a1,1,0,0,0-.25-.38,1.18,1.18,0,0,0-.42-.24,2,2,0,0,0-.6-.09,2.24,2.24,0,0,0-.57.08,1.2,1.2,0,0,0-.41.2.89.89,0,0,0-.24.3,1,1,0,0,0-.08.37.87.87,0,0,0,.11.41.83.83,0,0,0,.3.29,4.91,4.91,0,0,0,1.21.5,8.06,8.06,0,0,1,1.18.47,3.25,3.25,0,0,1,.85.57,2.07,2.07,0,0,1,.69,1.62,2.14,2.14,0,0,1-.21,1,1.9,1.9,0,0,1-.6.69,2.72,2.72,0,0,1-.94.45,4.21,4.21,0,0,1-1.22.15,4.43,4.43,0,0,1-.81-.07,3.55,3.55,0,0,1-.77-.22,2.49,2.49,0,0,1-1.25-.86,2.22,2.22,0,0,1-.36-.68h0a.71.71,0,0,1,0-.29.54.54,0,0,1,.11-.27,1,1,0,0,1,.22-.18.68.68,0,0,1,.28-.07h.44a.64.64,0,0,1,.6.46.49.49,0,0,0,.06.17,1,1,0,0,0,.32.42,1.64,1.64,0,0,0,.52.24,3,3,0,0,0,.66.07,2.22,2.22,0,0,0,.57-.07,1.41,1.41,0,0,0,.39-.19.7.7,0,0,0,.24-.3.92.92,0,0,0,.07-.4Z" transform="translate(-28 -107.04)"/><path class="cls-8" d="M370.94,217.35h-1.26a.61.61,0,0,0-.62.62v5.56a.61.61,0,0,1-.19.44.59.59,0,0,1-.44.18H368a.61.61,0,0,1-.62-.6V218a.61.61,0,0,0-.6-.62h-1.24a.61.61,0,0,1-.62-.6v-.14a.49.49,0,0,1,0-.24.57.57,0,0,1,.13-.21.8.8,0,0,1,.21-.15.69.69,0,0,1,.24-.05h5.42a.6.6,0,0,1,.44.19.59.59,0,0,1,.18.44v.12a.53.53,0,0,1,0,.25.57.57,0,0,1-.13.21.6.6,0,0,1-.21.14.53.53,0,0,1-.25,0Z" transform="translate(-28 -107.04)"/><path class="cls-8" d="M373.7,224.15h-.45a.61.61,0,0,1-.62-.6v-7a.61.61,0,0,1,.6-.62h.47a.61.61,0,0,1,.62.6v7a.67.67,0,0,1-.18.44A.62.62,0,0,1,373.7,224.15Z" transform="translate(-28 -107.04)"/><path class="cls-8" d="M381.91,224.15h-.71a.68.68,0,0,1-.31-.08.58.58,0,0,1-.22-.22l-1.95-3.19a.55.55,0,0,0-.31-.25.65.65,0,0,0-.39,0,.57.57,0,0,0-.33.22.63.63,0,0,0-.12.37v2.55a.61.61,0,0,1-.19.44.59.59,0,0,1-.44.18h-.44a.61.61,0,0,1-.62-.6v-7a.62.62,0,0,1,.18-.44.67.67,0,0,1,.44-.18h.72a.64.64,0,0,1,.3.08.69.69,0,0,1,.23.22l1.95,3.2a.59.59,0,0,0,.3.26.68.68,0,0,0,.4,0,.74.74,0,0,0,.33-.22.64.64,0,0,0,.12-.38v-2.56a.61.61,0,0,1,.19-.44.62.62,0,0,1,.43-.18h.44a.61.61,0,0,1,.62.62v6.95a.62.62,0,0,1-.18.44A.59.59,0,0,1,381.91,224.15Z" transform="translate(-28 -107.04)"/><path class="cls-8" d="M390.48,222.87a.7.7,0,0,1-.05.25.65.65,0,0,1-.16.21l-.19.16a3.06,3.06,0,0,1-.63.37,5.56,5.56,0,0,1-.9.29,5.36,5.36,0,0,1-1.2.11,3.76,3.76,0,0,1-1.45-.26,3,3,0,0,1-1.12-.77,3.51,3.51,0,0,1-.72-1.24,5,5,0,0,1-.26-1.68v-.48a5.41,5.41,0,0,1,.25-1.69,3.76,3.76,0,0,1,.7-1.25,3,3,0,0,1,1.08-.76,3.8,3.8,0,0,1,1.41-.27,4.37,4.37,0,0,1,1.39.2,2.75,2.75,0,0,1,1,.56,2.5,2.5,0,0,1,.61.86,2.33,2.33,0,0,1,.11.28.48.48,0,0,1,0,.29.54.54,0,0,1-.11.27.67.67,0,0,1-.22.19.68.68,0,0,1-.28.07h-.39a.72.72,0,0,1-.37-.13.61.61,0,0,1-.22-.3l-.05-.13a1.42,1.42,0,0,0-.29-.43,1.19,1.19,0,0,0-.46-.27,2.05,2.05,0,0,0-.65-.1,1.46,1.46,0,0,0-.74.16,1.43,1.43,0,0,0-.57.49,3.5,3.5,0,0,0-.46,1.95v.49a3.25,3.25,0,0,0,.5,1.94,1.51,1.51,0,0,0,.62.5,1.61,1.61,0,0,0,.78.16,2.35,2.35,0,0,0,.53,0,1.86,1.86,0,0,0,.39-.1,1.1,1.1,0,0,0,.44-.26v-.79a.67.67,0,0,0-.18-.44.62.62,0,0,0-.44-.18h-.3a.62.62,0,0,1-.43-.18.61.61,0,0,1-.19-.44h0a.63.63,0,0,1,.14-.51.62.62,0,0,1,.44-.18h2a.45.45,0,0,1,.23,0,.6.6,0,0,1,.21.14.86.86,0,0,1,.13.2.69.69,0,0,1,0,.24Z" transform="translate(-28 -107.04)"/></svg>