<svg id="Layer_1" data-name="Layer 1" xmlns="http://www.w3.org/2000/svg" xmlns:xlink="http://www.w3.org/1999/xlink" viewBox="0 0 60 45"><defs><style>.cls-1{fill:#fca311;}.cls-1,.cls-2{fill-rule:evenodd;}.cls-2{fill:url(#linear-gradient);}</style><linearGradient id="linear-gradient" x1="681.1" y1="575.05" x2="703.69" y2="515.79" gradientTransform="matrix(1, 0, 0, -1, 0, 1082)" gradientUnits="userSpaceOnUse"><stop offset="0" stop-color="#09c6f9"/><stop offset="1" stop-color="#045de9"/></linearGradient></defs><title>cloud</title><path class="cls-1" d="M683.2,513.66a12.93,12.93,0,0,1,11.46,7,21.27,21.27,0,0,1,8.69-1.84c11.4,0,20.7,8.89,20.7,19.93s-9.3,19.94-20.7,19.94H679.17c-8.32,0-15.12-6.49-15.12-14.57a14.45,14.45,0,0,1,7.18-12.4,13.07,13.07,0,0,1,12-18Zm-8.76,13.06a8.87,8.87,0,0,1,8.76-9,8.76,8.76,0,0,1,7.84,5,20.26,20.26,0,0,0-6.23,7.17c-.11.2-.2.39-.3.59l-.56-.19a15.73,15.73,0,0,0-4.78-.75,15.43,15.43,0,0,0-4.1.55A9.11,9.11,0,0,1,674.44,526.72Z" transform="translate(-664.05 -513.66)"/><path class="cls-2" d="M683.2,513.66a12.93,12.93,0,0,1,11.46,7,21.27,21.27,0,0,1,8.69-1.84c11.4,0,20.7,8.89,20.7,19.93s-9.3,19.94-20.7,19.94H679.17c-8.32,0-15.12-6.49-15.12-14.57a14.45,14.45,0,0,1,7.18-12.4,13.07,13.07,0,0,1,12-18Zm-8.76,13.06a8.87,8.87,0,0,1,8.76-9,8.76,8.76,0,0,1,7.84,5,20.26,20.26,0,0,0-6.23,7.17c-.11.2-.2.39-.3.59l-.56-.19a15.73,15.73,0,0,0-4.78-.75,15.43,15.43,0,0,0-4.1.55A9.11,9.11,0,0,1,674.44,526.72Z" transform="translate(-664.05 -513.66)"/></svg>