<svg id="Layer_1" data-name="Layer 1" xmlns="http://www.w3.org/2000/svg" xmlns:xlink="http://www.w3.org/1999/xlink" viewBox="0 0 48 48"><defs><style>.cls-1{fill:#fca311;}.cls-1,.cls-2{fill-rule:evenodd;}.cls-2{fill:url(#linear-gradient);}</style><linearGradient id="linear-gradient" x1="738.08" y1="522.36" x2="767.32" y2="464.83" gradientTransform="matrix(1, 0, 0, -1, 0, 1082)" gradientUnits="userSpaceOnUse"><stop offset="0" stop-color="#09c6f9"/><stop offset="1" stop-color="#045de9"/></linearGradient></defs><title>compass</title><path class="cls-1" d="M744.87,565.5a34.46,34.46,0,0,1,15.84,0,20.32,20.32,0,0,1,15.16,15.16,34.46,34.46,0,0,1,0,15.84,20.34,20.34,0,0,1-15.16,15.16,34.73,34.73,0,0,1-15.84,0,20.34,20.34,0,0,1-15.16-15.16,34.46,34.46,0,0,1,0-15.84A20.32,20.32,0,0,1,744.87,565.5Zm11.89,17.78a1,1,0,0,1,1.33,1.33l-2.08,5.2a3.57,3.57,0,0,1-2,2l-5.2,2.08a1,1,0,0,1-1.33-1.33l2.08-5.2a3.54,3.54,0,0,1,2-2Zm4.17,2.46a4.08,4.08,0,0,0-5.3-5.31l-5.21,2.08a6.67,6.67,0,0,0-3.69,3.7l-2.08,5.2a4.08,4.08,0,0,0,5.3,5.31l5.21-2.08a6.61,6.61,0,0,0,3.69-3.7Z" transform="translate(-728.79 -564.58)"/><path class="cls-2" d="M744.87,565.5a34.46,34.46,0,0,1,15.84,0,20.32,20.32,0,0,1,15.16,15.16,34.46,34.46,0,0,1,0,15.84,20.34,20.34,0,0,1-15.16,15.16,34.73,34.73,0,0,1-15.84,0,20.34,20.34,0,0,1-15.16-15.16,34.46,34.46,0,0,1,0-15.84A20.32,20.32,0,0,1,744.87,565.5Zm11.89,17.78a1,1,0,0,1,1.33,1.33l-2.08,5.2a3.57,3.57,0,0,1-2,2l-5.2,2.08a1,1,0,0,1-1.33-1.33l2.08-5.2a3.54,3.54,0,0,1,2-2Zm4.17,2.46a4.08,4.08,0,0,0-5.3-5.31l-5.21,2.08a6.67,6.67,0,0,0-3.69,3.7l-2.08,5.2a4.08,4.08,0,0,0,5.3,5.31l5.21-2.08a6.61,6.61,0,0,0,3.69-3.7Z" transform="translate(-728.79 -564.58)"/></svg>