<svg id="Layer_1" data-name="Layer 1" xmlns="http://www.w3.org/2000/svg" xmlns:xlink="http://www.w3.org/1999/xlink" viewBox="0 0 543.97 420"><defs><style>.cls-1{fill:none;}.cls-2{clip-path:url(#clip-path);}.cls-3{fill:#66c5ff;}.cls-12,.cls-4,.cls-6{fill:#fff;}.cls-4,.cls-5{opacity:0.6;}.cls-12,.cls-4{isolation:isolate;}.cls-7{fill:#24a7ff;}.cls-8{fill:#3bb0ff;}.cls-9{fill:#3d4959;}.cls-10{fill:#d6e0ea;}.cls-11{fill:#ededed;}.cls-12{opacity:0.2;}.cls-13{fill:#f3f9ff;}.cls-14{fill:#425160;}.cls-15{fill:#41566d;}.cls-16{fill:#e4eff7;}.cls-17{fill:#dde9f2;}.cls-18{fill:#55738e;}</style><clipPath id="clip-path" transform="translate(-79.52 -41.34)"><rect class="cls-1" x="79.5" y="41.34" width="544" height="420"/></clipPath></defs><title>datacentre</title><g class="cls-2"><path class="cls-3" d="M166.86,150.77a38.84,38.84,0,0,1,58.84-29.19A36.35,36.35,0,0,1,282.57,146a38.66,38.66,0,0,1-8.73,76.31H180.9a37.16,37.16,0,0,1-14-71.57Z" transform="translate(-79.52 -41.34)"/><path class="cls-4" d="M261.53,180.29a33,33,0,0,0,0-13.42l-5.25-.75a26.45,26.45,0,0,0-2.56-6.17l3.18-4.26a32.69,32.69,0,0,0-9.48-9.48l-4.24,3.15a27.64,27.64,0,0,0-6.18-2.57l-.73-5.24a33.12,33.12,0,0,0-13.45,0l-.74,5.24a27.71,27.71,0,0,0-6.19,2.57l-4.25-3.18a33.06,33.06,0,0,0-9.48,9.48l3.18,4.27a26.52,26.52,0,0,0-2.56,6.18l-5.25.74a33,33,0,0,0,0,13.43l5.25.76a26.26,26.26,0,0,0,2.58,6.16l-3.2,4.29a33.06,33.06,0,0,0,9.48,9.48l4.25-3.2a26.78,26.78,0,0,0,6.19,2.56l.74,5.27a33,33,0,0,0,13.43,0l.75-5.27a26.7,26.7,0,0,0,6.18-2.56l4.26,3.2a33.15,33.15,0,0,0,9.47-9.48l-3.19-4.27a27.18,27.18,0,0,0,2.57-6.18Zm-32,9.14a15.77,15.77,0,1,1,14.58-9.76,16,16,0,0,1-3.42,5.13,15.84,15.84,0,0,1-11.16,4.63Z" transform="translate(-79.52 -41.34)"/><path class="cls-3" d="M378.67,114.17A38.86,38.86,0,0,1,437.51,85a36.36,36.36,0,0,1,56.86,24.47,38.65,38.65,0,0,1-8.74,76.3H392.7a37.16,37.16,0,0,1-14-71.57Z" transform="translate(-79.52 -41.34)"/><g class="cls-5"><path class="cls-6" d="M423.33,147.09c0-5.22,2.79-8.13,6.53-8.13s6.53,3,6.53,8.13-2.79,8.13-6.53,8.13S423.33,152.3,423.33,147.09Zm10.77,0c0-4.07-1.75-6.15-4.24-6.15s-4.25,2.06-4.25,6.15,1.75,6.15,4.25,6.15,4.22-2.06,4.22-6.15Z" transform="translate(-79.52 -41.34)"/><path class="cls-6" d="M438.58,147.09c0-5.22,2.79-8.13,6.54-8.13s6.51,3,6.51,8.13-2.79,8.13-6.51,8.13S438.58,152.3,438.58,147.09Zm10.76,0c0-4.07-1.73-6.15-4.22-6.15s-4.25,2.06-4.25,6.15,1.73,6.15,4.25,6.15S449.34,151.18,449.34,147.09Z" transform="translate(-79.52 -41.34)"/><path class="cls-6" d="M458.73,139.08v16h-2.27v-14h-3.61v-2Z" transform="translate(-79.52 -41.34)"/><path class="cls-6" d="M462.23,147.09c0-5.22,2.79-8.13,6.54-8.13s6.51,3,6.51,8.13-2.78,8.13-6.51,8.13S462.23,152.3,462.23,147.09Zm10.77,0c0-4.07-1.74-6.15-4.23-6.15s-4.25,2.06-4.25,6.15,1.73,6.15,4.25,6.15S473,151.18,473,147.09Z" transform="translate(-79.52 -41.34)"/><path class="cls-6" d="M482.38,139.08v16h-2.26v-14h-3.6v-2Z" transform="translate(-79.52 -41.34)"/><path class="cls-6" d="M485.87,147.09c0-5.22,2.79-8.13,6.54-8.13s6.51,3,6.51,8.13-2.79,8.13-6.51,8.13S485.87,152.3,485.87,147.09Zm10.77,0c0-4.07-1.74-6.15-4.23-6.15s-4.25,2.06-4.25,6.15,1.73,6.15,4.25,6.15S496.64,151.18,496.64,147.09Z" transform="translate(-79.52 -41.34)"/><path class="cls-6" d="M506,139.08v16h-2.26v-14h-3.62v-2Z" transform="translate(-79.52 -41.34)"/></g><path class="cls-7" d="M257.66,322.2a41.38,41.38,0,0,0-28.88-39.43,38.92,38.92,0,0,0-60.2-27.51,38.93,38.93,0,0,0-60.2,27.51,41.34,41.34,0,0,0,12.42,80.75h96.46a41.32,41.32,0,0,0,40.4-41.32Z" transform="translate(-79.52 -41.34)"/><path class="cls-8" d="M168.23,255.1a38.91,38.91,0,0,0-59.85,27.73,41.34,41.34,0,0,0,12.42,80.75h29Z" transform="translate(-79.52 -41.34)"/><path class="cls-9" d="M269.15,343.39H163.78v7.84H269.15Z" transform="translate(-79.52 -41.34)"/><path class="cls-9" d="M269.15,305.36H163.78v7.84H269.15Z" transform="translate(-79.52 -41.34)"/><path class="cls-10" d="M273.86,349.3H158.61a5.43,5.43,0,0,0-5.43,5.43v24.4a5.43,5.43,0,0,0,5.43,5.43H273.86a5.43,5.43,0,0,0,5.43-5.43v-24.4A5.43,5.43,0,0,0,273.86,349.3Z" transform="translate(-79.52 -41.34)"/><path class="cls-11" d="M205.52,349.3l-5.74,35.22H158.61a5.41,5.41,0,0,1-5.42-5.42V354.72a5.41,5.41,0,0,1,5.42-5.42Z" transform="translate(-79.52 -41.34)"/><path class="cls-9" d="M271.53,376.8V357.06H160.93V376.8Z" transform="translate(-79.52 -41.34)"/><path class="cls-7" d="M262.82,366.91a3.44,3.44,0,0,1-.57,1.89,3.39,3.39,0,0,1-5.23.53,3.33,3.33,0,0,1-.93-1.74,3.4,3.4,0,0,1,1.44-3.49,3.34,3.34,0,0,1,1.89-.58,3.42,3.42,0,0,1,2.4,1,3.48,3.48,0,0,1,1,2.4Z" transform="translate(-79.52 -41.34)"/><path class="cls-7" d="M248.14,366.91a2.92,2.92,0,0,1-3.48,2.86,2.93,2.93,0,0,1-2.29-2.29,2.92,2.92,0,0,1,.17-1.68,2.86,2.86,0,0,1,1.07-1.31,2.92,2.92,0,0,1,3.68.36,3,3,0,0,1,.85,2.06Z" transform="translate(-79.52 -41.34)"/><path class="cls-6" d="M234,366.91a2.91,2.91,0,0,1-.49,1.62,2.86,2.86,0,0,1-1.31,1.07,2.92,2.92,0,0,1-1.68.17,2.93,2.93,0,0,1-2.29-2.29,2.92,2.92,0,0,1,.17-1.68,2.86,2.86,0,0,1,1.07-1.31,2.92,2.92,0,0,1,3.68.36,3,3,0,0,1,.85,2.06Z" transform="translate(-79.52 -41.34)"/><path class="cls-7" d="M219.76,366.91a2.91,2.91,0,0,1-.49,1.62A2.86,2.86,0,0,1,218,369.6a2.92,2.92,0,0,1-1.68.17,3,3,0,0,1-1.49-.8,2.89,2.89,0,0,1-.79-1.49,2.91,2.91,0,0,1,1.23-3,2.92,2.92,0,0,1,3.68.36,3,3,0,0,1,.85,2.06Z" transform="translate(-79.52 -41.34)"/><path class="cls-6" d="M205.57,366.91a2.91,2.91,0,0,1-1.79,2.69,2.9,2.9,0,0,1-4-2.12,2.84,2.84,0,0,1,.16-1.68,2.91,2.91,0,0,1,5.6,1.11Z" transform="translate(-79.52 -41.34)"/><path class="cls-10" d="M273.86,310.67H158.61a5.43,5.43,0,0,0-5.43,5.43v24.4a5.44,5.44,0,0,0,5.43,5.44H273.86a5.44,5.44,0,0,0,5.43-5.44V316.1A5.43,5.43,0,0,0,273.86,310.67Z" transform="translate(-79.52 -41.34)"/><path class="cls-11" d="M211.8,310.67l-5.73,35.23H158.61a5.43,5.43,0,0,1-5.42-5.42V316.09a5.43,5.43,0,0,1,5.42-5.42Z" transform="translate(-79.52 -41.34)"/><path class="cls-9" d="M271.53,338.17V318.43H160.93v19.74Z" transform="translate(-79.52 -41.34)"/><path class="cls-10" d="M273.86,272.64H158.61a5.43,5.43,0,0,0-5.43,5.43v24.4a5.44,5.44,0,0,0,5.43,5.44H273.86a5.44,5.44,0,0,0,5.43-5.44v-24.4A5.43,5.43,0,0,0,273.86,272.64Z" transform="translate(-79.52 -41.34)"/><path class="cls-11" d="M218,272.64l-5.74,35.23H158.61a5.43,5.43,0,0,1-5.42-5.42V278.06a5.43,5.43,0,0,1,5.42-5.42Z" transform="translate(-79.52 -41.34)"/><path class="cls-9" d="M271.55,300.16V280.42H161v19.74Z" transform="translate(-79.52 -41.34)"/><path class="cls-7" d="M259.42,331.7a3.4,3.4,0,1,0-3.4-3.4A3.4,3.4,0,0,0,259.42,331.7Z" transform="translate(-79.52 -41.34)"/><path class="cls-7" d="M248.14,328.3a2.94,2.94,0,0,1-.49,1.62,3,3,0,0,1-1.31,1.07,2.84,2.84,0,0,1-1.68.16,2.9,2.9,0,0,1-2.12-4,2.89,2.89,0,0,1,1.07-1.3,2.91,2.91,0,0,1,4.53,2.42Z" transform="translate(-79.52 -41.34)"/><path class="cls-6" d="M234,328.3a2.9,2.9,0,0,1-1.8,2.69,2.84,2.84,0,0,1-1.68.16,2.9,2.9,0,0,1-2.12-4,2.89,2.89,0,0,1,1.07-1.3A2.91,2.91,0,0,1,234,328.3Z" transform="translate(-79.52 -41.34)"/><path class="cls-7" d="M219.76,328.3A2.9,2.9,0,0,1,218,331a2.84,2.84,0,0,1-1.68.16,3,3,0,0,1-1.49-.79,2.91,2.91,0,0,1,.44-4.48,2.91,2.91,0,0,1,4.53,2.42Z" transform="translate(-79.52 -41.34)"/><path class="cls-6" d="M205.57,328.3a2.91,2.91,0,0,1-1.79,2.69,2.88,2.88,0,0,1-1.69.16,2.87,2.87,0,0,1-2.28-2.28,2.87,2.87,0,0,1,.16-1.69,2.94,2.94,0,0,1,2.69-1.8,2.92,2.92,0,0,1,2.06.86,2.87,2.87,0,0,1,.85,2.06Z" transform="translate(-79.52 -41.34)"/><path class="cls-7" d="M262.82,290.28a3.42,3.42,0,0,1-2.1,3.14,3.41,3.41,0,0,1-2,.2,3.39,3.39,0,0,1-2.67-2.68,3.43,3.43,0,0,1,1.45-3.49,3.44,3.44,0,0,1,1.89-.57,3.41,3.41,0,0,1,3.4,3.4Z" transform="translate(-79.52 -41.34)"/><path class="cls-6" d="M248.14,290.28a2.91,2.91,0,0,1-5,2.06,3,3,0,0,1-.8-1.49,2.92,2.92,0,0,1,.17-1.68,2.86,2.86,0,0,1,1.07-1.31,2.92,2.92,0,0,1,3.68.36,3,3,0,0,1,.85,2.06Z" transform="translate(-79.52 -41.34)"/><path class="cls-6" d="M234,290.28a2.91,2.91,0,0,1-.49,1.62,2.86,2.86,0,0,1-1.31,1.07,2.89,2.89,0,0,1-3.17-.63,3,3,0,0,1-.8-1.49,2.92,2.92,0,0,1,.17-1.68,2.86,2.86,0,0,1,1.07-1.31,2.92,2.92,0,0,1,3.68.36,3,3,0,0,1,.85,2.06Z" transform="translate(-79.52 -41.34)"/><path class="cls-7" d="M219.76,290.28a2.91,2.91,0,0,1-.49,1.62A2.86,2.86,0,0,1,218,293a2.89,2.89,0,0,1-3.17-.63,2.89,2.89,0,0,1-.79-1.49,2.91,2.91,0,0,1,1.23-3,2.92,2.92,0,0,1,3.68.36,3,3,0,0,1,.85,2.06Z" transform="translate(-79.52 -41.34)"/><path class="cls-7" d="M205.57,290.28a2.91,2.91,0,0,1-1.79,2.69,3,3,0,0,1-1.69.17,2.91,2.91,0,0,1-1.49-.8,3,3,0,0,1-.79-1.49,2.84,2.84,0,0,1,.16-1.68,2.91,2.91,0,0,1,5.6,1.11Z" transform="translate(-79.52 -41.34)"/><path class="cls-7" d="M425.77,330.94A32.63,32.63,0,0,0,403,299.78a30.72,30.72,0,0,0-47.53-21.68,30.74,30.74,0,0,0-47.53,21.68,32.64,32.64,0,0,0,9.81,63.77h76.17a32.6,32.6,0,0,0,31.88-32.61Z" transform="translate(-79.52 -41.34)"/><path class="cls-8" d="M355.17,277.91a30.74,30.74,0,0,0-47.26,21.9,32.64,32.64,0,0,0,9.81,63.77h22.95Z" transform="translate(-79.52 -41.34)"/><path class="cls-9" d="M408.36,399.66H303v7.84H408.36Z" transform="translate(-79.52 -41.34)"/><path class="cls-9" d="M408.36,361.64H303v7.84H408.36Z" transform="translate(-79.52 -41.34)"/><path class="cls-10" d="M413.07,405.56H297.81a5.44,5.44,0,0,0-5.43,5.44v24.4a5.44,5.44,0,0,0,5.43,5.43H413.07a5.43,5.43,0,0,0,5.43-5.43V411A5.44,5.44,0,0,0,413.07,405.56Z" transform="translate(-79.52 -41.34)"/><path class="cls-11" d="M344.73,405.56,339,440.79H297.83a5.43,5.43,0,0,1-5.42-5.42V411a5.43,5.43,0,0,1,5.42-5.42Z" transform="translate(-79.52 -41.34)"/><path class="cls-9" d="M410.73,433.08V413.34H300.13v19.74Z" transform="translate(-79.52 -41.34)"/><path class="cls-7" d="M402,423.2a3.39,3.39,0,0,1-4.09,3.28,3.47,3.47,0,0,1-1.73-.94,3.41,3.41,0,0,1,.54-5.22,3.41,3.41,0,0,1,1.88-.57,3.53,3.53,0,0,1,1.32.26,3.47,3.47,0,0,1,1.1.75,3.51,3.51,0,0,1,.74,1.13A3.24,3.24,0,0,1,402,423.2Z" transform="translate(-79.52 -41.34)"/><path class="cls-7" d="M387.33,423.2a2.91,2.91,0,0,1-1.79,2.69,2.92,2.92,0,0,1-4-2.12,2.91,2.91,0,1,1,5.76-.57Z" transform="translate(-79.52 -41.34)"/><path class="cls-6" d="M373.16,423.2a2.9,2.9,0,0,1-1.8,2.69,2.85,2.85,0,0,1-1.68.17,2.91,2.91,0,0,1,.57-5.77,2.9,2.9,0,0,1,2.91,2.91Z" transform="translate(-79.52 -41.34)"/><path class="cls-7" d="M359,423.2a2.9,2.9,0,0,1-1.8,2.69,2.92,2.92,0,0,1-4-2.12,2.91,2.91,0,1,1,5.77-.57Z" transform="translate(-79.52 -41.34)"/><path class="cls-6" d="M344.73,423.2a2.9,2.9,0,0,1-1.8,2.69,2.92,2.92,0,0,1-4-2.12,2.91,2.91,0,1,1,5.77-.57Z" transform="translate(-79.52 -41.34)"/><path class="cls-10" d="M413.07,366.94H297.81a5.44,5.44,0,0,0-5.43,5.43v24.4a5.44,5.44,0,0,0,5.43,5.43H413.07a5.43,5.43,0,0,0,5.43-5.43v-24.4A5.43,5.43,0,0,0,413.07,366.94Z" transform="translate(-79.52 -41.34)"/><path class="cls-11" d="M351,366.91l-5.73,35.23H297.81a5.41,5.41,0,0,1-5.41-5.42V372.33a5.41,5.41,0,0,1,5.41-5.42Z" transform="translate(-79.52 -41.34)"/><path class="cls-9" d="M410.74,394.44V374.7H300.14v19.74Z" transform="translate(-79.52 -41.34)"/><path class="cls-10" d="M413.07,328.92H297.81a5.44,5.44,0,0,0-5.43,5.43v24.4a5.44,5.44,0,0,0,5.43,5.44H413.07a5.44,5.44,0,0,0,5.43-5.44v-24.4A5.43,5.43,0,0,0,413.07,328.92Z" transform="translate(-79.52 -41.34)"/><path class="cls-11" d="M357.2,329l-5.7,35.23H297.81a5.41,5.41,0,0,1-5.41-5.42V334.39a5.41,5.41,0,0,1,5.41-5.42Z" transform="translate(-79.52 -41.34)"/><path class="cls-9" d="M410.73,356.42V336.68H300.13v19.74Z" transform="translate(-79.52 -41.34)"/><path class="cls-7" d="M402,384.52a3.41,3.41,0,0,1-.57,1.89,3.38,3.38,0,0,1-3.49,1.45,3.4,3.4,0,0,1-1.74-.93,3.37,3.37,0,0,1-.93-1.74,3.49,3.49,0,0,1,.19-2,3.44,3.44,0,0,1,1.25-1.52,3.37,3.37,0,0,1,1.89-.58,3.48,3.48,0,0,1,1.31.26,3.52,3.52,0,0,1,1.1.73,3.36,3.36,0,0,1,1,2.41Z" transform="translate(-79.52 -41.34)"/><path class="cls-7" d="M387.33,384.52a2.91,2.91,0,0,1-3.47,2.86,2.93,2.93,0,0,1-2.29-2.29,2.91,2.91,0,1,1,5.76-.57Z" transform="translate(-79.52 -41.34)"/><path class="cls-6" d="M373.16,384.52a2.91,2.91,0,1,1-2.91-2.91,2.9,2.9,0,0,1,2.91,2.91Z" transform="translate(-79.52 -41.34)"/><path class="cls-7" d="M359,384.52a2.92,2.92,0,0,1-3.48,2.86,2.93,2.93,0,0,1-2.29-2.29,2.91,2.91,0,1,1,5.77-.57Z" transform="translate(-79.52 -41.34)"/><path class="cls-6" d="M344.73,384.52a2.92,2.92,0,0,1-3.48,2.86,2.93,2.93,0,0,1-2.29-2.29,2.91,2.91,0,1,1,5.77-.57Z" transform="translate(-79.52 -41.34)"/><path class="cls-7" d="M402,346.59a3.38,3.38,0,0,1-2.1,3.14,3.37,3.37,0,0,1-2,.19,3.4,3.4,0,0,1-2.67-2.67,3.45,3.45,0,0,1,.19-2,3.4,3.4,0,0,1,6.54,1.3Z" transform="translate(-79.52 -41.34)"/><path class="cls-6" d="M387.33,346.59a2.94,2.94,0,0,1-.49,1.62,2.89,2.89,0,0,1-1.3,1.07,2.85,2.85,0,0,1-1.68.16,2.9,2.9,0,0,1-2.29-2.28,3,3,0,0,1,.16-1.69,3,3,0,0,1,2.69-1.8,2.92,2.92,0,0,1,2.91,2.92Z" transform="translate(-79.52 -41.34)"/><path class="cls-6" d="M373.16,346.59a2.9,2.9,0,0,1-1.8,2.69,2.85,2.85,0,0,1-1.68.16,2.9,2.9,0,0,1-2.12-4,2.89,2.89,0,0,1,1.07-1.3,2.91,2.91,0,0,1,4.53,2.42Z" transform="translate(-79.52 -41.34)"/><path class="cls-7" d="M359,346.59a2.9,2.9,0,0,1-1.8,2.69,2.85,2.85,0,0,1-1.68.16,2.9,2.9,0,0,1-2.29-2.28,3,3,0,0,1,.17-1.69,2.89,2.89,0,0,1,1.07-1.3,2.92,2.92,0,0,1,1.62-.5,2.94,2.94,0,0,1,2.91,2.92Z" transform="translate(-79.52 -41.34)"/><path class="cls-7" d="M344.73,346.59a2.9,2.9,0,0,1-1.8,2.69,2.85,2.85,0,0,1-1.68.16,2.9,2.9,0,0,1-2.29-2.28,3,3,0,0,1,.17-1.69,2.89,2.89,0,0,1,1.07-1.3,2.92,2.92,0,0,1,1.62-.5,2.94,2.94,0,0,1,2.91,2.92Z" transform="translate(-79.52 -41.34)"/><path class="cls-7" d="M623.5,322.2a41.38,41.38,0,0,0-28.88-39.43,38.93,38.93,0,0,0-60.21-27.51,38.94,38.94,0,0,0-60.2,27.51,41.34,41.34,0,0,0,12.43,80.75H583.1a41.32,41.32,0,0,0,40.4-41.32Z" transform="translate(-79.52 -41.34)"/><path class="cls-8" d="M534.07,255.1a38.93,38.93,0,0,0-59.86,27.73,41.34,41.34,0,0,0,12.43,80.75h29Z" transform="translate(-79.52 -41.34)"/><path class="cls-9" d="M547.56,343.39H442.18v7.84H547.56Z" transform="translate(-79.52 -41.34)"/><path class="cls-9" d="M547.56,305.36H442.18v7.84H547.56Z" transform="translate(-79.52 -41.34)"/><path class="cls-10" d="M552.27,349.3H437a5.43,5.43,0,0,0-5.43,5.43v24.4a5.43,5.43,0,0,0,5.43,5.43H552.27a5.43,5.43,0,0,0,5.43-5.43v-24.4A5.43,5.43,0,0,0,552.27,349.3Z" transform="translate(-79.52 -41.34)"/><path class="cls-11" d="M483.92,349.3l-5.75,35.22H437a5.41,5.41,0,0,1-5.42-5.42V354.72A5.41,5.41,0,0,1,437,349.3Z" transform="translate(-79.52 -41.34)"/><path class="cls-9" d="M549.94,376.8V357.06H439.34V376.8Z" transform="translate(-79.52 -41.34)"/><path class="cls-7" d="M541.21,366.91a3.44,3.44,0,0,1-.57,1.89,3.39,3.39,0,0,1-5.23.53,3.33,3.33,0,0,1-.93-1.74,3.4,3.4,0,0,1,1.44-3.49,3.37,3.37,0,0,1,1.89-.58,3.42,3.42,0,0,1,2.4,1A3.48,3.48,0,0,1,541.21,366.91Z" transform="translate(-79.52 -41.34)"/><path class="cls-7" d="M523.62,369.85a2.92,2.92,0,1,0-2.91-2.91A2.91,2.91,0,0,0,523.62,369.85Z" transform="translate(-79.52 -41.34)"/><path class="cls-6" d="M512.34,366.91a2.91,2.91,0,0,1-.49,1.62,2.86,2.86,0,0,1-1.31,1.07,2.92,2.92,0,0,1-1.68.17,2.93,2.93,0,0,1-2.29-2.29,2.92,2.92,0,0,1,.17-1.68,2.86,2.86,0,0,1,1.07-1.31,2.92,2.92,0,0,1,3.68.36,3,3,0,0,1,.85,2.06Z" transform="translate(-79.52 -41.34)"/><path class="cls-7" d="M498.15,366.91a2.91,2.91,0,0,1-.49,1.62,2.86,2.86,0,0,1-1.31,1.07,2.92,2.92,0,0,1-1.68.17,2.9,2.9,0,0,1-2.28-2.29,2.91,2.91,0,0,1,1.23-3,2.94,2.94,0,0,1,1.62-.49,2.9,2.9,0,0,1,2.91,2.91Z" transform="translate(-79.52 -41.34)"/><path class="cls-6" d="M484,366.91a2.91,2.91,0,0,1-1.79,2.69,2.9,2.9,0,0,1-4-2.12,2.84,2.84,0,0,1,.16-1.68,2.91,2.91,0,0,1,5.6,1.11Z" transform="translate(-79.52 -41.34)"/><path class="cls-10" d="M552.27,310.67H437a5.43,5.43,0,0,0-5.43,5.43v24.4a5.44,5.44,0,0,0,5.43,5.44H552.27a5.44,5.44,0,0,0,5.43-5.44V316.1A5.43,5.43,0,0,0,552.27,310.67Z" transform="translate(-79.52 -41.34)"/><path class="cls-11" d="M490.2,310.67l-5.74,35.23H437.08a5.43,5.43,0,0,1-5.42-5.42V316.09a5.43,5.43,0,0,1,5.42-5.42Z" transform="translate(-79.52 -41.34)"/><path class="cls-9" d="M549.94,338.17V318.43H439.34v19.74Z" transform="translate(-79.52 -41.34)"/><path class="cls-10" d="M552.27,272.64H437a5.43,5.43,0,0,0-5.43,5.43v24.4a5.44,5.44,0,0,0,5.43,5.44H552.27a5.44,5.44,0,0,0,5.43-5.44v-24.4A5.43,5.43,0,0,0,552.27,272.64Z" transform="translate(-79.52 -41.34)"/><path class="cls-11" d="M496.36,272.64l-5.74,35.23H437a5.43,5.43,0,0,1-5.42-5.42V278.06a5.43,5.43,0,0,1,5.42-5.42Z" transform="translate(-79.52 -41.34)"/><path class="cls-9" d="M549.94,300.14V280.4H439.34v19.74Z" transform="translate(-79.52 -41.34)"/><path class="cls-7" d="M541.21,328.3a3.42,3.42,0,0,1-2.1,3.14,3.42,3.42,0,0,1-3.71-.74,3.48,3.48,0,0,1-.93-1.74,3.43,3.43,0,0,1,1.45-3.49,3.44,3.44,0,0,1,1.89-.57,3.4,3.4,0,0,1,3.4,3.4Z" transform="translate(-79.52 -41.34)"/><path class="cls-7" d="M526.53,328.3a2.94,2.94,0,0,1-.49,1.62,3,3,0,0,1-1.31,1.07,2.84,2.84,0,0,1-1.68.16,2.9,2.9,0,0,1-2.12-4,2.89,2.89,0,0,1,1.07-1.3,2.91,2.91,0,0,1,4.53,2.42Z" transform="translate(-79.52 -41.34)"/><path class="cls-6" d="M512.34,328.3a2.9,2.9,0,0,1-1.8,2.69,2.84,2.84,0,0,1-1.68.16,2.9,2.9,0,0,1-2.12-4,2.89,2.89,0,0,1,1.07-1.3,2.91,2.91,0,0,1,4.53,2.42Z" transform="translate(-79.52 -41.34)"/><path class="cls-7" d="M498.15,328.3a2.9,2.9,0,0,1-1.8,2.69,2.84,2.84,0,0,1-1.68.16,2.87,2.87,0,0,1-2.28-2.28,2.89,2.89,0,0,1,1.23-3,3,3,0,0,1,1.62-.5,2.92,2.92,0,0,1,2.06.86,2.87,2.87,0,0,1,.85,2.06Z" transform="translate(-79.52 -41.34)"/><path class="cls-6" d="M484,328.3a2.91,2.91,0,0,1-1.79,2.69,2.88,2.88,0,0,1-1.69.16,2.87,2.87,0,0,1-2.28-2.28,2.87,2.87,0,0,1,.16-1.69,2.94,2.94,0,0,1,2.69-1.8,2.92,2.92,0,0,1,2.06.86,2.87,2.87,0,0,1,.85,2.06Z" transform="translate(-79.52 -41.34)"/><path class="cls-7" d="M541.21,290.28a3.42,3.42,0,0,1-2.1,3.14,3.41,3.41,0,0,1-2,.2,3.39,3.39,0,0,1-2.67-2.68,3.37,3.37,0,0,1,.2-2,3.38,3.38,0,0,1,3.14-2.1,3.25,3.25,0,0,1,1.3.26,3.41,3.41,0,0,1,1.1.73A3.32,3.32,0,0,1,541,289,3.39,3.39,0,0,1,541.21,290.28Z" transform="translate(-79.52 -41.34)"/><path class="cls-6" d="M526.53,290.28a2.91,2.91,0,0,1-5,2.06,3,3,0,0,1-.8-1.49,2.92,2.92,0,0,1,.17-1.68,2.86,2.86,0,0,1,1.07-1.31,2.92,2.92,0,0,1,3.68.36,3,3,0,0,1,.85,2.06Z" transform="translate(-79.52 -41.34)"/><path class="cls-6" d="M512.34,290.28a2.91,2.91,0,0,1-.49,1.62,2.86,2.86,0,0,1-1.31,1.07,2.89,2.89,0,0,1-3.17-.63,3,3,0,0,1-.8-1.49,2.92,2.92,0,0,1,.17-1.68,2.86,2.86,0,0,1,1.07-1.31,2.92,2.92,0,0,1,3.68.36,3,3,0,0,1,.85,2.06Z" transform="translate(-79.52 -41.34)"/><path class="cls-7" d="M498.15,290.28a2.91,2.91,0,0,1-.49,1.62,2.86,2.86,0,0,1-1.31,1.07,2.89,2.89,0,0,1-3.17-.63,3,3,0,0,1-.79-1.49,2.91,2.91,0,0,1,1.23-3,2.94,2.94,0,0,1,1.62-.49,2.9,2.9,0,0,1,2.91,2.91Z" transform="translate(-79.52 -41.34)"/><path class="cls-7" d="M484,290.28a2.91,2.91,0,0,1-1.79,2.69,3,3,0,0,1-1.69.17,2.91,2.91,0,0,1-1.49-.8,3,3,0,0,1-.79-1.49,2.84,2.84,0,0,1,.16-1.68,2.91,2.91,0,0,1,5.6,1.11Z" transform="translate(-79.52 -41.34)"/><path class="cls-8" d="M263.44,41.34h184a11.95,11.95,0,0,1,11.93,11.94V163.59a14.24,14.24,0,0,1-14.22,14.23H265.73a14.36,14.36,0,0,1-5.46-1.07,14.22,14.22,0,0,1-8.83-13.16V53.28A12,12,0,0,1,255,44.81a12.24,12.24,0,0,1,3.89-2.58,12.06,12.06,0,0,1,4.59-.89Z" transform="translate(-79.52 -41.34)"/><path class="cls-12" d="M353.62,41.34H263.49a11.89,11.89,0,0,0-4.56.91,11.81,11.81,0,0,0-6.46,6.46,11.94,11.94,0,0,0-.91,4.57V163.59a14.22,14.22,0,0,0,14.22,14.21h60.4Z" transform="translate(-79.52 -41.34)"/><path class="cls-10" d="M251.44,63.81H459.38V188.34a11.95,11.95,0,0,1-11.93,11.94h-184a11.87,11.87,0,0,1-4.59-.89,11.9,11.9,0,0,1-6.49-6.46,11.87,11.87,0,0,1-.92-4.59Z" transform="translate(-79.52 -41.34)"/><path class="cls-13" d="M453.69,63.81V188.34a6.29,6.29,0,0,1-.48,2.42,6.31,6.31,0,0,1-5.83,3.9h-184a6.31,6.31,0,0,1-4.46-1.85,6.38,6.38,0,0,1-1.36-2.05,6.29,6.29,0,0,1-.48-2.42V63.81Z" transform="translate(-79.52 -41.34)"/><path class="cls-14" d="M392.36,155.56v-12.2l-8.4-1.19a26.62,26.62,0,0,0-3.18-7.72l5.07-6.78-8.63-8.7-6.77,5.09a26.25,26.25,0,0,0-7.7-3.19l-1.21-8.36H349.36l-1.21,8.36a26.25,26.25,0,0,0-7.7,3.19L333.68,119,325,127.66l5.08,6.77a25.15,25.15,0,0,0-3.18,7.73l-8.36,1.19v12.19l8.36,1.21a26,26,0,0,0,3.18,7.76L325,171.29l8.68,8.64,6.77-5.08a24.84,24.84,0,0,0,7.7,3.22l1.21,8.36h12.18l1.21-8.36a24.84,24.84,0,0,0,7.7-3.22l6.77,5.08,8.63-8.64-5.07-6.78A27.54,27.54,0,0,0,384,156.8Zm-36.92,12.38a18.69,18.69,0,1,1,7.06-1.43,18.51,18.51,0,0,1-7.06,1.43Z" transform="translate(-79.52 -41.34)"/><path class="cls-9" d="M355.38,167.9a18.5,18.5,0,0,1,0-37V112.49H349.3l-1.2,8.35a26.7,26.7,0,0,0-7.71,3.19L333.62,119,325,127.63l5.07,6.78a25.45,25.45,0,0,0-3.18,7.72l-8.35,1.19v12.19l8.35,1.21a26.31,26.31,0,0,0,3.18,7.76L325,171.26l8.67,8.64,6.77-5.08a25.16,25.16,0,0,0,7.71,3.23l1.2,8.36h6.08Z" transform="translate(-79.52 -41.34)"/><path class="cls-15" d="M437.75,106.2V97.47l-6-.85a18.89,18.89,0,0,0-2.26-5.5l3.61-4.8L427,80.13l-4.83,3.62a19.22,19.22,0,0,0-5.5-2.28l-.85-5.94H407l-.86,5.94a19.16,19.16,0,0,0-5.49,2.28l-4.8-3.62-6.18,6.19,3.61,4.8a17.68,17.68,0,0,0-2.27,5.5l-6,.85v8.73l6,.85a18.45,18.45,0,0,0,2.27,5.53l-3.61,4.81,6.18,6.15,4.8-3.62a18.06,18.06,0,0,0,5.49,2.31l.86,6h8.72l.85-6a18.12,18.12,0,0,0,5.5-2.31l4.83,3.62,6.15-6.15-3.62-4.84a19.17,19.17,0,0,0,2.26-5.5ZM411.43,115a13.19,13.19,0,1,1,13.16-13.17,13,13,0,0,1-1,5A13.16,13.16,0,0,1,411.43,115Z" transform="translate(-79.52 -41.34)"/><path class="cls-10" d="M329.81,70.67H264.17v5.46h65.64Z" transform="translate(-79.52 -41.34)"/><path class="cls-10" d="M329.81,83.57H264.17V89h65.64Z" transform="translate(-79.52 -41.34)"/><path class="cls-10" d="M329.81,96.47H264.17v5.46h65.64Z" transform="translate(-79.52 -41.34)"/><path class="cls-10" d="M315.62,109.37H264.17v5.46h51.45Z" transform="translate(-79.52 -41.34)"/><path class="cls-10" d="M315.62,122.27H264.17v5.46h51.45Z" transform="translate(-79.52 -41.34)"/><path class="cls-6" d="M410.17,52.78a4.52,4.52,0,0,1-.76,2.55,4.56,4.56,0,0,1-2.06,1.7,4.6,4.6,0,0,1-6.27-3.34,4.58,4.58,0,0,1,4.51-5.49,4.58,4.58,0,0,1,1.75.34,4.68,4.68,0,0,1,1.49,1,4.82,4.82,0,0,1,1,1.49,4.6,4.6,0,0,1,.34,1.76Z" transform="translate(-79.52 -41.34)"/><path class="cls-6" d="M428.87,52.78A4.58,4.58,0,0,1,421.06,56a4.59,4.59,0,0,1,.69-7.05,4.63,4.63,0,0,1,2.55-.77,4.58,4.58,0,0,1,4.57,4.58Z" transform="translate(-79.52 -41.34)"/><path class="cls-6" d="M447.62,52.78a4.52,4.52,0,0,1-.77,2.54,4.58,4.58,0,1,1,.77-2.54Z" transform="translate(-79.52 -41.34)"/><path class="cls-7" d="M399.83,180.61a3.6,3.6,0,0,1-.62,2,3.67,3.67,0,0,1-1.64,1.35,3.65,3.65,0,0,1-4.77-4.78,3.65,3.65,0,0,1,7,1.4Z" transform="translate(-79.52 -41.34)"/><path class="cls-7" d="M415.64,180.61a3.67,3.67,0,0,1-7.26.73,3.75,3.75,0,0,1,.2-2.12,3.65,3.65,0,0,1,1.36-1.65,3.6,3.6,0,0,1,2-.62,3.65,3.65,0,0,1,3.66,3.66Z" transform="translate(-79.52 -41.34)"/><path class="cls-7" d="M433,180.61a5.17,5.17,0,0,1-8.83,3.67,5.14,5.14,0,0,1-1.42-2.65,5.18,5.18,0,0,1,5.09-6.19,5.17,5.17,0,0,1,5.16,5.17Z" transform="translate(-79.52 -41.34)"/><path class="cls-7" d="M447.26,180.61a3.72,3.72,0,0,1-.61,2,3.67,3.67,0,0,1-6.45-3.43,3.7,3.7,0,0,1,1.35-1.65,3.6,3.6,0,0,1,2-.62,3.67,3.67,0,0,1,3.67,3.66Z" transform="translate(-79.52 -41.34)"/><path class="cls-7" d="M271,180.61a3.65,3.65,0,0,1-4.37,3.61,3.64,3.64,0,0,1-2.89-2.88,3.67,3.67,0,1,1,7.26-.73Z" transform="translate(-79.52 -41.34)"/><path class="cls-7" d="M286.75,180.61a3.66,3.66,0,0,1-.61,2A3.78,3.78,0,0,1,284.5,184a3.67,3.67,0,0,1-5-2.67,3.62,3.62,0,0,1,.21-2.11,3.75,3.75,0,0,1,1.35-1.65,3.66,3.66,0,0,1,5.68,3.05Z" transform="translate(-79.52 -41.34)"/><path class="cls-7" d="M302.55,180.61a3.66,3.66,0,0,1-.61,2A3.78,3.78,0,0,1,300.3,184a3.67,3.67,0,0,1-5-2.67,3.62,3.62,0,0,1,.21-2.11,3.75,3.75,0,0,1,1.35-1.65,3.66,3.66,0,0,1,5.68,3.05Z" transform="translate(-79.52 -41.34)"/><path class="cls-7" d="M318.37,180.61a3.71,3.71,0,0,1-2.26,3.4,3.68,3.68,0,1,1,2.26-3.4Z" transform="translate(-79.52 -41.34)"/><path class="cls-16" d="M238.34,76.8v-10l-6.89-1a22,22,0,0,0-2.6-6.33L233,53.92l-7.06-7.12L220.36,51A21.39,21.39,0,0,0,214,48.35l-1-6.86H203l-1,6.86A21.6,21.6,0,0,0,195.72,51l-5.53-4.16-7.11,7.14,4.16,5.53a21,21,0,0,0-2.61,6.33l-6.85,1v10l6.85,1a21.35,21.35,0,0,0,2.61,6.37l-4.16,5.53,7.11,7.08,5.53-4.16A21,21,0,0,0,202,95.27l1,6.85h10l1-6.85a20.86,20.86,0,0,0,6.33-2.65l5.58,4.16L233,89.7l-4.15-5.57a22.6,22.6,0,0,0,2.6-6.33Zm-30.28,7.55A12.58,12.58,0,1,1,220.61,71.8a12.51,12.51,0,0,1-3.67,8.88,12.51,12.51,0,0,1-8.88,3.67Z" transform="translate(-79.52 -41.34)"/><path class="cls-17" d="M550.6,215.49V206.8l-6-.86a18.54,18.54,0,0,0-2.26-5.42l3.61-4.79-6.14-6.17L535,193.17a18.67,18.67,0,0,0-5.41-2.27l-.86-5.93h-8.69l-.85,5.93a18.84,18.84,0,0,0-5.42,2.27L509,189.56l-6.17,6.17,3.61,4.79a17.81,17.81,0,0,0-2.26,5.42l-5.94.86v8.69l5.94.86a18.62,18.62,0,0,0,2.26,5.5l-3.61,4.79,6.17,6.14,4.78-3.62a18.18,18.18,0,0,0,5.42,2.31l.85,5.93h8.69l.86-5.93a17.52,17.52,0,0,0,5.41-2.31l4.82,3.62,6.14-6.14-3.59-4.82a19.69,19.69,0,0,0,2.26-5.42ZM524.38,222a10.82,10.82,0,1,1,7.66-3.17A10.81,10.81,0,0,1,524.38,222Z" transform="translate(-79.52 -41.34)"/><path class="cls-16" d="M475.09,414.67v-5.76l-3.94-.57a11.71,11.71,0,0,0-1.5-3.62l2.4-3.17L468,397.49l-3.2,2.4a11.83,11.83,0,0,0-3.61-1.51l-.57-3.93h-5.74l-.57,3.93a12,12,0,0,0-3.63,1.51l-3.15-2.4-4.07,4.06,2.4,3.17a11.71,11.71,0,0,0-1.5,3.62l-3.93.57v5.74l3.93.57a12.39,12.39,0,0,0,1.5,3.65l-2.4,3.17,4.07,4.06,3.15-2.39a12.24,12.24,0,0,0,3.63,1.53l.57,3.93h5.74l.57-3.93a12.13,12.13,0,0,0,3.61-1.53l3.14,2.41,4.06-4.07-2.39-3.18a13,13,0,0,0,1.5-3.63ZM457.75,419a7.19,7.19,0,0,1-6.66-4.44,7.19,7.19,0,0,1,1.55-7.86,7.2,7.2,0,0,1,11.09,1.1,7.26,7.26,0,0,1,.67,6.76,7.17,7.17,0,0,1-3.9,3.9,7,7,0,0,1-2.75.54Z" transform="translate(-79.52 -41.34)"/><path class="cls-17" d="M305.46,455.1c0-4,2.13-6.24,5-6.24s5,2.27,5,6.24-2.12,6.24-5,6.24S305.46,459,305.46,455.1Zm8.21,0c0-3.12-1.36-4.69-3.22-4.69s-3.24,1.57-3.24,4.69,1.35,4.68,3.24,4.68,3.2-1.55,3.2-4.68Z" transform="translate(-79.52 -41.34)"/><path class="cls-17" d="M317.08,455.1c0-4,2.13-6.24,5-6.24s5,2.27,5,6.24-2.13,6.24-5,6.24S317.08,459,317.08,455.1Zm8.12,0c0-3.12-1.35-4.69-3.21-4.69s-3.24,1.57-3.24,4.69,1.35,4.68,3.24,4.68,3.28-1.55,3.28-4.68Z" transform="translate(-79.52 -41.34)"/><path class="cls-17" d="M332.42,449v12.19H330.7V450.5H328V449Z" transform="translate(-79.52 -41.34)"/><path class="cls-17" d="M335.09,455.1c0-4,2.12-6.24,5-6.24s5,2.27,5,6.24-2.13,6.24-5,6.24S335.09,459,335.09,455.1Zm8.2,0c0-3.12-1.35-4.69-3.22-4.69s-3.24,1.57-3.24,4.69,1.36,4.68,3.24,4.68S343.29,458.23,343.29,455.1Z" transform="translate(-79.52 -41.34)"/><path class="cls-17" d="M350.44,449v12.19h-1.65V450.5h-2.71V449Z" transform="translate(-79.52 -41.34)"/><path class="cls-17" d="M353.11,455.1c0-4,2.12-6.24,5-6.24s5,2.27,5,6.24-2.13,6.24-5,6.24S353.11,459,353.11,455.1Zm8.2,0c0-3.12-1.35-4.69-3.22-4.69s-3.25,1.57-3.25,4.69,1.35,4.68,3.25,4.68S361.31,458.23,361.31,455.1Z" transform="translate(-79.52 -41.34)"/><path class="cls-17" d="M368.45,449v12.19h-1.72V450.5H364V449Z" transform="translate(-79.52 -41.34)"/><path class="cls-17" d="M120,236.57c0-5,2.71-7.84,6.25-7.84s6.25,2.85,6.25,7.84-2.71,7.84-6.25,7.84S120,241.56,120,236.57Zm10.3,0c0-3.91-1.66-5.89-4.06-5.89s-4.06,2-4.06,5.89,1.66,5.9,4.06,5.9,4-2,4-5.9Z" transform="translate(-79.52 -41.34)"/><path class="cls-17" d="M134.55,236.57c0-5,2.7-7.84,6.27-7.84s6.22,2.85,6.22,7.84-2.7,7.84-6.22,7.84S134.55,241.56,134.55,236.57Zm10.3,0c0-3.91-1.65-5.89-4.06-5.89s-4.06,2-4.06,5.89,1.66,5.9,4.06,5.9S144.85,240.49,144.85,236.57Z" transform="translate(-79.52 -41.34)"/><path class="cls-17" d="M153.83,228.91v15.32h-2.17V230.82h-3.45v-1.91Z" transform="translate(-79.52 -41.34)"/><path class="cls-17" d="M157.18,236.57c0-5,2.71-7.84,6.26-7.84s6.24,2.85,6.24,7.84-2.71,7.84-6.24,7.84S157.18,241.56,157.18,236.57Zm10.31,0c0-3.91-1.65-5.89-4.06-5.89s-4.07,2-4.07,5.89,1.67,5.9,4.07,5.9S167.49,240.49,167.49,236.57Z" transform="translate(-79.52 -41.34)"/><path class="cls-17" d="M176.46,228.91v15.32H174.3V230.82h-3.46v-1.91Z" transform="translate(-79.52 -41.34)"/><path class="cls-17" d="M184.57,228.91v15.32h-2.16V230.82h-3.47v-1.91Z" transform="translate(-79.52 -41.34)"/><path class="cls-17" d="M187.92,236.57c0-5,2.71-7.84,6.25-7.84s6.24,2.85,6.24,7.84-2.7,7.84-6.24,7.84S187.92,241.56,187.92,236.57Zm10.3,0c0-3.91-1.65-5.89-4.06-5.89s-4.06,2-4.06,5.89,1.66,5.9,4.06,5.9,4.06-2,4.06-5.9Z" transform="translate(-79.52 -41.34)"/><path class="cls-17" d="M202.57,236.57c0-5,2.7-7.84,6.25-7.84s6.23,2.85,6.23,7.84-2.71,7.84-6.23,7.84S202.57,241.56,202.57,236.57Zm10.3,0c0-3.91-1.67-5.89-4.06-5.89s-4.06,2-4.06,5.89,1.66,5.9,4.06,5.9,4-2,4-5.9Z" transform="translate(-79.52 -41.34)"/><path class="cls-17" d="M217.12,236.57c0-5,2.71-7.84,6.26-7.84s6.24,2.85,6.24,7.84-2.71,7.84-6.24,7.84S217.12,241.56,217.12,236.57Zm10.3,0c0-3.91-1.65-5.89-4.06-5.89s-4.06,2-4.06,5.89,1.67,5.9,4.06,5.9S227.42,240.49,227.42,236.57Z" transform="translate(-79.52 -41.34)"/><path class="cls-17" d="M236.41,228.91v15.32h-2.16V230.82H230.8v-1.91Z" transform="translate(-79.52 -41.34)"/><path class="cls-17" d="M239.76,236.57c0-5,2.71-7.84,6.25-7.84s6.25,2.85,6.25,7.84-2.71,7.84-6.25,7.84S239.76,241.56,239.76,236.57Zm10.3,0c0-3.91-1.66-5.89-4.06-5.89s-4.06,2-4.06,5.89,1.66,5.9,4.06,5.9S250.06,240.49,250.06,236.57Z" transform="translate(-79.52 -41.34)"/><path class="cls-17" d="M259,228.91v15.32h-2.17V230.82h-3.45v-1.91Z" transform="translate(-79.52 -41.34)"/><path class="cls-17" d="M361.38,254.59c0-5,2.71-7.84,6.26-7.84s6.24,2.84,6.24,7.84-2.71,7.84-6.24,7.84S361.38,259.58,361.38,254.59Zm10.3,0c0-3.92-1.66-5.89-4.06-5.89s-4.06,2-4.06,5.89,1.67,5.88,4.06,5.88S371.68,258.52,371.68,254.59Z" transform="translate(-79.52 -41.34)"/><path class="cls-17" d="M380.66,246.93v15.32h-2.17V248.84H375v-1.91Z" transform="translate(-79.52 -41.34)"/><path class="cls-17" d="M388.76,246.93v15.32h-2.17V248.84h-3.45v-1.91Z" transform="translate(-79.52 -41.34)"/><path class="cls-17" d="M392.11,254.59c0-5,2.71-7.84,6.26-7.84s6.24,2.84,6.24,7.84-2.71,7.84-6.24,7.84S392.11,259.58,392.11,254.59Zm10.31,0c0-3.92-1.67-5.89-4.06-5.89s-4.07,2-4.07,5.89,1.66,5.88,4.07,5.88S402.42,258.52,402.42,254.59Z" transform="translate(-79.52 -41.34)"/><path class="cls-17" d="M406.71,254.59c0-5,2.71-7.84,6.27-7.84s6.23,2.84,6.23,7.84-2.71,7.84-6.23,7.84S406.71,259.58,406.71,254.59Zm10.32,0c0-3.92-1.67-5.89-4.07-5.89s-4.06,2-4.06,5.89,1.67,5.88,4.06,5.88S417,258.52,417,254.59Z" transform="translate(-79.52 -41.34)"/><path class="cls-17" d="M421.32,254.59c0-5,2.71-7.84,6.25-7.84s6.24,2.84,6.24,7.84-2.7,7.84-6.24,7.84S421.32,259.58,421.32,254.59Zm10.3,0c0-3.92-1.66-5.89-4.06-5.89s-4.06,2-4.06,5.89,1.66,5.88,4.06,5.88S431.62,258.52,431.62,254.59Z" transform="translate(-79.52 -41.34)"/><path class="cls-17" d="M474.43,70.67a3.61,3.61,0,0,1-2.26,3.38,3.65,3.65,0,0,1-5-2.66,3.66,3.66,0,0,1,.21-2.12,3.76,3.76,0,0,1,1.34-1.64,3.7,3.7,0,0,1,2-.61,3.65,3.65,0,0,1,3.65,3.65Z" transform="translate(-79.52 -41.34)"/><path class="cls-17" d="M490.24,70.67A3.68,3.68,0,0,1,488,74.08a3.67,3.67,0,0,1-3.44-6.45,3.66,3.66,0,0,1,5.69,3Z" transform="translate(-79.52 -41.34)"/><path class="cls-17" d="M507.56,70.67a5.16,5.16,0,0,1-.87,2.88,5.28,5.28,0,0,1-2.32,1.91,5.18,5.18,0,1,1,3.19-4.79Z" transform="translate(-79.52 -41.34)"/><path class="cls-17" d="M521.86,70.67a3.66,3.66,0,0,1-2.26,3.41,3.66,3.66,0,0,1-2.12.21,3.58,3.58,0,0,1-1.88-1,3.62,3.62,0,0,1-1-1.88,3.67,3.67,0,1,1,7.27-.73Z" transform="translate(-79.52 -41.34)"/><path class="cls-17" d="M256.45,399.66a3.73,3.73,0,0,1,.61-2.05,3.77,3.77,0,0,1,1.65-1.36,3.67,3.67,0,0,1,5,2.67,3.66,3.66,0,0,1-3.6,4.39,3.63,3.63,0,0,1-2.59-1.06,3.84,3.84,0,0,1-.8-1.19,3.72,3.72,0,0,1-.28-1.4Z" transform="translate(-79.52 -41.34)"/><path class="cls-17" d="M240.65,399.66a3.71,3.71,0,0,1,.62-2,3.59,3.59,0,0,1,1.64-1.34,3.65,3.65,0,1,1-2.26,3.38Z" transform="translate(-79.52 -41.34)"/><path class="cls-17" d="M223.34,399.66a5.16,5.16,0,0,1,3.19-4.78,5.18,5.18,0,0,1,7.05,3.77,5.19,5.19,0,0,1-.29,3,5.28,5.28,0,0,1-1.91,2.32,5.16,5.16,0,0,1-8-4.3Z" transform="translate(-79.52 -41.34)"/><path class="cls-17" d="M209,399.66a3.66,3.66,0,0,1,2.26-3.41,3.66,3.66,0,0,1,2.12-.21,3.7,3.7,0,0,1,2.89,2.89,3.67,3.67,0,0,1-.22,2.12,3.58,3.58,0,0,1-1.35,1.65,3.66,3.66,0,0,1-5.7-3Z" transform="translate(-79.52 -41.34)"/><path class="cls-18" d="M445.55,265.54h-6.21v3.67h6.21Z" transform="translate(-79.52 -41.34)"/><path class="cls-18" d="M445.55,258.64h-6.21v3.68h6.21Z" transform="translate(-79.52 -41.34)"/><path class="cls-18" d="M445.55,251.75h-6.21v3.67h6.21Z" transform="translate(-79.52 -41.34)"/><path class="cls-18" d="M445.55,244.85h-6.21v3.67h6.21Z" transform="translate(-79.52 -41.34)"/><path class="cls-18" d="M445.55,238h-6.21v3.67h6.21Z" transform="translate(-79.52 -41.34)"/><path class="cls-18" d="M445.55,231.06h-6.21v3.67h6.21Z" transform="translate(-79.52 -41.34)"/><path class="cls-18" d="M445.55,224.16h-6.21v3.68h6.21Z" transform="translate(-79.52 -41.34)"/><path class="cls-18" d="M445.55,217.27h-6.21v3.67h6.21Z" transform="translate(-79.52 -41.34)"/><path class="cls-18" d="M445.55,210.37h-6.21V214h6.21Z" transform="translate(-79.52 -41.34)"/><path class="cls-18" d="M445.55,203.48h-6.21v3.67h6.21Z" transform="translate(-79.52 -41.34)"/><path class="cls-18" d="M358.55,265.54h-6.21v3.67h6.21Z" transform="translate(-79.52 -41.34)"/><path class="cls-18" d="M358.55,258.64h-6.21v3.68h6.21Z" transform="translate(-79.52 -41.34)"/><path class="cls-18" d="M358.55,251.75h-6.21v3.67h6.21Z" transform="translate(-79.52 -41.34)"/><path class="cls-18" d="M358.55,244.85h-6.21v3.67h6.21Z" transform="translate(-79.52 -41.34)"/><path class="cls-18" d="M358.55,238h-6.21v3.67h6.21Z" transform="translate(-79.52 -41.34)"/><path class="cls-18" d="M358.55,231.06h-6.21v3.67h6.21Z" transform="translate(-79.52 -41.34)"/><path class="cls-18" d="M358.55,224.16h-6.21v3.68h6.21Z" transform="translate(-79.52 -41.34)"/><path class="cls-18" d="M358.55,217.27h-6.21v3.67h6.21Z" transform="translate(-79.52 -41.34)"/><path class="cls-18" d="M358.55,210.37h-6.21V214h6.21Z" transform="translate(-79.52 -41.34)"/><path class="cls-18" d="M358.55,203.48h-6.21v3.67h6.21Z" transform="translate(-79.52 -41.34)"/><path class="cls-18" d="M271.53,265.54h-6.21v3.67h6.21Z" transform="translate(-79.52 -41.34)"/><path class="cls-18" d="M271.53,258.64h-6.21v3.68h6.21Z" transform="translate(-79.52 -41.34)"/><path class="cls-18" d="M271.53,251.75h-6.21v3.67h6.21Z" transform="translate(-79.52 -41.34)"/><path class="cls-18" d="M271.53,244.85h-6.21v3.67h6.21Z" transform="translate(-79.52 -41.34)"/><path class="cls-18" d="M271.53,238h-6.21v3.67h6.21Z" transform="translate(-79.52 -41.34)"/><path class="cls-18" d="M271.53,231.06h-6.21v3.67h6.21Z" transform="translate(-79.52 -41.34)"/><path class="cls-18" d="M271.53,224.16h-6.21v3.68h6.21Z" transform="translate(-79.52 -41.34)"/><path class="cls-18" d="M271.53,217.27h-6.21v3.67h6.21Z" transform="translate(-79.52 -41.34)"/><path class="cls-18" d="M271.53,210.37h-6.21V214h6.21Z" transform="translate(-79.52 -41.34)"/><path class="cls-18" d="M271.53,203.48h-6.21v3.67h6.21Z" transform="translate(-79.52 -41.34)"/></g></svg>