<svg id="Layer_1" data-name="Layer 1" xmlns="http://www.w3.org/2000/svg" xmlns:xlink="http://www.w3.org/1999/xlink" viewBox="0 0 32 32"><defs><style>.cls-1{fill:#fca311;}.cls-2{fill:url(#linear-gradient);}.cls-3{fill:#fff;}</style><linearGradient id="linear-gradient" x1="677.93" y1="580.93" x2="697.43" y2="542.57" gradientTransform="matrix(1, 0, 0, -1, -671.74, 577.63)" gradientUnits="userSpaceOnUse"><stop offset="0" stop-color="#09c6f9"/><stop offset="1" stop-color="#045de9"/></linearGradient></defs><title>fb</title><circle class="cls-1" cx="16" cy="16" r="16"/><circle class="cls-2" cx="16" cy="16" r="16"/><path class="cls-3" d="M680.55,524.37V516H686v1.23h-3.89v2.36h3.14v1.21h-3.14v3.6Zm6.61,0V516h3.37a2.9,2.9,0,0,1,2,.61,2,2,0,0,1,.69,1.55,1.81,1.81,0,0,1-.43,1.27,2.17,2.17,0,0,1-1,.64,2,2,0,0,1,1.19.72,2,2,0,0,1,.46,1.32,2.11,2.11,0,0,1-.72,1.64,3,3,0,0,1-2,.65Zm1.54-4.87h1.61a1.46,1.46,0,0,0,1-.3,1.09,1.09,0,0,0,.35-.86,1,1,0,0,0-.35-.82,1.43,1.43,0,0,0-1-.32H688.7Zm0,3.62h1.71a1.6,1.6,0,0,0,1.06-.31,1.11,1.11,0,0,0,.38-.9,1.18,1.18,0,0,0-.39-.93,1.63,1.63,0,0,0-1.07-.33H688.7Z" transform="translate(-671.74 -504.37)"/></svg>