<svg id="Layer_1" data-name="Layer 1" xmlns="http://www.w3.org/2000/svg" xmlns:xlink="http://www.w3.org/1999/xlink" viewBox="0 0 32 32"><defs><style>.cls-1{fill:#fca311;}.cls-2{fill:url(#linear-gradient);}.cls-3{fill:#fff;}</style><linearGradient id="linear-gradient" x1="677.93" y1="499.07" x2="697.43" y2="537.43" gradientTransform="translate(-671.74 -502.37)" gradientUnits="userSpaceOnUse"><stop offset="0" stop-color="#09c6f9"/><stop offset="1" stop-color="#045de9"/></linearGradient></defs><title>fk</title><circle class="cls-1" cx="16" cy="16" r="16"/><circle class="cls-2" cx="16" cy="16" r="16"/><path class="cls-3" d="M8.81,20V11.63h5.45v1.23H10.37v2.36h3.14v1.21H10.37V20Zm6.61,0V11.63h3.37a2.94,2.94,0,0,1,2,.61,2,2,0,0,1,.69,1.55,1.83,1.83,0,0,1-.43,1.27,2.21,2.21,0,0,1-1,.64,2,2,0,0,1,1.19.72,2,2,0,0,1,.46,1.32A2.09,2.09,0,0,1,21,19.38,3,3,0,0,1,19,20ZM17,15.13h1.61a1.45,1.45,0,0,0,1-.3,1.08,1.08,0,0,0,.35-.86,1,1,0,0,0-.35-.82,1.45,1.45,0,0,0-1-.32H17Zm0,3.62h1.71a1.56,1.56,0,0,0,1.06-.31,1.11,1.11,0,0,0,.38-.9,1.18,1.18,0,0,0-.39-.93,1.66,1.66,0,0,0-1.07-.33H17Z"/></svg>