<svg id="Layer_1" data-name="Layer 1" xmlns="http://www.w3.org/2000/svg" xmlns:xlink="http://www.w3.org/1999/xlink" viewBox="0 0 32 32"><defs><style>.cls-1{fill:#fca311;}.cls-2{fill:url(#linear-gradient);}.cls-3{fill:#fff;}</style><linearGradient id="linear-gradient" x1="675.4" y1="555.66" x2="694.9" y2="517.31" gradientTransform="matrix(1, 0, 0, -1, -669.21, 552.37)" gradientUnits="userSpaceOnUse"><stop offset="0" stop-color="#09c6f9"/><stop offset="1" stop-color="#045de9"/></linearGradient></defs><title>ig</title><circle class="cls-1" cx="16" cy="16" r="16"/><circle class="cls-2" cx="16" cy="16" r="16"/><path class="cls-3" d="M679,549.63v-8.4h1.53v8.4Zm6.83.15a3.89,3.89,0,0,1-2.07-.54,3.57,3.57,0,0,1-1.38-1.5,5.35,5.35,0,0,1,0-4.54,3.81,3.81,0,0,1,1.45-1.55,4.35,4.35,0,0,1,2.24-.56,4,4,0,0,1,2.45.71,3.2,3.2,0,0,1,1.26,2h-1.71a1.68,1.68,0,0,0-.7-.91,2.34,2.34,0,0,0-1.3-.34,2.4,2.4,0,0,0-1.94.81,3.2,3.2,0,0,0-.68,2.18,3.16,3.16,0,0,0,.67,2.16,2.34,2.34,0,0,0,1.85.76,2.26,2.26,0,0,0,1.71-.61,2.81,2.81,0,0,0,.71-1.64h-2.12V545H690v4.62h-1.42l-.12-1.1a2.72,2.72,0,0,1-1,.92A3.28,3.28,0,0,1,685.86,549.78Z" transform="translate(-669.21 -529.63)"/></svg>