<svg id="Layer_1" data-name="Layer 1" xmlns="http://www.w3.org/2000/svg" xmlns:xlink="http://www.w3.org/1999/xlink" viewBox="0 0 48 48"><defs><style>.cls-1{fill:#fca311;}.cls-2{fill:url(#linear-gradient);}.cls-3{fill:url(#linear-gradient-2);}.cls-4{fill:url(#linear-gradient-3);}.cls-5{fill:url(#linear-gradient-4);}</style><linearGradient id="linear-gradient" x1="729.55" y1="531" x2="758.79" y2="473.47" gradientTransform="matrix(1, 0, 0, -1, 0, 1082)" gradientUnits="userSpaceOnUse"><stop offset="0" stop-color="#09c6f9"/><stop offset="1" stop-color="#045de9"/></linearGradient><linearGradient id="linear-gradient-2" x1="718.44" y1="525.35" x2="747.68" y2="467.82" xlink:href="#linear-gradient"/><linearGradient id="linear-gradient-3" x1="751.4" y1="542.11" x2="780.65" y2="484.58" xlink:href="#linear-gradient"/><linearGradient id="linear-gradient-4" x1="740.29" y1="536.46" x2="769.54" y2="478.93" xlink:href="#linear-gradient"/></defs><title>more</title><path class="cls-1" d="M739.47,553.63a15.55,15.55,0,0,0-7.18,0,8.34,8.34,0,0,0-6.24,6.24,15.55,15.55,0,0,0,0,7.18,8.34,8.34,0,0,0,6.24,6.24,15.55,15.55,0,0,0,7.18,0,8.34,8.34,0,0,0,6.24-6.24,15.55,15.55,0,0,0,0-7.18A8.34,8.34,0,0,0,739.47,553.63Z" transform="translate(-725.63 -553.21)"/><path class="cls-2" d="M739.47,553.63a15.55,15.55,0,0,0-7.18,0,8.34,8.34,0,0,0-6.24,6.24,15.55,15.55,0,0,0,0,7.18,8.34,8.34,0,0,0,6.24,6.24,15.55,15.55,0,0,0,7.18,0,8.34,8.34,0,0,0,6.24-6.24,15.55,15.55,0,0,0,0-7.18A8.34,8.34,0,0,0,739.47,553.63Z" transform="translate(-725.63 -553.21)"/><path class="cls-1" d="M739.47,581.13a15.55,15.55,0,0,0-7.18,0,8.34,8.34,0,0,0-6.24,6.24,15.6,15.6,0,0,0,0,7.19,8.35,8.35,0,0,0,6.24,6.23,15.55,15.55,0,0,0,7.18,0,8.35,8.35,0,0,0,6.24-6.23,15.6,15.6,0,0,0,0-7.19A8.34,8.34,0,0,0,739.47,581.13Z" transform="translate(-725.63 -553.21)"/><path class="cls-3" d="M739.47,581.13a15.55,15.55,0,0,0-7.18,0,8.34,8.34,0,0,0-6.24,6.24,15.6,15.6,0,0,0,0,7.19,8.35,8.35,0,0,0,6.24,6.23,15.55,15.55,0,0,0,7.18,0,8.35,8.35,0,0,0,6.24-6.23,15.6,15.6,0,0,0,0-7.19A8.34,8.34,0,0,0,739.47,581.13Z" transform="translate(-725.63 -553.21)"/><path class="cls-1" d="M767,553.63a15.6,15.6,0,0,0-7.19,0,8.34,8.34,0,0,0-6.24,6.24,15.55,15.55,0,0,0,0,7.18,8.34,8.34,0,0,0,6.24,6.24,15.6,15.6,0,0,0,7.19,0,8.37,8.37,0,0,0,6.24-6.24,15.83,15.83,0,0,0,0-7.18A8.37,8.37,0,0,0,767,553.63Z" transform="translate(-725.63 -553.21)"/><path class="cls-4" d="M767,553.63a15.6,15.6,0,0,0-7.19,0,8.34,8.34,0,0,0-6.24,6.24,15.55,15.55,0,0,0,0,7.18,8.34,8.34,0,0,0,6.24,6.24,15.6,15.6,0,0,0,7.19,0,8.37,8.37,0,0,0,6.24-6.24,15.83,15.83,0,0,0,0-7.18A8.37,8.37,0,0,0,767,553.63Z" transform="translate(-725.63 -553.21)"/><path class="cls-1" d="M767,581.13a15.6,15.6,0,0,0-7.19,0,8.34,8.34,0,0,0-6.24,6.24,15.6,15.6,0,0,0,0,7.19,8.35,8.35,0,0,0,6.24,6.23,15.6,15.6,0,0,0,7.19,0,8.38,8.38,0,0,0,6.24-6.23,15.87,15.87,0,0,0,0-7.19A8.37,8.37,0,0,0,767,581.13Z" transform="translate(-725.63 -553.21)"/><path class="cls-5" d="M767,581.13a15.6,15.6,0,0,0-7.19,0,8.34,8.34,0,0,0-6.24,6.24,15.6,15.6,0,0,0,0,7.19,8.35,8.35,0,0,0,6.24,6.23,15.6,15.6,0,0,0,7.19,0,8.38,8.38,0,0,0,6.24-6.23,15.87,15.87,0,0,0,0-7.19A8.37,8.37,0,0,0,767,581.13Z" transform="translate(-725.63 -553.21)"/></svg>