<svg id="Layer_1" data-name="Layer 1" xmlns="http://www.w3.org/2000/svg" xmlns:xlink="http://www.w3.org/1999/xlink" viewBox="0 0 48 48"><defs><style>.cls-1{fill:#fca311;}.cls-2{fill:url(#linear-gradient);}.cls-3{fill:url(#linear-gradient-2);}.cls-4{fill:url(#linear-gradient-3);}.cls-5{fill:url(#linear-gradient-4);}</style><linearGradient id="linear-gradient" x1="738.9" y1="484.86" x2="768.15" y2="427.32" gradientTransform="matrix(1, 0, 0, -1, 0, 1082)" gradientUnits="userSpaceOnUse"><stop offset="0" stop-color="#09c6f9"/><stop offset="1" stop-color="#045de9"/></linearGradient><linearGradient id="linear-gradient-2" x1="752.5" y1="491.77" x2="781.75" y2="434.24" xlink:href="#linear-gradient"/><linearGradient id="linear-gradient-3" x1="744.83" y1="487.87" x2="774.08" y2="430.34" xlink:href="#linear-gradient"/><linearGradient id="linear-gradient-4" x1="731.23" y1="480.96" x2="760.48" y2="423.43" xlink:href="#linear-gradient"/></defs><title>part</title><path class="cls-1" d="M754.66,600.58V615H734a20.36,20.36,0,0,1,14.7-13.54A35,35,0,0,1,754.66,600.58Z" transform="translate(-732.58 -600.58)"/><path class="cls-2" d="M754.66,600.58V615H734a20.36,20.36,0,0,1,14.7-13.54A35,35,0,0,1,754.66,600.58Z" transform="translate(-732.58 -600.58)"/><path class="cls-1" d="M758.49,600.58v29.75H780.1a34.88,34.88,0,0,0-.44-13.69,20.37,20.37,0,0,0-15.16-15.2A35,35,0,0,0,758.49,600.58Z" transform="translate(-732.58 -600.58)"/><path class="cls-3" d="M758.49,600.58v29.75H780.1a34.88,34.88,0,0,0-.44-13.69,20.37,20.37,0,0,0-15.16-15.2A35,35,0,0,0,758.49,600.58Z" transform="translate(-732.58 -600.58)"/><path class="cls-1" d="M779.2,634.17H758.49v14.41a34,34,0,0,0,6-.87A20.36,20.36,0,0,0,779.2,634.17Z" transform="translate(-732.58 -600.58)"/><path class="cls-4" d="M779.2,634.17H758.49v14.41a34,34,0,0,0,6-.87A20.36,20.36,0,0,0,779.2,634.17Z" transform="translate(-732.58 -600.58)"/><path class="cls-1" d="M754.66,648.58V618.82h-21.6a34.75,34.75,0,0,0,.44,13.7,20.34,20.34,0,0,0,15.16,15.19A34,34,0,0,0,754.66,648.58Z" transform="translate(-732.58 -600.58)"/><path class="cls-5" d="M754.66,648.58V618.82h-21.6a34.75,34.75,0,0,0,.44,13.7,20.34,20.34,0,0,0,15.16,15.19A34,34,0,0,0,754.66,648.58Z" transform="translate(-732.58 -600.58)"/></svg>