<svg id="Layer_1" data-name="Layer 1" xmlns="http://www.w3.org/2000/svg" xmlns:xlink="http://www.w3.org/1999/xlink" viewBox="0 0 48 61"><defs><style>.cls-1{fill:#fca311;}.cls-1,.cls-2{fill-rule:evenodd;}.cls-2{fill:url(#linear-gradient);}</style><linearGradient id="linear-gradient" x1="651.58" y1="668.05" x2="693.51" y2="603.14" gradientTransform="matrix(1, 0, 0, -1, 0, 1082)" gradientUnits="userSpaceOnUse"><stop offset="0" stop-color="#09c6f9"/><stop offset="1" stop-color="#045de9"/></linearGradient></defs><title>power</title><path class="cls-1" d="M678.09,462.85l-1.4.31V465a7.3,7.3,0,0,1-4.8,6.9v5a2.4,2.4,0,1,1-4.8,0v-5a7.3,7.3,0,0,1-4.8-6.9V463.3l-.63-.13-1.41-.32A18.77,18.77,0,0,1,646.13,449a32.37,32.37,0,0,1,0-15.65,18.78,18.78,0,0,1,14.12-13.85l1.41-.31a34.86,34.86,0,0,1,15,0l1.42.31a18.78,18.78,0,0,1,14.12,13.85,32.37,32.37,0,0,1,0,15.65A18.77,18.77,0,0,1,678.09,462.85Zm-6.2,1-.83.05a35,35,0,0,1-4,0V465a2.4,2.4,0,1,0,4.8,0Zm.08-32.4a2,2,0,0,1,.3,2.75l-3.91,5H674a1.91,1.91,0,0,1,1.73,1.11,2,2,0,0,1-.23,2.06l-6.4,8.13a1.9,1.9,0,0,1-2.7.31,2,2,0,0,1-.3-2.74l3.91-5h-5.61a1.92,1.92,0,0,1-1.73-1.1,2,2,0,0,1,.23-2.07l6.4-8.13A1.91,1.91,0,0,1,672,431.48Z" transform="translate(-645.17 -418.37)"/><path class="cls-2" d="M678.09,462.85l-1.4.31V465a7.3,7.3,0,0,1-4.8,6.9v5a2.4,2.4,0,1,1-4.8,0v-5a7.3,7.3,0,0,1-4.8-6.9V463.3l-.63-.13-1.41-.32A18.77,18.77,0,0,1,646.13,449a32.37,32.37,0,0,1,0-15.65,18.78,18.78,0,0,1,14.12-13.85l1.41-.31a34.86,34.86,0,0,1,15,0l1.42.31a18.78,18.78,0,0,1,14.12,13.85,32.37,32.37,0,0,1,0,15.65A18.77,18.77,0,0,1,678.09,462.85Zm-6.2,1-.83.05a35,35,0,0,1-4,0V465a2.4,2.4,0,1,0,4.8,0Zm.08-32.4a2,2,0,0,1,.3,2.75l-3.91,5H674a1.91,1.91,0,0,1,1.73,1.11,2,2,0,0,1-.23,2.06l-6.4,8.13a1.9,1.9,0,0,1-2.7.31,2,2,0,0,1-.3-2.74l3.91-5h-5.61a1.92,1.92,0,0,1-1.73-1.1,2,2,0,0,1,.23-2.07l6.4-8.13A1.91,1.91,0,0,1,672,431.48Z" transform="translate(-645.17 -418.37)"/></svg>