<svg id="Layer_1" data-name="Layer 1" xmlns="http://www.w3.org/2000/svg" viewBox="0 0 499.69 375.64"><defs><style>.cls-1{fill:#ddecff;}.cls-2{fill:#60a8ff;}.cls-3{fill:#223a7a;}.cls-22,.cls-4{fill:#fff;}.cls-5{fill:#1c83ff;}.cls-6{fill:#ff9d8c;}.cls-7{fill:#8593b6;}.cls-8{fill:#8e9bbb;}.cls-9{fill:#dee1eb;}.cls-10{fill:#818fb3;}.cls-11{fill:#6baeff;}.cls-12{fill:#43588e;}.cls-13{fill:#f6f7fa;}.cls-14{fill:#d9dee8;}.cls-15{fill:#596b9b;}.cls-16{fill:#7a89af;}.cls-17{fill:#bdc4d7;}.cls-18{fill:#6f7fa9;}.cls-19{fill:#9ca6c3;}.cls-20{fill:#d2e6ff;}.cls-21{fill:#ff5f42;}.cls-22{isolation:isolate;font-size:13.67px;font-family:Arial-BoldMT, Arial;font-weight:700;}.cls-23{fill:#67acff;}</style></defs><title>technical support</title><g id="OBJECTS"><path class="cls-1" d="M85.93,359.84S23.71,315.54,5.8,240.11s9.42-166.87,61.28-213S212.27,12,253.75,50.65L295.24,89.3s39.6,21.65,91.45,19.8S484.74,177.93,497,233.56s-17,129.15-17,129.15Z" transform="translate(-0.31 -4)"/><path class="cls-1" d="M57.66,371.15S14.29,347.58,3,292.9s37.71-104.65,42.42-132S39.71,99.63,83.11,73.19,203.79,56.26,233,49.68,296.17-2.19,354.64,8.18,469.7,49.67,472.48,117.54s-18.85,69.77,2.84,106.54,30.16,62.22,19.8,99.93-32.06,48.07-32.06,48.07Z" transform="translate(-0.31 -4)"/><path class="cls-1" d="M148.2,358.89c-2.68-2.82-42.26-82,1.8-154.61s154.69-64.11,198.74-35.83,65.65,65.06,70.15,103.67-25.19,99-25.19,99Z" transform="translate(-0.31 -4)"/><rect class="cls-2" x="401.62" y="184.8" width="62.22" height="36.77" rx="5.7"/><polygon class="cls-2" points="432.73 235.95 440.78 216.86 424.68 216.86 432.73 235.95"/><polygon class="cls-3" points="432.54 196.88 447.09 196.88 447.09 199 454.23 194.89 447.09 190.78 447.09 192.91 432.54 192.91 432.54 196.88"/><polygon class="cls-4" points="454.23 205.24 439.68 205.24 439.68 203.12 432.54 207.23 439.68 211.34 439.68 209.21 454.23 209.21 454.23 205.24"/><path class="cls-3" d="M423.92,213l-.69.26a22.06,22.06,0,0,1-3.28-5.15,18.42,18.42,0,0,1-1.14-6l.5-.22-3.07-7.36a6,6,0,0,0-1.49,1.69c-1.75,2.95-1.58,7.46.18,11.87s3.62,8.35,7,10.82a6.71,6.71,0,0,0,5.09,1.5Z" transform="translate(-0.31 -4)"/><path class="cls-3" d="M426.13,212.12l-1,.34,3.16,7.54a5.58,5.58,0,0,0,.94-.41,1.83,1.83,0,0,0,.83-2.28l-1.64-4.13A1.83,1.83,0,0,0,426.13,212.12Z" transform="translate(-0.31 -4)"/><path class="cls-3" d="M418.62,193.22a7.68,7.68,0,0,0-1.23.58l3.14,7.52,1.06-.43a1.87,1.87,0,0,0,1-2.36l-1.66-4.17A1.84,1.84,0,0,0,418.62,193.22Z" transform="translate(-0.31 -4)"/><path class="cls-5" d="M133.51,346.17V261.32s-.95-22.86,11.08-29.46,62.66-3.06,62.66-3.06V346.14Z" transform="translate(-0.31 -4)"/><path class="cls-6" d="M223.12,149.36s-3.07,25.7-4.25,27.82l-1.14,2.12-5.87,4s11.32,16,25.21,18.61,12.74-5.69,12.74-5.69l-2.13-4.49,2.84-24.51S225.24,155.73,223.12,149.36Z" transform="translate(-0.31 -4)"/><path class="cls-4" d="M204.49,185.43l9.2-4s5.89,9.66,19.56,15.32,13.91,2.36,14.61,0a8.91,8.91,0,0,0-.24-5l1-8.24,5.47,1.82,19,153.51-48.79,2.36Z" transform="translate(-0.31 -4)"/><path class="cls-3" d="M249.51,183.7s3.31,7.62,6.37,25.54,5.89,48.07,6.6,68.82,1.14,68.11,1.14,68.11h61.52c.7,0,4.95-23.33,4.95-23.33s-26.84-23-28.23-26.8c-.94-2.5-.47-49.1-4.48-70.55s-9.19-25.77-20.06-31.13C266.12,188.86,249.51,183.7,249.51,183.7Z" transform="translate(-0.31 -4)"/><path class="cls-7" d="M281.57,319.17a.57.57,0,0,1-.57-.57c0-1.69-.31-25.63-.59-48.79s-.59-47.1-.59-48.79a.56.56,0,0,1,.57-.57.57.57,0,0,1,.57.57c0,1.68.3,25.63.59,48.78s.59,47.1.59,48.8A.58.58,0,0,1,281.57,319.17Z" transform="translate(-0.31 -4)"/><path class="cls-3" d="M159,313.41l-.46,32.76h71.64s3.07-27.81,1.89-30.41S159,313.41,159,313.41Z" transform="translate(-0.31 -4)"/><path class="cls-8" d="M238.75,176.47a37.57,37.57,0,0,0,10,5.38l1.69-14.57s-19-8.68-25.37-15.14C226.43,159.48,229.74,169.19,238.75,176.47Z" transform="translate(-0.31 -4)"/><path class="cls-6" d="M272.62,101.51a51.26,51.26,0,0,1,5.89,18.87c.94,10.36,0,37-8.49,48.31s-26.2,8-34.18,1.14c-7.36-6.26-14.61-13.19-16.49-26.86s4-39.6,20.73-45S272.62,101.51,272.62,101.51Z" transform="translate(-0.31 -4)"/><path class="cls-6" d="M293.89,331.36h-3.07l-4.19-.11h-1c-1.48,0-2.75.14-3.93.08h-1.29a5.84,5.84,0,0,1-1.56-.62,106.19,106.19,0,0,0-24.45-3.26c-10.52,0-20,.77-21.51-.52s-2.48-14.54,6.51-15.4l11,4.19s25.23-3,34.48,3.83S293.89,331.36,293.89,331.36Z" transform="translate(-0.31 -4)"/><path class="cls-3" d="M281.65,331.25h-.91a10.21,10.21,0,0,0-1-1.3c-2.85-2.91-9.73-4.79-12.22-5.39a.43.43,0,0,1-.32-.51.43.43,0,0,1,.52-.32h0c3.64.87,11.4,3.12,13.54,6.83C281.36,330.67,281.54,331.06,281.65,331.25Z" transform="translate(-0.31 -4)"/><path class="cls-3" d="M286.62,331.19h-1c-3.11-5.7-8.19-7.29-14.48-9.32l-.38-.12a.44.44,0,0,1-.27-.55.42.42,0,0,1,.54-.26h0l.37.12C278,323.16,283.39,324.87,286.62,331.19Z" transform="translate(-0.31 -4)"/><path class="cls-3" d="M291.78,331.31h-1a24.85,24.85,0,0,0-16.38-12.14.43.43,0,0,1-.36-.48v0a.44.44,0,0,1,.49-.34C283.08,319.92,290,326.86,291.78,331.31Z" transform="translate(-0.31 -4)"/><path class="cls-3" d="M225,131.34a22.13,22.13,0,0,0,8.84-9.44A26.75,26.75,0,0,0,237,108.7s6.6-1.06,16.5,1.89,21.65,7,31.58,1.3,9.9-14.73,5.07-18.5C284.76,89.16,274,91.74,274,91.74s4.12-4,1.88-6.37-10.37.71-10.37.71-9.9-7.9-28.64-7-27.69,14-28.75,28.65S212.39,137,212.39,137Z" transform="translate(-0.31 -4)"/><path class="cls-8" d="M263,134.88c-1.06,2.61-1,5.7-1.29,8.43-.21,2.16-.61,4.68,1.37,6.14,1,.7,5.42,2.58,3.11,4.1a6,6,0,0,1-3.33.38,12,12,0,0,1-2.08-.12,15.56,15.56,0,0,0-2.2-.28.43.43,0,0,0-.41.45.43.43,0,0,0,.2.35,9.1,9.1,0,0,0,4.32,1,6.48,6.48,0,0,0,3.57-.62,2.6,2.6,0,0,0,1.64-1.84,2.91,2.91,0,0,0-1.41-2.52c-.89-.66-2-1-2.88-1.61-1.26-.89-1.14-2.4-1.06-3.8.2-3.35,1-6.64,1.27-10,0-.5-.66-.5-.82-.1Z" transform="translate(-0.31 -4)"/><path class="cls-3" d="M272.65,142.71c-.35,2-1.8,3.41-3.22,3.14s-2.28-2.07-2-4.06,1.8-3.41,3.22-3.14S273,140.72,272.65,142.71Z" transform="translate(-0.31 -4)"/><path class="cls-3" d="M254.62,141.13c-.32,2.15-1.84,3.71-3.42,3.42s-2.54-2.15-2.22-4.29,1.83-3.69,3.42-3.42S254.94,139,254.62,141.13Z" transform="translate(-0.31 -4)"/><path class="cls-3" d="M268.45,134.53c1.14.18,2.22,0,3.32.07l.8.07h.08l.42.08c.23.06.46.15.7.21a3.73,3.73,0,0,0,.67.09l.37-.06H275a1.24,1.24,0,0,0,.85-1.49,1.54,1.54,0,0,0-.24-.48c0-.07-.11-.12-.15-.18l.14.15-.15-.19a.89.89,0,0,0-.25-.26l-.28-.2a3.3,3.3,0,0,0-1-.41,8.62,8.62,0,0,0-2-.26,13.37,13.37,0,0,0-2,.16,3.89,3.89,0,0,0-1.72.63,1.15,1.15,0,0,0,.26,2.08Z" transform="translate(-0.31 -4)"/><path class="cls-3" d="M255.88,131.37a4,4,0,0,0-.46-.24c-.13-.06-.49-.25-.22-.1l-.31-.16a6.51,6.51,0,0,0-1.42-.51,9.46,9.46,0,0,0-3.31-.23,7.73,7.73,0,0,0-3.27,1,3.19,3.19,0,0,0-.42.3l-.23.31v-.1a1.11,1.11,0,0,0-.48,1,1,1,0,0,0,.51.86,1.5,1.5,0,0,0,1.14,0h-.6a2.22,2.22,0,0,0,.89,0s.32-.08.12,0,.32,0,.37,0h.21l.53-.06c.78,0,1.55-.09,2.34-.11s1.46,0,2.19,0h1.11l.39.12a1.09,1.09,0,0,0,.84-2Z" transform="translate(-0.31 -4)"/><path class="cls-3" d="M261.48,164.13a10.67,10.67,0,0,1,5.32-4.79c-2-.21-11.29-1.06-13.67.27-2.64,1.49.49,7.51,5.93,7.81a7.82,7.82,0,0,0,1.6-.1A7.78,7.78,0,0,1,261.48,164.13Z" transform="translate(-0.31 -4)"/><path class="cls-9" d="M218.4,151.49s.95,3.65,6.37,7.89a62.49,62.49,0,0,0,13.3,7.34l.62-2.74s-8.13-3.54-11.9-7.43-4.24-6-4.24-6Z" transform="translate(-0.31 -4)"/><path class="cls-3" d="M239.61,162a6.83,6.83,0,0,1,7.1,5.47c.31,2.27-1.79,4.74-6.69,2.54C233.93,167.22,235.25,162.14,239.61,162Z" transform="translate(-0.31 -4)"/><path class="cls-9" d="M221.82,124.5s1.88-13.54,11-22.78c17.33-17.56,32.06-16.5,32.06-16.5s-.13-2.47-5.7-4.36C254,79.09,251.6,80,251.6,80s-14.26,1.14-26.28,14.49S212,124.87,212,124.87Z" transform="translate(-0.31 -4)"/><path class="cls-4" d="M220.52,122.85c-11.39-1.93-17.68,7-18.15,16s6.08,15.69,14.73,15C236.66,152.31,234.43,125.21,220.52,122.85Z" transform="translate(-0.31 -4)"/><path class="cls-10" d="M214.87,145.13a7.73,7.73,0,0,1-7-4.14,8.62,8.62,0,0,1,.33-8.91.42.42,0,0,1,.59-.12.44.44,0,0,1,.12.6h0a7.76,7.76,0,0,0-.29,8,6.84,6.84,0,0,0,6.44,3.7,7.43,7.43,0,0,0,6.18-3.34,9.43,9.43,0,0,0,.94-8.37,6.38,6.38,0,0,0-6.36-4.18.43.43,0,0,1-.48-.36h0a.44.44,0,0,1,.37-.48,7.15,7.15,0,0,1,7.28,4.73,10.37,10.37,0,0,1-1,9.11,8.32,8.32,0,0,1-6.83,3.71Z" transform="translate(-0.31 -4)"/><path class="cls-3" d="M206.61,182.12s-34.4,8.49-46.42,22.16-17.68,81.08-17.92,93.58,8.49,17.68,13.67,21.21S184,329,202.37,329.91s35.83,0,35.83,0A24.67,24.67,0,0,1,241,320c2.62-5.46,5.95-6.6,5.95-6.6l-15.79-5.7s-2.77-49.56-7.08-73.48C219.11,206.64,206.61,182.12,206.61,182.12Z" transform="translate(-0.31 -4)"/><path class="cls-7" d="M263.65,299.84a.88.88,0,0,1-.23,0,.57.57,0,0,1-.28-.75c3.22-7.28,6.56-21.56,8.44-31.58l.16-.81c.57-2.95,1.28-6.62-.14-9.12-.73-1.28-2.35-4.09-3.92-6.77s-3.15-5.44-3.58-6.22c-.84-1.54,1.78-5.7,5.57-11.29,1-1.53,1.9-2.84,2.41-3.73,1.36-2.28.46-4.48-.58-6.95l-.4-.92c-.93-2.28-2-4.63-3-6.84l-1.26-2.75c-.56-1.22-1.14-2.45-1.68-3.72A214.29,214.29,0,0,0,254,185.84a.59.59,0,0,1,.21-.79.57.57,0,0,1,.77.19v0a216.57,216.57,0,0,1,11.25,22.63l1.67,3.7,1.27,2.75c1,2.28,2.1,4.56,3.06,6.92l.35.84c1.06,2.53,2.16,5.14.53,8-.54.93-1.43,2.28-2.46,3.8-2,2.94-6.09,9-5.52,10.1.43.78,1.95,3.42,3.57,6.2s3.21,5.5,3.93,6.83c1.62,2.9.87,6.78.26,9.91l-.16.8c-.68,3.66-4.31,22.34-8.52,31.83A.57.57,0,0,1,263.65,299.84Z" transform="translate(-0.31 -4)"/><path class="cls-7" d="M230.09,301.84a.56.56,0,0,1-.4-.17c-2.69-2.7-15.59-25.06-16.56-29.26-.53-2.28.8-8.15,2.07-13.8,1-4.37,2-8.9,1.73-10.12-.44-1.83-3.75-4.55-6.93-7.14-3.87-3.15-7.85-6.41-8.63-9.35-.88-3.34-.12-24.22.38-38,.17-5,.32-8.9.32-10.25a.56.56,0,0,1,.57-.57h0a.57.57,0,0,1,.57.57c0,1.41-.15,5.35-.32,10.33-.47,12.92-1.25,34.54-.41,37.72.68,2.57,4.69,5.85,8.23,8.76s6.84,5.55,7.33,7.75c.35,1.48-.62,5.69-1.72,10.64-1.14,5.27-2.54,11.23-2.08,13.29.95,4.11,13.67,26.07,16.26,28.72a.56.56,0,0,1,0,.79h0A.54.54,0,0,1,230.09,301.84Z" transform="translate(-0.31 -4)"/><path class="cls-7" d="M183.76,292.06h-.08a.57.57,0,0,1-.49-.64h0c.42-3,7-62,7.26-66.5a.57.57,0,0,1,.61-.53.58.58,0,0,1,.53.61c-.31,4.56-6.84,63.62-7.27,66.58A.58.58,0,0,1,183.76,292.06Z" transform="translate(-0.31 -4)"/><path class="cls-7" d="M230.66,308.09a.81.81,0,0,1-.22,0c-1.44-.59-7.85-2.75-15.94-5.48-16.36-5.52-38.74-13.07-43-15.28a.58.58,0,0,1-.24-.78.56.56,0,0,1,.76-.23c4.18,2.17,27.47,10,42.86,15.22,8.12,2.73,14.55,4.89,16,5.5a.56.56,0,0,1,.3.74A.59.59,0,0,1,230.66,308.09Z" transform="translate(-0.31 -4)"/><path class="cls-7" d="M222.79,331.59c-14.39,0-42.3-2.6-63.5-10.1a.59.59,0,1,1,.37-1.13c26.79,9.47,64.26,11.09,71.23,9.53a.58.58,0,0,1,.25,1.14A45.79,45.79,0,0,1,222.79,331.59Z" transform="translate(-0.31 -4)"/><path class="cls-11" d="M58.07,190.07c4.47,3.94,10.13,6.45,14.05,11,1.55,1.79,2.92,3.69,4.36,5.57,1,1.37,3.83,3.62,4.28,5.34.2.75.15-.27,0-1v-.09c-.38-3.48-.67-7-.79-10.46s.1-7-.12-10.47C79.53,185,78,180.28,74,177.2c-2-1.49-4.49-2.41-6.29-4.08s-1-3.41,0-5.16a18,18,0,0,0,2.45-5.18,9.22,9.22,0,0,0-1.5-6.23c-2.33-3.92-7.51-8.3-12.41-7.7-4.09.49-4.56,5.2-4.49,8.48s.36,6.38.4,9.58-.53,6.5-.57,9.77C51.37,182.24,53.93,186.47,58.07,190.07Z" transform="translate(-0.31 -4)"/><path class="cls-11" d="M99.55,241.07a51.85,51.85,0,0,1,4.42-8.45c2.41-3.7,5.08-7.31,6.7-11.44s1.41-8.78,1.57-13.23c.12-3.27,1.14-6.54.83-9.83-.12-1.57-1-4.11-3.06-3.86-1.6.2-2.53,2.17-3.15,3.41a60,60,0,0,0-2.58,6.84c-.31.9-.61,1.81-1,2.68-.23.5-1,1.73-1.63,1.57-1.14-.3-.12-5,0-5.86.86-4.2,2.17-8.11,2.34-12.44.26-6.27-.21-13.75-6.35-17.18-1.61-.9-3.64-1.43-5.16-.09s-1.94,3.62-2.16,5.5c-.68,5.8.67,11.29,2.54,16.74,1.53,4.56,3.35,9.11,3.49,14,.12,4.63-2.28,8.73-3.42,13.12a41.48,41.48,0,0,0-1.43,12.93c0,2.82.09,5.63.29,8.45.2,2.6.42,5.19.74,7.77a11.55,11.55,0,0,0,.2,1.62c-1-2.4-1.36-5.15-2.18-7.56-1.47-4.29-3.17-8.49-4.56-12.8a103.86,103.86,0,0,0-3.79-10.57c-1.45-3.2-3.18-6.6-5.87-9a8.6,8.6,0,0,0-5.76-2.28,15.88,15.88,0,0,0-4,.84,4.48,4.48,0,0,1-4.27-.75c-4.4-3.42-5.69-9.45-9-13.67C51,194.36,45.2,188.92,41,192.4c-2.28,1.84-2.87,5.42-2.74,8.16A19.7,19.7,0,0,0,41.65,210c1.91,3.05,4.36,5.79,6.11,8.92a9.47,9.47,0,0,1,1,5.7,13.56,13.56,0,0,0,.34,5.77c2,5.7,8.31,4.91,13.21,5.06a36.43,36.43,0,0,1,10.36,1.72,11.51,11.51,0,0,1,7.55,7.43c1,2.69,1.49,5.69,3.33,8a8.53,8.53,0,0,0,3.24,2.43c1.92.84,7.74,1.2,7.78.68a26.41,26.41,0,0,1,1.52-5.36C97.1,247.24,98.26,244.15,99.55,241.07Z" transform="translate(-0.31 -4)"/><path class="cls-11" d="M126.58,240c-.5-3.27-.41-6.84-2-9.86A.44.44,0,0,0,124,230h0c-1.14.62-1.14,2.41-1.25,3.5-.15,1.82,0,3.65-.27,5.46a41.25,41.25,0,0,1-2.27,9.47,10.25,10.25,0,0,1-7.1,6.37,18.16,18.16,0,0,0-6.2,2.74,13.05,13.05,0,0,0-3.64,5c-2.28,5.14-3.42,10.87-4.44,16.36-.71,3.69-1.29,7.41-2.19,11.06a103.91,103.91,0,0,0-2.37,11c-.09.19-.19.38-.27.57-.23.56.64.85.94.4,3.54-5.46,7.86-10.35,13.74-13.34,2.65-1.36,6.18-1.64,8.41-3.77,1.68-1.62,1.91-4.09,1.66-6.3-.33-2.9-1.72-5.28-3.17-7.74-.8-1.35-1.73-2.81-1.41-4.45a5.68,5.68,0,0,1,2.88-3.5c2.44-1.51,5.3-2.2,7.3-4.39a11.89,11.89,0,0,0,3.1-7.3A49.73,49.73,0,0,0,126.58,240Z" transform="translate(-0.31 -4)"/><path class="cls-11" d="M78.31,258.83a47,47,0,0,0-11.13-10.26c-2.28-1.5-7.6-4.46-8.68,0-.62,2.6,1.92,5.15,3.59,6.78,2.52,2.45,5.42,4.56,7.54,7.38-2.62.85-5.36,1-7.65,2.83-2.7,2.15-3.92,6.3-1.23,8.94a17,17,0,0,0,4.66,2.86c2.12,1,4.27,1.95,6.43,2.85,4.68,2,9.42,3.94,13.41,7.14s7.9,8.79,8.21,14.11c0,.51-.15,0,.14-.19.17.15.73-.12.73-.42a56.15,56.15,0,0,0-4.74-22.66A93.71,93.71,0,0,0,78.31,258.83Z" transform="translate(-0.31 -4)"/><path class="cls-12" d="M67.53,185.24c1.73,3.58,3.53,7.07,5.44,10.55A87.19,87.19,0,0,1,78,206.05c1.7,4.41,3.42,8.75,5.26,13.12a129.3,129.3,0,0,1,4.87,13.9,165.67,165.67,0,0,1,5.5,28.26A113.33,113.33,0,0,1,94.24,276c-.1,3.8-.54,7.57-.89,11.39A67.5,67.5,0,0,0,93,299.23c.29,3.31.81,7.24,3.42,9.6a.6.6,0,0,0,.84-.06.59.59,0,0,0,.08-.65c-3.05-6.25-2.88-13.08-2.28-19.87.33-3.73.78-7.46.9-11.22a112.48,112.48,0,0,0-.47-14.34A170.6,170.6,0,0,0,90.34,235a124.42,124.42,0,0,0-4.55-13.67c-1.77-4.49-3.82-8.86-5.54-13.37-3.11-8.17-7.86-15.4-12-23-.22-.4-.79,0-.61.35Z" transform="translate(-0.31 -4)"/><path class="cls-12" d="M93.81,252.05c.49-6,1-11.67,3-17.34.93-2.64,2.07-5.22,3-7.87.74-2.2,1.86-5.21,1.29-7.54a.26.26,0,0,0-.31-.21.28.28,0,0,0-.21.21c-.38,1.33-.34,2.79-.62,4.15a35.51,35.51,0,0,1-1,3.93c-.88,2.75-2,5.38-3,8.09a40,40,0,0,0-2.49,16.58.2.2,0,0,0,.2.2.21.21,0,0,0,.21-.2Z" transform="translate(-0.31 -4)"/><path class="cls-12" d="M59.35,217.88c2.35,5.7,9.45,6,14.62,7.31a13.68,13.68,0,0,1,8.38,6.57,49.88,49.88,0,0,1,4.77,11.5h.07c-1.45-6.83-3.51-15.06-10.56-18.22-5.7-2.55-13.08-1.28-16.69-7.37-.18-.3-.73-.11-.59.25Z" transform="translate(-0.31 -4)"/><path class="cls-12" d="M90.07,251.15c.28.37.54.77.83,1.14a3.17,3.17,0,0,0,.47.5,1.13,1.13,0,0,0,.66.33.14.14,0,0,0,.14-.13.12.12,0,0,0,0-.08,2.4,2.4,0,0,0-.5-.45l-.5-.45c-.33-.32-.62-.66-1-1,0-.05-.19,0-.13.11Z" transform="translate(-0.31 -4)"/><path class="cls-12" d="M75.32,269.24a57.34,57.34,0,0,1,10.81,11.62,71.15,71.15,0,0,1,3.93,6.48,72.91,72.91,0,0,1,3.19,7.51c.07.19.42.19.4,0-.57-5.37-4-10-6.69-14.42a34.53,34.53,0,0,0-5.06-6.12,44.44,44.44,0,0,0-6.22-5.49c-.27-.2-.64.25-.36.48Z" transform="translate(-0.31 -4)"/><path class="cls-12" d="M107.73,262.92c-2,1.14-2,4.21-2.06,6.18-.07,3.81.86,7.37-.8,11-1.51,3.27-3.91,6-5.81,9-1.77,2.85-3.51,6.48-3.42,9.9,0,.2.31.31.4.11a41.92,41.92,0,0,0,1.48-4.94,20.4,20.4,0,0,1,2.42-5.1c1.82-2.83,4-5.39,5.53-8.43s1.32-6.36,1.22-9.82c-.07-2.21-.28-5.77,1.49-7.41.29-.26-.06-.69-.4-.52Z" transform="translate(-0.31 -4)"/><path class="cls-4" d="M94.62,299.38c-7.9-.1-22.88-.21-22.88-.21l3.71,27.63a12.55,12.55,0,0,0,12.43,10.86h13.59a12.53,12.53,0,0,0,12.42-10.86l3.67-27.63S102.5,299.28,94.62,299.38Z" transform="translate(-0.31 -4)"/><polygon class="cls-13" points="476.06 244.6 431.01 333.84 299.63 334.79 340.18 243.33 476.06 244.6"/><path class="cls-14" d="M212.77,338.23v-7.14h85l39.13-85.8H473l3.42,3.31H343.52l-40.66,89.56S212.77,338,212.77,338.23Z" transform="translate(-0.31 -4)"/><path class="cls-14" d="M408.16,297.84c-1.48,4.46-9.53,7.89-18,7.68s-14.1-4-12.62-8.44,9.55-7.89,18-7.68S409.64,293.39,408.16,297.84Z" transform="translate(-0.31 -4)"/><path class="cls-4" d="M302.86,338.73a.53.53,0,0,1-.24-.06.57.57,0,0,1-.28-.75L343.15,248H476.43a.56.56,0,0,1,.57.57.58.58,0,0,1-.57.57H343.89L303.38,338.4A.56.56,0,0,1,302.86,338.73Z" transform="translate(-0.31 -4)"/><rect class="cls-15" x="50.27" y="341" width="156.27" height="34.64"/><rect class="cls-16" x="205.65" y="341" width="281.16" height="34.64"/><polygon class="cls-17" points="206.54 341 205.65 341 50.27 341 50.27 347.35 205.65 347.35 206.54 347.35 486.81 347.35 486.81 341 206.54 341"/><rect class="cls-18" x="42.73" y="334.16" width="170.64" height="8.49"/><rect class="cls-19" x="212.48" y="334.16" width="281.16" height="8.49"/><rect class="cls-4" x="105.74" y="112.47" width="67.53" height="39.91" rx="6.19"/><polygon class="cls-4" points="188.98 132.42 168.27 123.68 168.27 141.17 188.98 132.42"/><circle class="cls-3" cx="126.42" cy="132.42" r="3.82"/><circle class="cls-3" cx="139.51" cy="132.42" r="3.82"/><circle class="cls-3" cx="152.58" cy="132.42" r="3.82"/><path class="cls-2" d="M448.25,31.75H320.89a14.81,14.81,0,0,0-14.81,14.81v60.38a14.81,14.81,0,0,0,14.81,14.8h11.39c.32,5.47-.47,13.68-5,24a64,64,0,0,0,27.62-24h93.41a14.81,14.81,0,0,0,14.81-14.8h0V46.56a14.81,14.81,0,0,0-14.81-14.81Z" transform="translate(-0.31 -4)"/><path class="cls-4" d="M393.92,60.55H330.75a3.15,3.15,0,0,1-3.14-3.15h0a3.15,3.15,0,0,1,3.14-3.14h63.17a3.15,3.15,0,0,1,3.15,3.14h0A3.16,3.16,0,0,1,393.92,60.55Z" transform="translate(-0.31 -4)"/><path class="cls-20" d="M439.22,78.85H329.53a1.92,1.92,0,0,1-1.92-1.92h0A1.92,1.92,0,0,1,329.53,75H439.22a1.92,1.92,0,0,1,1.92,1.93h0a1.92,1.92,0,0,1-1.92,1.92Z" transform="translate(-0.31 -4)"/><path class="cls-20" d="M439.22,89.55H329.53a1.92,1.92,0,0,1-1.92-1.92h0a1.92,1.92,0,0,1,1.92-1.93H439.22a1.92,1.92,0,0,1,1.92,1.93h0a1.92,1.92,0,0,1-1.92,1.92Z" transform="translate(-0.31 -4)"/><path class="cls-20" d="M415.29,100.94H329.53A1.92,1.92,0,0,1,327.61,99h0a1.92,1.92,0,0,1,1.92-1.93h85.76A1.92,1.92,0,0,1,417.22,99h0a1.92,1.92,0,0,1-1.93,1.92Z" transform="translate(-0.31 -4)"/><path class="cls-4" d="M438.35,60.55H408.22a3.16,3.16,0,0,1-3.15-3.15h0a3.15,3.15,0,0,1,3.15-3.14h30.13a3.15,3.15,0,0,1,3.14,3.14h0A3.15,3.15,0,0,1,438.35,60.55Z" transform="translate(-0.31 -4)"/><rect class="cls-4" x="325.6" y="167.56" width="38.77" height="27.93" rx="2.28"/><path class="cls-18" d="M345.53,189.7a.93.93,0,0,1-.54-.19l-18.62-15.38a.87.87,0,0,1-.1-1.23.88.88,0,0,1,1.24-.1l18.05,14.93,17.6-15.32a.86.86,0,1,1,1.14,1.28l-18.15,15.79A.8.8,0,0,1,345.53,189.7Z" transform="translate(-0.31 -4)"/><path class="cls-18" d="M326.92,198.85a.84.84,0,0,1-.85-.83.81.81,0,0,1,.24-.61l13-13.67a.86.86,0,1,1,1.21,1.21l-13,13.67A.84.84,0,0,1,326.92,198.85Z" transform="translate(-0.31 -4)"/><path class="cls-18" d="M363.69,198.35a.85.85,0,0,1-.62-.26l-13-13a.86.86,0,0,1,1.19-1.23v0l13,13a.88.88,0,0,1,0,1.22A.89.89,0,0,1,363.69,198.35Z" transform="translate(-0.31 -4)"/><circle class="cls-21" cx="366.14" cy="166.7" r="11.43"/><text class="cls-22" transform="translate(358.11 171.52)">85</text><rect class="cls-3" x="409.63" y="142.92" width="75.89" height="19.56" rx="4.56"/><path class="cls-4" d="M419.31,161.83a.83.83,0,0,1-.71-.32,1,1,0,0,1-.25-.79l.29-2.54v-.13s-.09,0-.16,0l-2.08,1.51a1,1,0,0,1-.8.2,1,1,0,0,1-.68-.49,1,1,0,0,1-.11-.9,1.08,1.08,0,0,1,.6-.55l2.33-1.06c.07,0,.1,0,.1-.09s0-.08-.1-.1l-2.33-1a.93.93,0,0,1-.58-.61,1,1,0,0,1,.09-.83,1,1,0,0,1,.68-.51,1.14,1.14,0,0,1,.8.19l2.08,1.53h.16c.05,0,0-.06,0-.13l-.29-2.53a1,1,0,0,1,.26-.8,1,1,0,0,1,.77-.32,1,1,0,0,1,1,.94,1.23,1.23,0,0,1,0,.2l-.29,2.53v.14a.19.19,0,0,0,.18,0l2.07-1.51a1,1,0,0,1,.82-.21.93.93,0,0,1,.66.5,1,1,0,0,1,.11.9,1.13,1.13,0,0,1-.59.55l-2.35,1c-.05,0-.09,0-.09.11s0,.06.09.09l2.35,1.06a1,1,0,0,1,.59.61.94.94,0,0,1-.11.83.88.88,0,0,1-.66.49,1,1,0,0,1-.82-.17l-2.07-1.54a.19.19,0,0,0-.18,0,.15.15,0,0,0,0,.13l.29,2.54a.94.94,0,0,1-.24.8A1,1,0,0,1,419.31,161.83Z" transform="translate(-0.31 -4)"/><path class="cls-4" d="M433.12,161.83a.88.88,0,0,1-.72-.32,1.08,1.08,0,0,1-.24-.79l.29-2.54v-.13s-.09,0-.16,0l-2.08,1.51a1,1,0,0,1-.8.2,1.14,1.14,0,0,1-.79-1.39,1.21,1.21,0,0,1,.59-.55l2.35-1.06c.06,0,.09,0,.09-.09s0-.08-.09-.1l-2.35-1a1,1,0,0,1-.58-.61,1.14,1.14,0,0,1,.11-.83,1,1,0,0,1,.67-.51,1.1,1.1,0,0,1,.8.19l2.08,1.53h.16s0-.06,0-.13l-.29-2.53a1.11,1.11,0,0,1,.26-.8,1,1,0,0,1,.77-.32.95.95,0,0,1,1,1.12l-.29,2.53v.13s.09,0,.16,0l2.09-1.5a1.08,1.08,0,0,1,.82-.22,1.13,1.13,0,0,1,.76,1.41,1.15,1.15,0,0,1-.59.54l-2.34,1c-.07,0-.1,0-.1.1s0,.07.1.09l2.34,1.06a1,1,0,0,1,.59.62,1.07,1.07,0,0,1-.76,1.32,1,1,0,0,1-.82-.17l-2.1-1.5h-.16s0,.06,0,.12l.29,2.54a.94.94,0,0,1-.24.8A1,1,0,0,1,433.12,161.83Z" transform="translate(-0.31 -4)"/><path class="cls-4" d="M446.94,161.83a.89.89,0,0,1-.73-.32,1.08,1.08,0,0,1-.24-.79l.3-2.54v-.13a.15.15,0,0,0-.16,0L444,159.56a1,1,0,0,1-.79.2,1,1,0,0,1-.69-.49,1,1,0,0,1-.1-.9,1.1,1.1,0,0,1,.59-.55l2.34-1.06c.07,0,.1,0,.1-.09s0-.08-.1-.1l-2.34-1a1,1,0,0,1-.58-.61,1.05,1.05,0,0,1,.78-1.34,1.11,1.11,0,0,1,.79.19l2.09,1.53a.12.12,0,0,0,.16,0v-.13l-.3-2.53a1.06,1.06,0,0,1,.26-.8,1,1,0,0,1,.77-.32,1,1,0,0,1,1,.93,1.48,1.48,0,0,1,0,.21l-.29,2.53v.14a.15.15,0,0,0,.16,0l2.08-1.51a1.07,1.07,0,0,1,.83-.21,1,1,0,0,1,.66.5,1,1,0,0,1,.11.9,1.17,1.17,0,0,1-.59.55l-2.35,1c-.06,0-.09,0-.09.11s0,.06.09.09l2.35,1.06a1,1,0,0,1,.59.61,1,1,0,0,1-.11.83.9.9,0,0,1-.66.49,1.06,1.06,0,0,1-.83-.17l-2.08-1.54a.15.15,0,0,0-.16,0,.11.11,0,0,0,0,.13l.29,2.54a.94.94,0,0,1-.24.8A1.05,1.05,0,0,1,446.94,161.83Z" transform="translate(-0.31 -4)"/><path class="cls-4" d="M460.75,161.83a.87.87,0,0,1-.72-.32,1,1,0,0,1-.24-.79l.29-2.54v-.13s-.1,0-.16,0l-2.09,1.51a1,1,0,0,1-.8.2,1.14,1.14,0,0,1-.78-1.39,1.18,1.18,0,0,1,.54-.47l2.35-1.06c.06,0,.09,0,.09-.09s0-.08-.09-.1l-2.35-1.05a1,1,0,0,1-.58-.61,1.14,1.14,0,0,1,.11-.83,1,1,0,0,1,.67-.51,1.1,1.1,0,0,1,.8.19l2.08,1.53H460s0-.06,0-.13l-.29-2.53a1,1,0,0,1,.26-.8,1,1,0,0,1,.77-.32.95.95,0,0,1,1,1.12l-.29,2.53v.13s.09,0,.16,0l2.09-1.5a1.06,1.06,0,0,1,.82-.22,1,1,0,0,1,.65.51,1,1,0,0,1,.11.9,1.12,1.12,0,0,1-.59.54l-2.34,1.05c-.07,0-.1,0-.1.1s0,.07.1.09l2.43,1.06a1,1,0,0,1,.59.62,1.07,1.07,0,0,1-.76,1.32,1,1,0,0,1-.82-.17l-2.09-1.54h-.16s0,.07,0,.13l.29,2.54a.91.91,0,0,1-.24.79A1,1,0,0,1,460.75,161.83Z" transform="translate(-0.31 -4)"/><path class="cls-23" d="M474.57,161.83a.86.86,0,0,1-.73-.32,1,1,0,0,1-.24-.79l.29-2.54v-.13a.15.15,0,0,0-.16,0l-2.13,1.54a1,1,0,0,1-1.45-.29,1,1,0,0,1-.14-.85,1.19,1.19,0,0,1,.6-.55l2.34-1.06c.07,0,.09,0,.09-.09s0-.08-.09-.1l-2.34-1.05A1,1,0,0,1,470,155a1,1,0,0,1,.09-.83,1.06,1.06,0,0,1,.68-.51,1.13,1.13,0,0,1,.8.19l2.09,1.53a.12.12,0,0,0,.16,0v-.13l-.3-2.53a1.06,1.06,0,0,1,.26-.8,1,1,0,0,1,.77-.32,1,1,0,0,1,1,.93.74.74,0,0,1,0,.21l-.3,2.53v.14a.15.15,0,0,0,.16,0l2.08-1.51a1.06,1.06,0,0,1,.82-.21.92.92,0,0,1,.66.5,1,1,0,0,1,.12.9,1.19,1.19,0,0,1-.6.55l-2.34,1c-.07,0-.09,0-.09.11s0,.06.09.09l2.34,1.06a1,1,0,0,1,.6.61.94.94,0,0,1-.12.83.86.86,0,0,1-.66.49,1,1,0,0,1-.82-.17l-2.08-1.54a.15.15,0,0,0-.16,0v.13l.3,2.54a.94.94,0,0,1-.24.8A1,1,0,0,1,474.57,161.83Z" transform="translate(-0.31 -4)"/></g></svg>